font.ufo
<glyph name="percent" format="2">
	<unicode hex="0025"/>
	<advance width="818"/>
	<outline>
		<contour>
			<point x="170" y="274" type="curve" smooth="yes"/>
			<point x="235" y="274"/>
			<point x="295" y="331"/>
			<point x="295" y="479" type="curve" smooth="yes"/>
			<point x="295" y="627"/>
			<point x="235" y="685"/>
			<point x="170" y="685" type="curve" smooth="yes"/>
			<point x="105" y="685"/>
			<point x="44" y="627"/>
			<point x="44" y="479" type="curve" smooth="yes"/>
			<point x="44" y="331"/>
			<point x="105" y="274"/>
		</contour>
		<contour>
			<point x="170" y="293" type="curve" smooth="yes"/>
			<point x="123" y="293"/>
			<point x="76" y="338"/>
			<point x="76" y="479" type="curve" smooth="yes"/>
			<point x="76" y="620"/>
			<point x="123" y="666"/>
			<point x="170" y="666" type="curve" smooth="yes"/>
			<point x="216" y="666"/>
			<point x="264" y="620"/>
			<point x="264" y="479" type="curve" smooth="yes"/>
			<point x="264" y="338"/>
			<point x="216" y="293"/>
		</contour>
		<contour>
			<point x="649" y="-9" type="curve" smooth="yes"/>
			<point x="714" y="-9"/>
			<point x="774" y="48"/>
			<point x="774" y="196" type="curve" smooth="yes"/>
			<point x="774" y="344"/>
			<point x="714" y="402"/>
			<point x="649" y="402" type="curve" smooth="yes"/>
			<point x="584" y="402"/>
			<point x="523" y="344"/>
			<point x="523" y="196" type="curve" smooth="yes"/>
			<point x="523" y="48"/>
			<point x="584" y="-9"/>
		</contour>
		<contour>
			<point x="649" y="10" type="curve" smooth="yes"/>
			<point x="602" y="10"/>
			<point x="555" y="55"/>
			<point x="555" y="196" type="curve" smooth="yes"/>
			<point x="555" y="337"/>
			<point x="602" y="383"/>
			<point x="649" y="383" type="curve" smooth="yes"/>
			<point x="695" y="383"/>
			<point x="743" y="337"/>
			<point x="743" y="196" type="curve" smooth="yes"/>
			<point x="743" y="55"/>
			<point x="695" y="10"/>
		</contour>
		<component base="fraction" xOffset="339"/>
	</outline>
</glyph>
<glyph name="plus" format="2">
	<unicode hex="002B"/>
	<advance width="530"/>
	<outline>
		<contour>
			<point x="251" y="98" type="line"/>
			<point x="279" y="98" type="line"/>
			<point x="279" y="569" type="line"/>
			<point x="251" y="569" type="line"/>
		</contour>
		<contour>
			<point x="490" y="323" type="line"/>
			<point x="490" y="349" type="line"/>
			<point x="40" y="349" type="line"/>
			<point x="40" y="323" type="line"/>
		</contour>
	</outline>
</glyph>
<glyph name="hyphen" format="2">
	<unicode hex="002D"/>
	<unicode hex="00AD"/>
	<unicode hex="2010"/>
	<advance width="310"/>
	<outline>
		<contour>
			<point x="40" y="226" type="line"/>
			<point x="270" y="226" type="line"/>
			<point x="270" y="252" type="line"/>
			<point x="40" y="252" type="line"/>
		</contour>
	</outline>
</glyph>
<glyph name="zero" format="2">
	<unicode hex="0030"/>
	<advance width="490"/>
	<outline>
		<contour>
			<point x="245" y="-13" type="curve" smooth="yes"/>
			<point x="345" y="-13"/>
			<point x="436" y="86"/>
			<point x="436" y="325" type="curve" smooth="yes"/>
			<point x="436" y="566"/>
			<point x="345" y="667"/>
			<point x="245" y="667" type="curve" smooth="yes"/>
			<point x="145" y="667"/>
			<point x="54" y="566"/>
			<point x="54" y="325" type="curve" smooth="yes"/>
			<point x="54" y="86"/>
			<point x="145" y="-13"/>
		</contour>
		<contour>
			<point x="245" y="7" type="curve" smooth="yes"/>
			<point x="168" y="7"/>
			<point x="86" y="94"/>
			<point x="86" y="325" type="curve" smooth="yes"/>
			<point x="86" y="558"/>
			<point x="168" y="647"/>
			<point x="245" y="647" type="curve" smooth="yes"/>
			<point x="322" y="647"/>
			<point x="404" y="558"/>
			<point x="404" y="325" type="curve" smooth="yes"/>
			<point x="404" y="94"/>
			<point x="322" y="7"/>
		</contour>
	</outline>
</glyph>
<glyph name="three" format="2">
	<unicode hex="0033"/>
	<advance width="490"/>
	<outline>
		<contour>
			<point x="225" y="-13" type="curve" smooth="yes"/>
			<point x="337" y="-13"/>
			<point x="425" y="54"/>
			<point x="425" y="168" type="curve" smooth="yes"/>
			<point x="425" y="275"/>
			<point x="355" y="340"/>
			<point x="233" y="344" type="curve"/>
			<point x="233" y="340" type="line"/>
			<point x="341" y="352"/>
			<point x="404" y="424"/>
			<point x="404" y="506" type="curve" smooth="yes"/>
			<point x="404" y="600"/>
			<point x="339" y="667"/>
			<point x="235" y="667" type="curve" smooth="yes"/>
			<point x="164" y="667"/>
			<point x="86" y="635"/>
			<point x="66" y="551" type="curve"/>
			<point x="68" y="542"/>
			<point x="76" y="538"/>
			<point x="85" y="538" type="curve" smooth="yes"/>
			<point x="97" y="538"/>
			<point x="103" y="543"/>
			<point x="107" y="557" type="curve" smooth="yes"/>
			<point x="132" y="634" type="line"/>
			<point x="112" y="611" type="line"/>
			<point x="152" y="637"/>
			<point x="185" y="647"/>
			<point x="233" y="647" type="curve" smooth="yes"/>
			<point x="322" y="647"/>
			<point x="372" y="591"/>
			<point x="372" y="506" type="curve" smooth="yes"/>
			<point x="372" y="408"/>
			<point x="295" y="352"/>
			<point x="200" y="352" type="curve" smooth="yes"/>
			<point x="159" y="352" type="line"/>
			<point x="159" y="332" type="line"/>
			<point x="201" y="332" type="line" smooth="yes"/>
			<point x="330" y="332"/>
			<point x="393" y="275"/>
			<point x="393" y="169" type="curve" smooth="yes"/>
			<point x="393" y="74"/>
			<point x="330" y="7"/>
			<point x="216" y="7" type="curve" smooth="yes"/>
			<point x="160" y="7"/>
			<point x="126" y="21"/>
			<point x="94" y="43" type="curve"/>
			<point x="116" y="16" type="line"/>
			<point x="88" y="98" type="line" smooth="yes"/>
			<point x="84" y="109"/>
			<point x="77" y="115"/>
			<point x="67" y="115" type="curve" smooth="yes"/>
			<point x="55" y="115"/>
			<point x="47" y="107"/>
			<point x="47" y="97" type="curve"/>
			<point x="70" y="26"/>
			<point x="135" y="-13"/>
		</contour>
	</outline>
</glyph>
<glyph name="five" format="2">
	<unicode hex="0035"/>
	<advance width="490"/>
	<outline>
		<contour>
			<point x="211" y="-13" type="curve" smooth="yes"/>
			<point x="352" y="-13"/>
			<point x="433" y="72"/>
			<point x="433" y="190" type="curve" smooth="yes"/>
			<point x="433" y="317"/>
			<point x="354" y="386"/>
			<point x="232" y="386" type="curve" smooth="yes"/>
			<point x="182" y="386"/>
			<point x="139" y="376"/>
			<point x="92" y="348" type="curve"/>
			<point x="107" y="344" type="line"/>
			<point x="127" y="642" type="line"/>
			<point x="117" y="626" type="line"/>
			<point x="417" y="626" type="line"/>
			<point x="417" y="654" type="line"/>
			<point x="107" y="654" type="line"/>
			<point x="86" y="338" type="line"/>
			<point x="103" y="335" type="line"/>
			<point x="139" y="358"/>
			<point x="179" y="366"/>
			<point x="230" y="366" type="curve" smooth="yes"/>
			<point x="331" y="366"/>
			<point x="401" y="317"/>
			<point x="401" y="190" type="curve" smooth="yes"/>
			<point x="401" y="71"/>
			<point x="332" y="7"/>
			<point x="207" y="7" type="curve" smooth="yes"/>
			<point x="152" y="7"/>
			<point x="120" y="19"/>
			<point x="87" y="41" type="curve"/>
			<point x="114" y="13" type="line"/>
			<point x="78" y="96" type="line" smooth="yes"/>
			<point x="73" y="107"/>
			<point x="67" y="112"/>
			<point x="57" y="112" type="curve" smooth="yes"/>
			<point x="47" y="112"/>
			<point x="40" y="106"/>
			<point x="37" y="97" type="curve"/>
			<point x="58" y="25"/>
			<point x="126" y="-13"/>
		</contour>
	</outline>
</glyph>
<glyph name="seven" format="2">
	<unicode hex="0037"/>
	<advance width="490"/>
	<outline>
		<contour>
			<point x="145" y="0" type="line"/>
			<point x="174" y="0" type="line"/>
			<point x="424" y="634" type="line"/>
			<point x="424" y="654" type="line"/>
			<point x="46" y="654" type="line"/>
			<point x="46" y="626" type="line"/>
			<point x="402" y="626" type="line"/>
			<point x="405" y="618" type="line"/>
			<point x="405" y="640" type="line"/>
			<point x="141" y="4" type="line"/>
		</contour>
	</outline>
</glyph>
<glyph name="nine" format="2">
	<unicode hex="0039"/>
	<advance width="490"/>
	<outline>
		<contour>
			<point x="85" y="-13" type="line"/>
			<point x="310" y="60"/>
			<point x="431" y="218"/>
			<point x="431" y="412" type="curve" smooth="yes"/>
			<point x="431" y="581"/>
			<point x="358" y="667"/>
			<point x="242" y="667" type="curve" smooth="yes"/>
			<point x="137" y="667"/>
			<point x="49" y="583"/>
			<point x="49" y="462" type="curve" smooth="yes"/>
			<point x="49" y="341"/>
			<point x="128" y="267"/>
			<point x="241" y="267" type="curve" smooth="yes"/>
			<point x="320" y="267"/>
			<point x="377" y="304"/>
			<point x="419" y="366" type="curve"/>
			<point x="423" y="366" type="line"/>
			<point x="412" y="371" type="line"/>
			<point x="363" y="318"/>
			<point x="308" y="287"/>
			<point x="248" y="287" type="curve" smooth="yes"/>
			<point x="152" y="287"/>
			<point x="81" y="356"/>
			<point x="81" y="460" type="curve" smooth="yes"/>
			<point x="81" y="576"/>
			<point x="153" y="647"/>
			<point x="241" y="647" type="curve" smooth="yes"/>
			<point x="333" y="647"/>
			<point x="399" y="569"/>
			<point x="399" y="410" type="curve" smooth="yes"/>
			<point x="399" y="236"/>
			<point x="286" y="80"/>
			<point x="79" y="4" type="curve"/>
		</contour>
	</outline>
</glyph>
<glyph name="E" format="2">
	<unicode hex="0045"/>
	<advance width="601"/>
	<outline>
		<contour>
			<point x="58" y="0" type="line"/>
			<point x="182" y="0" type="line"/>
			<point x="182" y="27" type="line"/>
			<point x="175" y="27" type="line"/>
			<point x="58" y="20" type="line"/>
		</contour>
		<contour>
			<point x="165" y="0" type="curve"/>
			<point x="199" y="0" type="line"/>
			<point x="197" y="102"/>
			<point x="197" y="206"/>
			<point x="197" y="340" type="curve" smooth="yes"/>
			<point x="197" y="347" type="line" smooth="yes"/>
			<point x="197" y="471"/>
			<point x="197" y="574"/>
			<point x="199" y="676" type="curve"/>
			<point x="165" y="676" type="line"/>
			<point x="167" y="574"/>
			<point x="167" y="471"/>
			<point x="167" y="367" type="curve" smooth="yes"/>
			<point x="167" y="310" type="line" smooth="yes"/>
			<point x="167" y="206"/>
			<point x="167" y="102"/>
		</contour>
		<contour>
			<point x="182" y="0" type="line"/>
			<point x="546" y="0" type="line"/>
			<point x="556" y="153" type="line"/>
			<point x="532" y="153" type="line"/>
			<point x="514" y="7" type="line"/>
			<point x="530" y="22" type="line"/>
			<point x="182" y="22" type="line"/>
		</contour>
		<contour>
			<point x="182" y="331" type="line"/>
			<point x="403" y="331" type="line"/>
			<point x="403" y="353" type="line"/>
			<point x="182" y="353" type="line"/>
		</contour>
		<contour>
			<point x="404" y="234" type="line"/>
			<point x="423" y="234" type="line"/>
			<point x="423" y="450" type="line"/>
			<point x="404" y="450" type="line"/>
			<point x="394" y="352" type="line"/>
			<point x="394" y="332" type="line"/>
		</contour>
		<contour>
			<point x="58" y="656" type="line"/>
			<point x="175" y="649" type="line"/>
			<point x="182" y="649" type="line"/>
			<point x="182" y="676" type="line"/>
			<point x="58" y="676" type="line"/>
		</contour>
		<contour>
			<point x="518" y="523" type="line"/>
			<point x="542" y="523" type="line"/>
			<point x="532" y="676" type="line"/>
			<point x="182" y="676" type="line"/>
			<point x="182" y="654" type="line"/>
			<point x="519" y="654" type="line"/>
			<point x="500" y="671" type="line"/>
		</contour>
	</outline>
	<anchor name="aboveUC" x="345" y="696"/>
	<anchor name="belowLC" x="350" y="-20"/>
	<anchor name="ogonek" x="480" y="0"/>
</glyph>
<glyph name="F" format="2">
	<unicode hex="0046"/>
	<advance width="579"/>
	<outline>
		<contour>
			<point x="58" y="0" type="line"/>
			<point x="316" y="0" type="line"/>
			<point x="316" y="20" type="line"/>
			<point x="189" y="27" type="line"/>
			<point x="175" y="27" type="line"/>
			<point x="58" y="20" type="line"/>
		</contour>
		<contour>
			<point x="165" y="0" type="curve"/>
			<point x="199" y="0" type="line"/>
			<point x="197" y="102"/>
			<point x="197" y="206"/>
			<point x="197" y="340" type="curve" smooth="yes"/>
			<point x="197" y="347" type="line" smooth="yes"/>
			<point x="197" y="471"/>
			<point x="197" y="574"/>
			<point x="199" y="676" type="curve"/>
			<point x="165" y="676" type="line"/>
			<point x="167" y="574"/>
			<point x="167" y="471"/>
			<point x="167" y="367" type="curve" smooth="yes"/>
			<point x="167" y="310" type="line" smooth="yes"/>
			<point x="167" y="206"/>
			<point x="167" y="102"/>
		</contour>
		<contour>
			<point x="182" y="331" type="line"/>
			<point x="403" y="331" type="line"/>
			<point x="403" y="353" type="line"/>
			<point x="182" y="353" type="line"/>
		</contour>
		<contour>
			<point x="404" y="234" type="line"/>
			<point x="423" y="234" type="line"/>
			<point x="423" y="450" type="line"/>
			<point x="404" y="450" type="line"/>
			<point x="394" y="352" type="line"/>
			<point x="394" y="332" type="line"/>
		</contour>
		<contour>
			<point x="58" y="656" type="line"/>
			<point x="175" y="649" type="line"/>
			<point x="182" y="649" type="line"/>
			<point x="182" y="676" type="line"/>
			<point x="58" y="676" type="line"/>
		</contour>
		<contour>
			<point x="520" y="523" type="line"/>
			<point x="544" y="523" type="line"/>
			<point x="534" y="676" type="line"/>
			<point x="182" y="676" type="line"/>
			<point x="182" y="654" type="line"/>
			<point x="522" y="654" type="line"/>
			<point x="501" y="672" type="line"/>
		</contour>
	</outline>
	<anchor name="aboveUC" x="342" y="696"/>
	<anchor name="belowLC" x="181" y="-20"/>
</glyph>
<glyph name="G" format="2">
	<unicode hex="0047"/>
	<advance width="685"/>
	<outline>
		<contour>
			<point x="390" y="-13" type="curve" smooth="yes"/>
			<point x="468" y="-13"/>
			<point x="525" y="3"/>
			<point x="599" y="48" type="curve"/>
			<point x="599" y="99" type="line" smooth="yes"/>
			<point x="599" y="193"/>
			<point x="600" y="257"/>
			<point x="602" y="320" type="curve"/>
			<point x="566" y="320" type="line"/>
			<point x="568" y="246"/>
			<point x="569" y="173"/>
			<point x="569" y="99" type="curve" smooth="yes"/>
			<point x="569" y="52" type="line"/>
			<point x="582" y="68" type="line"/>
			<point x="522" y="27"/>
			<point x="461" y="9"/>
			<point x="388" y="9" type="curve" smooth="yes"/>
			<point x="212" y="9"/>
			<point x="96" y="138"/>
			<point x="96" y="338" type="curve" smooth="yes"/>
			<point x="96" y="537"/>
			<point x="213" y="667"/>
			<point x="394" y="667" type="curve" smooth="yes"/>
			<point x="473" y="667"/>
			<point x="520" y="647"/>
			<point x="576" y="607" type="curve"/>
			<point x="576" y="627" type="line"/>
			<point x="555" y="636" type="line"/>
			<point x="573" y="491" type="line"/>
			<point x="597" y="491" type="line"/>
			<point x="593" y="630" type="line"/>
			<point x="533" y="668"/>
			<point x="477" y="689"/>
			<point x="391" y="689" type="curve" smooth="yes"/>
			<point x="199" y="689"/>
			<point x="64" y="548"/>
			<point x="64" y="338" type="curve" smooth="yes"/>
			<point x="64" y="129"/>
			<point x="194" y="-13"/>
		</contour>
		<contour>
			<point x="447" y="300" type="line"/>
			<point x="577" y="293" type="line"/>
			<point x="591" y="293" type="line"/>
			<point x="677" y="300" type="line"/>
			<point x="677" y="320" type="line"/>
			<point x="447" y="320" type="line"/>
		</contour>
	</outline>
	<anchor name="aboveUC" x="394" y="696"/>
	<anchor name="belowLC" x="394" y="-20"/>
</glyph>
<glyph name="K" format="2">
	<unicode hex="004B"/>
	<advance width="664"/>
	<outline>
		<contour>
			<point x="165" y="0" type="curve"/>
			<point x="199" y="0" type="line"/>
			<point x="197" y="102"/>
			<point x="197" y="186"/>
			<point x="197" y="230" type="curve" smooth="yes"/>
			<point x="197" y="367" type="line" smooth="yes"/>
			<point x="197" y="471"/>
			<point x="197" y="574"/>
			<point x="199" y="676" type="curve"/>
			<point x="165" y="676" type="line"/>
			<point x="167" y="574"/>
			<point x="167" y="471"/>
			<point x="167" y="367" type="curve" smooth="yes"/>
			<point x="167" y="310" type="line" smooth="yes"/>
			<point x="167" y="206"/>
			<point x="167" y="102"/>
		</contour>
		<contour>
			<point x="58" y="0" type="line"/>
			<point x="306" y="0" type="line"/>
			<point x="306" y="20" type="line"/>
			<point x="189" y="27" type="line"/>
			<point x="175" y="27" type="line"/>
			<point x="58" y="20" type="line"/>
		</contour>
		<contour>
			<point x="58" y="656" type="line"/>
			<point x="175" y="649" type="line"/>
			<point x="189" y="649" type="line"/>
			<point x="306" y="656" type="line"/>
			<point x="306" y="676" type="line"/>
			<point x="58" y="676" type="line"/>
		</contour>
		<contour>
			<point x="441" y="0" type="line"/>
			<point x="669" y="0" type="line"/>
			<point x="669" y="20" type="line"/>
			<point x="567" y="27" type="line"/>
			<point x="553" y="27" type="line"/>
			<point x="441" y="20" type="line"/>
		</contour>
		<contour>
			<point x="414" y="656" type="line"/>
			<point x="540" y="649" type="line"/>
			<point x="554" y="649" type="line"/>
			<point x="640" y="656" type="line"/>
			<point x="640" y="676" type="line"/>
			<point x="414" y="676" type="line"/>
		</contour>
		<contour>
			<point x="182" y="193" type="line"/>
			<point x="585" y="676" type="line"/>
			<point x="554" y="676" type="line"/>
			<point x="191" y="238" type="line"/>
			<point x="182" y="228" type="line"/>
			<point x="179" y="228" type="line"/>
		</contour>
		<contour>
			<point x="558" y="0" type="line"/>
			<point x="591" y="0" type="line"/>
			<point x="350" y="413" type="line"/>
			<point x="328" y="387" type="line"/>
		</contour>
	</outline>
	<anchor name="aboveUC" x="348" y="696"/>
	<anchor name="belowLC" x="362" y="-20"/>
</glyph>
<glyph name="L" format="2">
	<unicode hex="004C"/>
	<advance width="564"/>
	<outline>
		<contour>
			<point x="58" y="0" type="line"/>
			<point x="182" y="0" type="line"/>
			<point x="182" y="27" type="line"/>
			<point x="175" y="27" type="line"/>
			<point x="58" y="20" type="line"/>
		</contour>
		<contour>
			<point x="165" y="0" type="curve"/>
			<point x="199" y="0" type="line"/>
			<point x="197" y="102"/>
			<point x="197" y="206"/>
			<point x="197" y="289" type="curve" smooth="yes"/>
			<point x="197" y="329" type="line" smooth="yes"/>
			<point x="197" y="471"/>
			<point x="197" y="574"/>
			<point x="199" y="676" type="curve"/>
			<point x="165" y="676" type="line"/>
			<point x="167" y="574"/>
			<point x="167" y="471"/>
			<point x="167" y="367" type="curve" smooth="yes"/>
			<point x="167" y="310" type="line" smooth="yes"/>
			<point x="167" y="206"/>
			<point x="167" y="102"/>
		</contour>
		<contour>
			<point x="182" y="0" type="line"/>
			<point x="524" y="0" type="line"/>
			<point x="534" y="163" type="line"/>
			<point x="510" y="163" type="line"/>
			<point x="493" y="9" type="line"/>
			<point x="506" y="22" type="line"/>
			<point x="182" y="22" type="line"/>
		</contour>
		<contour>
			<point x="58" y="656" type="line"/>
			<point x="175" y="649" type="line"/>
			<point x="189" y="649" type="line"/>
			<point x="306" y="656" type="line"/>
			<point x="306" y="676" type="line"/>
			<point x="58" y="676" type="line"/>
		</contour>
	</outline>
	<anchor name="aboveUC" x="181" y="696"/>
	<anchor name="belowLC" x="317" y="-20"/>
</glyph>
<glyph name="M" format="2">
	<unicode hex="004D"/>
	<advance width="897"/>
	<outline>
		<contour>
			<point x="46" y="0" type="line"/>
			<point x="264" y="0" type="line"/>
			<point x="264" y="20" type="line"/>
			<point x="157" y="27" type="line"/>
			<point x="143" y="27" type="line"/>
			<point x="46" y="20" type="line"/>
		</contour>
		<contour>
			<point x="36" y="656" type="line"/>
			<point x="153" y="649" type="line"/>
			<point x="157" y="649" type="line"/>
			<point x="157" y="676" type="line"/>
			<point x="36" y="676" type="line"/>
		</contour>
		<contour>
			<point x="138" y="0" type="line"/>
			<point x="162" y="0" type="line"/>
			<point x="162" y="380" type="line"/>
			<point x="157" y="676" type="line"/>
			<point x="138" y="676" type="line"/>
		</contour>
		<contour>
			<point x="427" y="0" type="line"/>
			<point x="439" y="0" type="line"/>
			<point x="708" y="640" type="line"/>
			<point x="714" y="655" type="line"/>
			<point x="718" y="655" type="line"/>
			<point x="718" y="676" type="line"/>
			<point x="696" y="676" type="line"/>
			<point x="432" y="45" type="line"/>
			<point x="430" y="40" type="line"/>
			<point x="439" y="40" type="line"/>
			<point x="171" y="676" type="line"/>
			<point x="143" y="676" type="line"/>
			<point x="143" y="655" type="line"/>
			<point x="147" y="655" type="line"/>
		</contour>
		<contour>
			<point x="591" y="0" type="line"/>
			<point x="839" y="0" type="line"/>
			<point x="839" y="20" type="line"/>
			<point x="722" y="27" type="line"/>
			<point x="708" y="27" type="line"/>
			<point x="591" y="20" type="line"/>
		</contour>
		<contour>
			<point x="698" y="0" type="curve"/>
			<point x="732" y="0" type="line"/>
			<point x="730" y="102"/>
			<point x="730" y="206"/>
			<point x="730" y="310" type="curve" smooth="yes"/>
			<point x="730" y="367" type="line" smooth="yes"/>
			<point x="730" y="471"/>
			<point x="730" y="574"/>
			<point x="732" y="676" type="curve"/>
			<point x="703" y="676" type="line"/>
			<point x="700" y="300" type="line" smooth="yes"/>
			<point x="699" y="206"/>
			<point x="700" y="102"/>
		</contour>
		<contour>
			<point x="715" y="649" type="line"/>
			<point x="722" y="649" type="line"/>
			<point x="839" y="656" type="line"/>
			<point x="839" y="676" type="line"/>
			<point x="715" y="676" type="line"/>
		</contour>
	</outline>
	<anchor name="aboveUC" x="440" y="696"/>
	<anchor name="belowLC" x="432" y="-20"/>
</glyph>
<glyph name="O" format="2">
	<unicode hex="004F"/>
	<advance width="706"/>
	<outline>
		<contour>
			<point x="353" y="-13" type="curve" smooth="yes"/>
			<point x="518" y="-13"/>
			<point x="643" y="126"/>
			<point x="643" y="338" type="curve" smooth="yes"/>
			<point x="643" y="550"/>
			<point x="518" y="689"/>
			<point x="353" y="689" type="curve" smooth="yes"/>
			<point x="188" y="689"/>
			<point x="63" y="550"/>
			<point x="63" y="338" type="curve" smooth="yes"/>
			<point x="63" y="126"/>
			<point x="188" y="-13"/>
		</contour>
		<contour>
			<point x="353" y="9" type="curve" smooth="yes"/>
			<point x="193" y="9"/>
			<point x="95" y="158"/>
			<point x="95" y="338" type="curve" smooth="yes"/>
			<point x="95" y="518"/>
			<point x="193" y="667"/>
			<point x="353" y="667" type="curve" smooth="yes"/>
			<point x="513" y="667"/>
			<point x="611" y="518"/>
			<point x="611" y="338" type="curve" smooth="yes"/>
			<point x="611" y="158"/>
			<point x="513" y="9"/>
		</contour>
	</outline>
	<anchor name="aboveUC" x="353" y="696"/>
	<anchor name="belowLC" x="358" y="-20"/>
	<anchor name="hornLC" x="536" y="594"/>
	<anchor name="ogonek" x="443" y="0"/>
</glyph>
<glyph name="P" format="2">
	<unicode hex="0050"/>
	<advance width="578"/>
	<outline>
		<contour>
			<point x="58" y="0" type="line"/>
			<point x="316" y="0" type="line"/>
			<point x="316" y="20" type="line"/>
			<point x="189" y="27" type="line"/>
			<point x="175" y="27" type="line"/>
			<point x="58" y="20" type="line"/>
		</contour>
		<contour>
			<point x="165" y="0" type="curve"/>
			<point x="199" y="0" type="line"/>
			<point x="197" y="102"/>
			<point x="197" y="206"/>
			<point x="197" y="300" type="curve" smooth="yes"/>
			<point x="197" y="367" type="line" smooth="yes"/>
			<point x="197" y="471"/>
			<point x="197" y="574"/>
			<point x="199" y="676" type="curve"/>
			<point x="165" y="676" type="line"/>
			<point x="167" y="574"/>
			<point x="167" y="471"/>
			<point x="167" y="367" type="curve" smooth="yes"/>
			<point x="167" y="310" type="line" smooth="yes"/>
			<point x="167" y="206"/>
			<point x="167" y="102"/>
		</contour>
		<contour>
			<point x="182" y="285" type="line"/>
			<point x="268" y="285" type="line" smooth="yes"/>
			<point x="443" y="285"/>
			<point x="530" y="368"/>
			<point x="530" y="484" type="curve" smooth="yes"/>
			<point x="530" y="604"/>
			<point x="458" y="676"/>
			<point x="310" y="676" type="curve" smooth="yes"/>
			<point x="182" y="676" type="line"/>
			<point x="182" y="654" type="line"/>
			<point x="305" y="654" type="line" smooth="yes"/>
			<point x="442" y="654"/>
			<point x="500" y="596"/>
			<point x="500" y="484" type="curve" smooth="yes"/>
			<point x="500" y="380"/>
			<point x="432" y="305"/>
			<point x="256" y="305" type="curve" smooth="yes"/>
			<point x="182" y="305" type="line"/>
		</contour>
		<contour>
			<point x="58" y="656" type="line"/>
			<point x="175" y="649" type="line"/>
			<point x="182" y="649" type="line"/>
			<point x="182" y="676" type="line"/>
			<point x="58" y="676" type="line"/>
		</contour>
	</outline>
	<anchor name="aboveUC" x="298" y="696"/>
	<anchor name="belowLC" x="181" y="-20"/>
</glyph>
<glyph name="R" format="2">
	<unicode hex="0052"/>
	<advance width="648"/>
	<outline>
		<contour>
			<point x="58" y="0" type="line"/>
			<point x="306" y="0" type="line"/>
			<point x="306" y="20" type="line"/>
			<point x="189" y="27" type="line"/>
			<point x="175" y="27" type="line"/>
			<point x="58" y="20" type="line"/>
		</contour>
		<contour>
			<point x="165" y="0" type="curve"/>
			<point x="199" y="0" type="line"/>
			<point x="197" y="102"/>
			<point x="197" y="206"/>
			<point x="197" y="320" type="curve" smooth="yes"/>
			<point x="197" y="327" type="line" smooth="yes"/>
			<point x="197" y="471"/>
			<point x="197" y="574"/>
			<point x="199" y="676" type="curve"/>
			<point x="165" y="676" type="line"/>
			<point x="167" y="574"/>
			<point x="167" y="471"/>
			<point x="167" y="367" type="curve" smooth="yes"/>
			<point x="167" y="310" type="line" smooth="yes"/>
			<point x="167" y="206"/>
			<point x="167" y="102"/>
		</contour>
		<contour>
			<point x="564" y="-5" type="curve" smooth="yes"/>
			<point x="592" y="-5"/>
			<point x="616" y="-2"/>
			<point x="628" y="0" type="curve"/>
			<point x="628" y="20" type="line"/>
			<point x="517" y="25" type="line"/>
			<point x="532" y="14" type="line"/>
			<point x="456" y="224" type="line" smooth="yes"/>
			<point x="432" y="289"/>
			<point x="414" y="317"/>
			<point x="345" y="326" type="curve"/>
			<point x="345" y="318" type="line"/>
			<point x="462" y="327"/>
			<point x="537" y="399"/>
			<point x="537" y="500" type="curve" smooth="yes"/>
			<point x="537" y="615"/>
			<point x="459" y="676"/>
			<point x="318" y="676" type="curve" smooth="yes"/>
			<point x="182" y="676" type="line"/>
			<point x="182" y="654" type="line"/>
			<point x="316" y="654" type="line" smooth="yes"/>
			<point x="448" y="654"/>
			<point x="509" y="593"/>
			<point x="509" y="500" type="curve" smooth="yes"/>
			<point x="509" y="408"/>
			<point x="430" y="336"/>
			<point x="327" y="336" type="curve" smooth="yes"/>
			<point x="182" y="336" type="line"/>
			<point x="182" y="316" type="line"/>
			<point x="296" y="316" type="line" smooth="yes"/>
			<point x="387" y="316"/>
			<point x="406" y="285"/>
			<point x="432" y="211" type="curve" smooth="yes"/>
			<point x="494" y="34" type="line" smooth="yes"/>
			<point x="503" y="9"/>
			<point x="515" y="-5"/>
		</contour>
		<contour>
			<point x="58" y="656" type="line"/>
			<point x="175" y="649" type="line"/>
			<point x="182" y="649" type="line"/>
			<point x="182" y="676" type="line"/>
			<point x="58" y="676" type="line"/>
		</contour>
	</outline>
	<anchor name="aboveUC" x="317" y="696"/>
	<anchor name="belowLC" x="338" y="-20"/>
</glyph>
<glyph name="S" format="2">
	<unicode hex="0053"/>
	<advance width="515"/>
	<outline>
		<contour>
			<point x="243" y="-13" type="curve" smooth="yes"/>
			<point x="368" y="-13"/>
			<point x="460" y="53"/>
			<point x="460" y="164" type="curve" smooth="yes"/>
			<point x="460" y="253"/>
			<point x="425" y="302"/>
			<point x="276" y="362" type="curve" smooth="yes"/>
			<point x="236" y="378" type="line" smooth="yes"/>
			<point x="157" y="410"/>
			<point x="107" y="452"/>
			<point x="107" y="530" type="curve" smooth="yes"/>
			<point x="107" y="623"/>
			<point x="176" y="667"/>
			<point x="272" y="667" type="curve" smooth="yes"/>
			<point x="329" y="667"/>
			<point x="369" y="655"/>
			<point x="412" y="625" type="curve"/>
			<point x="412" y="637" type="line"/>
			<point x="397" y="646" type="line"/>
			<point x="407" y="521" type="line"/>
			<point x="429" y="521" type="line"/>
			<point x="432" y="641" type="line"/>
			<point x="385" y="672"/>
			<point x="344" y="689"/>
			<point x="271" y="689" type="curve" smooth="yes"/>
			<point x="173" y="689"/>
			<point x="80" y="642"/>
			<point x="80" y="527" type="curve" smooth="yes"/>
			<point x="80" y="445"/>
			<point x="128" y="389"/>
			<point x="235" y="346" type="curve" smooth="yes"/>
			<point x="272" y="331" type="line" smooth="yes"/>
			<point x="400" y="279"/>
			<point x="433" y="237"/>
			<point x="433" y="163" type="curve" smooth="yes"/>
			<point x="433" y="58"/>
			<point x="353" y="9"/>
			<point x="243" y="9" type="curve" smooth="yes"/>
			<point x="175" y="9"/>
			<point x="130" y="20"/>
			<point x="73" y="63" type="curve"/>
			<point x="73" y="47" type="line"/>
			<point x="92" y="36" type="line"/>
			<point x="79" y="167" type="line"/>
			<point x="60" y="167" type="line"/>
			<point x="55" y="41" type="line"/>
			<point x="94" y="14"/>
			<point x="164" y="-13"/>
		</contour>
	</outline>
	<anchor name="aboveUC" x="271" y="696"/>
	<anchor name="baseLC" x="245" y="0"/>
	<anchor name="belowLC" x="244" y="-20"/>
</glyph>
<glyph name="V" format="2">
	<unicode hex="0056"/>
	<advance width="648"/>
	<outline>
		<contour>
			<point x="316" y="-7" type="line"/>
			<point x="336" y="-7" type="line"/>
			<point x="557" y="676" type="line"/>
			<point x="531" y="676" type="line"/>
			<point x="325" y="22" type="line"/>
			<point x="320" y="8" type="line"/>
			<point x="338" y="8" type="line"/>
			<point x="117" y="676" type="line"/>
			<point x="86" y="676" type="line"/>
		</contour>
		<contour>
			<point x="0" y="656" type="line"/>
			<point x="105" y="649" type="line"/>
			<point x="115" y="649" type="line"/>
			<point x="238" y="656" type="line"/>
			<point x="238" y="676" type="line"/>
			<point x="0" y="676" type="line"/>
		</contour>
		<contour>
			<point x="410" y="656" type="line"/>
			<point x="528" y="649" type="line"/>
			<point x="542" y="649" type="line"/>
			<point x="638" y="656" type="line"/>
			<point x="638" y="676" type="line"/>
			<point x="410" y="676" type="line"/>
		</contour>
	</outline>
	<anchor name="aboveUC" x="328" y="696"/>
	<anchor name="belowLC" x="326" y="-20"/>
</glyph>
<glyph name="W" format="2">
	<unicode hex="0057"/>
	<advance width="966"/>
	<outline>
		<contour>
			<point x="284" y="-7" type="line"/>
			<point x="304" y="-7" type="line"/>
			<point x="488" y="627" type="line"/>
			<point x="492" y="641" type="line"/>
			<point x="476" y="641" type="line"/>
			<point x="664" y="-7" type="line"/>
			<point x="684" y="-7" type="line"/>
			<point x="861" y="676" type="line"/>
			<point x="835" y="676" type="line"/>
			<point x="674" y="30" type="line"/>
			<point x="671" y="16" type="line"/>
			<point x="686" y="16" type="line"/>
			<point x="495" y="676" type="line"/>
			<point x="481" y="676" type="line"/>
			<point x="295" y="32" type="line"/>
			<point x="291" y="19" type="line"/>
			<point x="307" y="19" type="line"/>
			<point x="129" y="676" type="line"/>
			<point x="99" y="676" type="line"/>
		</contour>
		<contour>
			<point x="11" y="656" type="line"/>
			<point x="114" y="649" type="line"/>
			<point x="128" y="649" type="line"/>
			<point x="239" y="656" type="line"/>
			<point x="239" y="676" type="line"/>
			<point x="11" y="676" type="line"/>
		</contour>
		<contour>
			<point x="378" y="656" type="line"/>
			<point x="483" y="649" type="line"/>
			<point x="497" y="649" type="line"/>
			<point x="606" y="656" type="line"/>
			<point x="606" y="676" type="line"/>
			<point x="378" y="676" type="line"/>
		</contour>
		<contour>
			<point x="728" y="656" type="line"/>
			<point x="834" y="649" type="line"/>
			<point x="848" y="649" type="line"/>
			<point x="956" y="656" type="line"/>
			<point x="956" y="676" type="line"/>
			<point x="728" y="676" type="line"/>
		</contour>
	</outline>
	<anchor name="aboveUC" x="488" y="696"/>
	<anchor name="belowLC" x="486" y="-20"/>
</glyph>
<glyph name="X" format="2">
	<unicode hex="0058"/>
	<advance width="637"/>
	<outline>
		<contour>
			<point x="20" y="0" type="line"/>
			<point x="248" y="0" type="line"/>
			<point x="248" y="20" type="line"/>
			<point x="128" y="27" type="line"/>
			<point x="114" y="27" type="line"/>
			<point x="20" y="20" type="line"/>
		</contour>
		<contour>
			<point x="89" y="0" type="line"/>
			<point x="119" y="0" type="line"/>
			<point x="316" y="326" type="line"/>
			<point x="317" y="328" type="line"/>
			<point x="320" y="328" type="line"/>
			<point x="305" y="349" type="line"/>
		</contour>
		<contour>
			<point x="389" y="0" type="line"/>
			<point x="617" y="0" type="line"/>
			<point x="617" y="20" type="line"/>
			<point x="517" y="27" type="line"/>
			<point x="503" y="27" type="line"/>
			<point x="389" y="20" type="line"/>
		</contour>
		<contour>
			<point x="329" y="342" type="line"/>
			<point x="533" y="676" type="line"/>
			<point x="504" y="676" type="line"/>
			<point x="320" y="365" type="line"/>
			<point x="318" y="362" type="line"/>
			<point x="316" y="362" type="line"/>
		</contour>
		<contour>
			<point x="509" y="0" type="line"/>
			<point x="541" y="0" type="line"/>
			<point x="137" y="676" type="line"/>
			<point x="105" y="676" type="line"/>
		</contour>
		<contour>
			<point x="33" y="656" type="line"/>
			<point x="130" y="649" type="line"/>
			<point x="144" y="649" type="line"/>
			<point x="261" y="656" type="line"/>
			<point x="261" y="676" type="line"/>
			<point x="33" y="676" type="line"/>
		</contour>
		<contour>
			<point x="382" y="656" type="line"/>
			<point x="499" y="649" type="line"/>
			<point x="513" y="649" type="line"/>
			<point x="610" y="656" type="line"/>
			<point x="610" y="676" type="line"/>
			<point x="382" y="676" type="line"/>
		</contour>
	</outline>
	<anchor name="aboveUC" x="329" y="696"/>
	<anchor name="belowLC" x="322" y="-20"/>
</glyph>
<glyph name="bracketleft" format="2">
	<unicode hex="005B"/>
	<advance width="299"/>
	<outline>
		<contour>
			<point x="99" y="-159" type="curve"/>
			<point x="131" y="-159" type="line"/>
			<point x="128" y="-54"/>
			<point x="128" y="53"/>
			<point x="128" y="158" type="curve" smooth="yes"/>
			<point x="128" y="398" type="line" smooth="yes"/>
			<point x="128" y="505"/>
			<point x="128" y="612"/>
			<point x="131" y="715" type="curve"/>
			<point x="99" y="715" type="line"/>
			<point x="102" y="610"/>
			<point x="102" y="503"/>
			<point x="102" y="398" type="curve" smooth="yes"/>
			<point x="102" y="158" type="line" smooth="yes"/>
			<point x="102" y="51"/>
			<point x="102" y="-56"/>
		</contour>
		<contour>
			<point x="115" y="-159" type="line"/>
			<point x="246" y="-159" type="line"/>
			<point x="246" y="-137" type="line"/>
			<point x="129" y="-131" type="line"/>
			<point x="115" y="-131" type="line"/>
		</contour>
		<contour>
			<point x="115" y="687" type="line"/>
			<point x="129" y="687" type="line"/>
			<point x="246" y="693" type="line"/>
			<point x="246" y="715" type="line"/>
			<point x="115" y="715" type="line"/>
		</contour>
	</outline>
</glyph>
<glyph name="backslash" format="2">
	<unicode hex="005C"/>
	<advance width="290"/>
	<outline>
		<contour>
			<point x="290" y="-160" type="line"/>
			<point x="21" y="710" type="line"/>
			<point x="0" y="710" type="line"/>
			<point x="267" y="-160" type="line"/>
		</contour>
	</outline>
</glyph>
<glyph name="a" format="2">
	<unicode hex="0061"/>
	<advance width="505"/>
	<outline>
		<contour>
			<point x="180" y="-13" type="curve" smooth="yes"/>
			<point x="249" y="-13"/>
			<point x="296" y="21"/>
			<point x="358" y="90" type="curve"/>
			<point x="367" y="90" type="line"/>
			<point x="367" y="125" type="line"/>
			<point x="293" y="44"/>
			<point x="245" y="13"/>
			<point x="188" y="13" type="curve" smooth="yes"/>
			<point x="126" y="13"/>
			<point x="87" y="49"/>
			<point x="87" y="110" type="curve" smooth="yes"/>
			<point x="87" y="162"/>
			<point x="126" y="201"/>
			<point x="207" y="231" type="curve" smooth="yes"/>
			<point x="258" y="250"/>
			<point x="318" y="265"/>
			<point x="369" y="277" type="curve"/>
			<point x="369" y="295" type="line"/>
			<point x="318" y="283"/>
			<point x="262" y="272"/>
			<point x="206" y="254" type="curve" smooth="yes"/>
			<point x="108" y="222"/>
			<point x="57" y="176"/>
			<point x="57" y="104" type="curve" smooth="yes"/>
			<point x="57" y="29"/>
			<point x="109" y="-13"/>
		</contour>
		<contour>
			<point x="424" y="-12" type="curve" smooth="yes"/>
			<point x="448" y="-12"/>
			<point x="472" y="0"/>
			<point x="488" y="16" type="curve"/>
			<point x="476" y="28" type="line"/>
			<point x="460" y="16"/>
			<point x="448" y="12"/>
			<point x="432" y="12" type="curve" smooth="yes"/>
			<point x="400" y="12"/>
			<point x="384" y="32"/>
			<point x="384" y="112" type="curve" smooth="yes"/>
			<point x="384" y="340" type="line" smooth="yes"/>
			<point x="384" y="440"/>
			<point x="332" y="484"/>
			<point x="236" y="484" type="curve" smooth="yes"/>
			<point x="152" y="484"/>
			<point x="92" y="444"/>
			<point x="68" y="372" type="curve"/>
			<point x="72" y="360"/>
			<point x="80" y="352"/>
			<point x="92" y="352" type="curve" smooth="yes"/>
			<point x="104" y="352"/>
			<point x="112" y="356"/>
			<point x="116" y="372" type="curve" smooth="yes"/>
			<point x="132" y="440" type="line"/>
			<point x="108" y="416" type="line"/>
			<point x="148" y="448"/>
			<point x="188" y="464"/>
			<point x="236" y="464" type="curve" smooth="yes"/>
			<point x="316" y="464"/>
			<point x="356" y="436"/>
			<point x="356" y="324" type="curve" smooth="yes"/>
			<point x="356" y="104" type="line"/>
			<point x="356" y="100" type="line"/>
			<point x="360" y="28"/>
			<point x="376" y="-12"/>
		</contour>
	</outline>
	<anchor name="aboveLC" x="237" y="490"/>
	<anchor name="belowLC" x="250" y="-20"/>
	<anchor name="ogonek" x="434" y="0"/>
</glyph>
<glyph name="b" format="2">
	<unicode hex="0062"/>
	<advance width="580"/>
	<outline>
		<contour>
			<point x="48" y="0" type="line"/>
			<point x="165" y="-4" type="line"/>
			<point x="168" y="74" type="line"/>
			<point x="168" y="75" type="line"/>
			<point x="168" y="384" type="line"/>
			<point x="168" y="391" type="line"/>
			<point x="168" y="598" type="line"/>
			<point x="170" y="740" type="line"/>
			<point x="154" y="748" type="line"/>
			<point x="49" y="736" type="line"/>
			<point x="49" y="716" type="line"/>
			<point x="140" y="716" type="line"/>
			<point x="140" y="210" type="line" smooth="yes"/>
			<point x="140" y="158"/>
			<point x="139" y="77"/>
			<point x="138" y="26" type="curve"/>
			<point x="48" y="20" type="line"/>
		</contour>
		<contour>
			<point x="329" y="-13" type="curve" smooth="yes"/>
			<point x="450" y="-13"/>
			<point x="528" y="88"/>
			<point x="528" y="242" type="curve" smooth="yes"/>
			<point x="528" y="382"/>
			<point x="452" y="483"/>
			<point x="334" y="483" type="curve" smooth="yes"/>
			<point x="278" y="483"/>
			<point x="210" y="459"/>
			<point x="160" y="390" type="curve"/>
			<point x="154" y="390" type="line"/>
			<point x="163" y="366" type="line"/>
			<point x="216" y="433"/>
			<point x="269" y="458"/>
			<point x="328" y="458" type="curve" smooth="yes"/>
			<point x="425" y="458"/>
			<point x="496" y="384"/>
			<point x="496" y="242" type="curve" smooth="yes"/>
			<point x="496" y="80"/>
			<point x="417" y="12"/>
			<point x="328" y="12" type="curve" smooth="yes"/>
			<point x="266" y="12"/>
			<point x="219" y="37"/>
			<point x="163" y="95" type="curve"/>
			<point x="155" y="72" type="line"/>
			<point x="163" y="72" type="line"/>
			<point x="213" y="10"/>
			<point x="275" y="-13"/>
		</contour>
	</outline>
	<anchor name="aboveLC" x="159" y="748"/>
	<anchor name="belowLC" x="328" y="-20"/>
</glyph>
<glyph name="c" format="2">
	<unicode hex="0063"/>
	<advance width="488"/>
	<outline>
		<contour>
			<point x="272" y="-13" type="curve" smooth="yes"/>
			<point x="349" y="-13"/>
			<point x="402" y="21"/>
			<point x="442" y="69" type="curve"/>
			<point x="431" y="79" type="line"/>
			<point x="388" y="35"/>
			<point x="333" y="13"/>
			<point x="274" y="13" type="curve" smooth="yes"/>
			<point x="161" y="13"/>
			<point x="84" y="100"/>
			<point x="84" y="232" type="curve" smooth="yes"/>
			<point x="84" y="369"/>
			<point x="169" y="463"/>
			<point x="278" y="463" type="curve" smooth="yes"/>
			<point x="319" y="463"/>
			<point x="353" y="451"/>
			<point x="396" y="418" type="curve"/>
			<point x="364" y="451" type="line"/>
			<point x="393" y="377" type="line" smooth="yes"/>
			<point x="398" y="364"/>
			<point x="406" y="358"/>
			<point x="419" y="358" type="curve" smooth="yes"/>
			<point x="430" y="358"/>
			<point x="438" y="365"/>
			<point x="441" y="378" type="curve"/>
			<point x="411" y="448"/>
			<point x="350" y="483"/>
			<point x="280" y="483" type="curve" smooth="yes"/>
			<point x="162" y="483"/>
			<point x="52" y="391"/>
			<point x="52" y="231" type="curve" smooth="yes"/>
			<point x="52" y="80"/>
			<point x="139" y="-13"/>
		</contour>
	</outline>
	<anchor name="aboveLC" x="280" y="490"/>
	<anchor name="baseLC" x="272" y="0"/>
	<anchor name="belowLC" x="273" y="-20"/>
</glyph>
<glyph name="d" format="2">
	<unicode hex="0064"/>
	<advance width="575"/>
	<outline>
		<contour>
			<point x="249" y="-13" type="curve" smooth="yes"/>
			<point x="310" y="-13"/>
			<point x="370" y="11"/>
			<point x="418" y="78" type="curve"/>
			<point x="426" y="78" type="line"/>
			<point x="417" y="104" type="line"/>
			<point x="366" y="38"/>
			<point x="316" y="12"/>
			<point x="252" y="12" type="curve" smooth="yes"/>
			<point x="158" y="12"/>
			<point x="84" y="87"/>
			<point x="84" y="227" type="curve" smooth="yes"/>
			<point x="84" y="385"/>
			<point x="164" y="458"/>
			<point x="264" y="458" type="curve" smooth="yes"/>
			<point x="325" y="458"/>
			<point x="371" y="429"/>
			<point x="417" y="373" type="curve"/>
			<point x="425" y="396" type="line"/>
			<point x="418" y="396" type="line"/>
			<point x="372" y="457"/>
			<point x="314" y="483"/>
			<point x="264" y="483" type="curve" smooth="yes"/>
			<point x="144" y="483"/>
			<point x="52" y="387"/>
			<point x="52" y="227" type="curve" smooth="yes"/>
			<point x="52" y="88"/>
			<point x="133" y="-13"/>
		</contour>
		<contour>
			<point x="409" y="-6" type="line"/>
			<point x="546" y="0" type="line"/>
			<point x="546" y="20" type="line"/>
			<point x="440" y="25" type="line"/>
			<point x="440" y="602" type="line"/>
			<point x="442" y="740" type="line"/>
			<point x="428" y="748" type="line"/>
			<point x="321" y="736" type="line"/>
			<point x="321" y="716" type="line"/>
			<point x="412" y="716" type="line"/>
			<point x="412" y="394" type="line"/>
			<point x="412" y="389" type="line"/>
			<point x="412" y="89" type="line"/>
			<point x="412" y="87" type="line"/>
		</contour>
	</outline>
	<anchor name="aboveLC" x="414" y="748"/>
	<anchor name="belowLC" x="266" y="-20"/>
</glyph>
<glyph name="k" format="2">
	<unicode hex="006B"/>
	<advance width="543"/>
	<outline>
		<contour>
			<point x="48" y="0" type="line"/>
			<point x="251" y="0" type="line"/>
			<point x="251" y="20" type="line"/>
			<point x="157" y="26" type="line"/>
			<point x="148" y="26" type="line"/>
			<point x="48" y="20" type="line"/>
		</contour>
		<contour>
			<point x="137" y="0" type="curve"/>
			<point x="171" y="0" type="line"/>
			<point x="169" y="45"/>
			<point x="168" y="148"/>
			<point x="168" y="210" type="curve" smooth="yes"/>
			<point x="168" y="598" type="line"/>
			<point x="170" y="740" type="line"/>
			<point x="156" y="748" type="line"/>
			<point x="49" y="736" type="line"/>
			<point x="49" y="716" type="line"/>
			<point x="140" y="716" type="line"/>
			<point x="140" y="210" type="line" smooth="yes"/>
			<point x="140" y="148"/>
			<point x="139" y="45"/>
		</contour>
		<contour>
			<point x="155" y="176" type="line"/>
			<point x="451" y="470" type="line"/>
			<point x="419" y="470" type="line"/>
			<point x="288" y="338" type="line"/>
			<point x="158" y="207" type="line"/>
			<point x="155" y="207" type="line"/>
		</contour>
		<contour>
			<point x="436" y="0" type="line"/>
			<point x="538" y="0" type="line"/>
			<point x="538" y="20" type="line"/>
			<point x="454" y="25" type="line"/>
			<point x="278" y="308" type="line"/>
			<point x="257" y="287" type="line"/>
		</contour>
		<contour>
			<point x="298" y="450" type="line"/>
			<point x="399" y="444" type="line"/>
			<point x="408" y="444" type="line"/>
			<point x="518" y="450" type="line"/>
			<point x="518" y="470" type="line"/>
			<point x="298" y="470" type="line"/>
		</contour>
	</outline>
	<anchor name="aboveLC" x="157" y="748"/>
	<anchor name="belowLC" x="302" y="-20"/>
</glyph>
<glyph name="n" format="2">
	<unicode hex="006E"/>
	<advance width="604"/>
	<outline>
		<contour>
			<point x="43" y="0" type="line"/>
			<point x="246" y="0" type="line"/>
			<point x="246" y="20" type="line"/>
			<point x="152" y="26" type="line"/>
			<point x="143" y="26" type="line"/>
			<point x="43" y="20" type="line"/>
		</contour>
		<contour>
			<point x="132" y="0" type="curve"/>
			<point x="166" y="0" type="line"/>
			<point x="164" y="45"/>
			<point x="163" y="148"/>
			<point x="163" y="210" type="curve" smooth="yes"/>
			<point x="163" y="363" type="line"/>
			<point x="163" y="364" type="line"/>
			<point x="161" y="472" type="line"/>
			<point x="151" y="478" type="line"/>
			<point x="39" y="466" type="line"/>
			<point x="39" y="446" type="line"/>
			<point x="132" y="446" type="line"/>
			<point x="134" y="395"/>
			<point x="135" y="329"/>
			<point x="135" y="259" type="curve" smooth="yes"/>
			<point x="135" y="210" type="line" smooth="yes"/>
			<point x="135" y="148"/>
			<point x="134" y="45"/>
		</contour>
		<contour>
			<point x="364" y="0" type="line"/>
			<point x="567" y="0" type="line"/>
			<point x="567" y="20" type="line"/>
			<point x="473" y="26" type="line"/>
			<point x="464" y="26" type="line"/>
			<point x="364" y="20" type="line"/>
		</contour>
		<contour>
			<point x="453" y="0" type="curve"/>
			<point x="487" y="0" type="line"/>
			<point x="485" y="45"/>
			<point x="484" y="146"/>
			<point x="484" y="210" type="curve" smooth="yes"/>
			<point x="484" y="314" type="line" smooth="yes"/>
			<point x="484" y="439"/>
			<point x="437" y="483"/>
			<point x="363" y="483" type="curve" smooth="yes"/>
			<point x="301" y="483"/>
			<point x="231" y="452"/>
			<point x="154" y="360" type="curve"/>
			<point x="149" y="360" type="line"/>
			<point x="156" y="337" type="line"/>
			<point x="240" y="435"/>
			<point x="313" y="455"/>
			<point x="356" y="455" type="curve" smooth="yes"/>
			<point x="415" y="455"/>
			<point x="456" y="417"/>
			<point x="456" y="315" type="curve" smooth="yes"/>
			<point x="456" y="210" type="line" smooth="yes"/>
			<point x="456" y="146"/>
			<point x="455" y="45"/>
		</contour>
	</outline>
	<anchor name="aboveLC" x="310" y="490"/>
	<anchor name="belowLC" x="308" y="-20"/>
</glyph>
<glyph name="r" format="2">
	<unicode hex="0072"/>
	<advance width="405"/>
	<outline>
		<contour>
			<point x="43" y="0" type="line"/>
			<point x="259" y="0" type="line"/>
			<point x="259" y="20" type="line"/>
			<point x="152" y="26" type="line"/>
			<point x="143" y="26" type="line"/>
			<point x="43" y="20" type="line"/>
		</contour>
		<contour>
			<point x="132" y="0" type="curve"/>
			<point x="166" y="0" type="line"/>
			<point x="164" y="45"/>
			<point x="163" y="148"/>
			<point x="163" y="210" type="curve" smooth="yes"/>
			<point x="163" y="338" type="line"/>
			<point x="163" y="339" type="line"/>
			<point x="161" y="472" type="line"/>
			<point x="151" y="478" type="line"/>
			<point x="39" y="466" type="line"/>
			<point x="39" y="446" type="line"/>
			<point x="132" y="446" type="line"/>
			<point x="134" y="395"/>
			<point x="135" y="329"/>
			<point x="135" y="259" type="curve" smooth="yes"/>
			<point x="135" y="210" type="line" smooth="yes"/>
			<point x="135" y="148"/>
			<point x="134" y="45"/>
		</contour>
		<contour>
			<point x="162" y="308" type="line"/>
			<point x="209" y="416"/>
			<point x="268" y="467"/>
			<point x="346" y="467" type="curve"/>
			<point x="297" y="472" type="line"/>
			<point x="317" y="455" type="line" smooth="yes"/>
			<point x="337" y="438"/>
			<point x="349" y="428"/>
			<point x="367" y="428" type="curve" smooth="yes"/>
			<point x="387" y="428"/>
			<point x="397" y="436"/>
			<point x="397" y="456" type="curve"/>
			<point x="391" y="470"/>
			<point x="365" y="483"/>
			<point x="331" y="483" type="curve" smooth="yes"/>
			<point x="258" y="483"/>
			<point x="189" y="421"/>
			<point x="161" y="338" type="curve"/>
			<point x="149" y="338" type="line"/>
		</contour>
	</outline>
	<anchor name="aboveLC" x="240" y="490"/>
	<anchor name="belowLC" x="145" y="-20"/>
</glyph>
<glyph name="v" format="2">
	<unicode hex="0076"/>
	<advance width="492"/>
	<outline>
		<contour>
			<point x="237" y="-6" type="line"/>
			<point x="255" y="-6" type="line"/>
			<point x="432" y="470" type="line"/>
			<point x="407" y="470" type="line"/>
			<point x="248" y="30" type="line"/>
			<point x="245" y="22" type="line"/>
			<point x="255" y="22" type="line"/>
			<point x="89" y="470" type="line"/>
			<point x="56" y="470" type="line"/>
		</contour>
		<contour>
			<point x="-10" y="450" type="line"/>
			<point x="79" y="444" type="line"/>
			<point x="88" y="444" type="line"/>
			<point x="183" y="450" type="line"/>
			<point x="183" y="470" type="line"/>
			<point x="-10" y="470" type="line"/>
		</contour>
		<contour>
			<point x="309" y="450" type="line"/>
			<point x="403" y="444" type="line"/>
			<point x="412" y="444" type="line"/>
			<point x="492" y="450" type="line"/>
			<point x="492" y="470" type="line"/>
			<point x="309" y="470" type="line"/>
		</contour>
	</outline>
	<anchor name="aboveLC" x="250" y="490"/>
	<anchor name="belowLC" x="244" y="-20"/>
</glyph>
<glyph name="w" format="2">
	<unicode hex="0077"/>
	<advance width="764"/>
	<outline>
		<contour>
			<point x="218" y="-6" type="line"/>
			<point x="235" y="-6" type="line"/>
			<point x="392" y="448" type="line"/>
			<point x="396" y="459" type="line"/>
			<point x="376" y="459" type="line"/>
			<point x="532" y="-6" type="line"/>
			<point x="548" y="-6" type="line"/>
			<point x="701" y="470" type="line"/>
			<point x="677" y="470" type="line"/>
			<point x="539" y="28" type="line"/>
			<point x="535" y="14" type="line"/>
			<point x="552" y="14" type="line"/>
			<point x="396" y="470" type="line"/>
			<point x="381" y="470" type="line"/>
			<point x="225" y="29" type="line"/>
			<point x="220" y="15" type="line"/>
			<point x="238" y="15" type="line"/>
			<point x="91" y="470" type="line"/>
			<point x="58" y="470" type="line"/>
		</contour>
		<contour>
			<point x="-5" y="450" type="line"/>
			<point x="76" y="444" type="line"/>
			<point x="85" y="444" type="line"/>
			<point x="189" y="450" type="line"/>
			<point x="189" y="470" type="line"/>
			<point x="-5" y="470" type="line"/>
		</contour>
		<contour>
			<point x="297" y="450" type="line"/>
			<point x="382" y="444" type="line"/>
			<point x="391" y="444" type="line"/>
			<point x="480" y="450" type="line"/>
			<point x="480" y="470" type="line"/>
			<point x="297" y="470" type="line"/>
		</contour>
		<contour>
			<point x="576" y="450" type="line"/>
			<point x="680" y="444" type="line"/>
			<point x="689" y="444" type="line"/>
			<point x="759" y="450" type="line"/>
			<point x="759" y="470" type="line"/>
			<point x="576" y="470" type="line"/>
		</contour>
	</outline>
	<anchor name="aboveLC" x="387" y="490"/>
	<anchor name="belowLC" x="385" y="-20"/>
</glyph>
<glyph name="x" format="2">
	<unicode hex="0078"/>
	<advance width="500"/>
	<outline>
		<contour>
			<point x="10" y="0" type="line"/>
			<point x="181" y="0" type="line"/>
			<point x="181" y="20" type="line"/>
			<point x="99" y="26" type="line"/>
			<point x="90" y="26" type="line"/>
			<point x="10" y="20" type="line"/>
		</contour>
		<contour>
			<point x="61" y="0" type="line"/>
			<point x="90" y="0" type="line"/>
			<point x="172" y="115" type="line"/>
			<point x="255" y="229" type="line"/>
			<point x="256" y="229" type="line"/>
			<point x="245" y="245" type="line"/>
		</contour>
		<contour>
			<point x="305" y="0" type="line"/>
			<point x="490" y="0" type="line"/>
			<point x="490" y="20" type="line"/>
			<point x="410" y="26" type="line"/>
			<point x="402" y="26" type="line"/>
			<point x="305" y="20" type="line"/>
		</contour>
		<contour>
			<point x="257" y="230" type="line"/>
			<point x="434" y="470" type="line"/>
			<point x="407" y="470" type="line"/>
			<point x="327" y="358" type="line"/>
			<point x="247" y="245" type="line"/>
			<point x="246" y="245" type="line"/>
		</contour>
		<contour>
			<point x="405" y="0" type="line"/>
			<point x="441" y="0" type="line"/>
			<point x="260" y="247" type="line"/>
			<point x="101" y="470" type="line"/>
			<point x="68" y="470" type="line"/>
			<point x="244" y="228" type="line"/>
		</contour>
		<contour>
			<point x="17" y="450" type="line"/>
			<point x="99" y="444" type="line"/>
			<point x="108" y="444" type="line"/>
			<point x="199" y="450" type="line"/>
			<point x="199" y="470" type="line"/>
			<point x="17" y="470" type="line"/>
		</contour>
		<contour>
			<point x="309" y="450" type="line"/>
			<point x="399" y="444" type="line"/>
			<point x="407" y="444" type="line"/>
			<point x="483" y="450" type="line"/>
			<point x="483" y="470" type="line"/>
			<point x="309" y="470" type="line"/>
		</contour>
	</outline>
	<anchor name="aboveLC" x="256" y="490"/>
	<anchor name="belowLC" x="245" y="-20"/>
</glyph>
<glyph name="z" format="2">
	<unicode hex="007A"/>
	<advance width="457"/>
	<outline>
		<contour>
			<point x="54" y="0" type="line"/>
			<point x="411" y="0" type="line"/>
			<point x="418" y="139" type="line"/>
			<point x="397" y="139" type="line"/>
			<point x="374" y="8" type="line"/>
			<point x="390" y="20" type="line"/>
			<point x="230" y="20" type="line"/>
			<point x="80" y="20" type="line"/>
			<point x="80" y="39" type="line"/>
			<point x="76" y="5" type="line"/>
			<point x="401" y="450" type="line"/>
			<point x="401" y="470" type="line"/>
			<point x="59" y="470" type="line"/>
			<point x="53" y="345" type="line"/>
			<point x="74" y="341" type="line"/>
			<point x="94" y="462" type="line"/>
			<point x="77" y="450" type="line"/>
			<point x="230" y="450" type="line"/>
			<point x="372" y="450" type="line"/>
			<point x="378" y="444" type="line"/>
			<point x="378" y="465" type="line"/>
			<point x="54" y="20" type="line"/>
		</contour>
	</outline>
	<anchor name="aboveLC" x="240" y="490"/>
	<anchor name="belowLC" x="238" y="-20"/>
</glyph>
<glyph name="bar" format="2">
	<unicode hex="007C"/>
	<advance width="280"/>
	<outline>
		<contour>
			<point x="127" y="-250" type="line"/>
			<point x="153" y="-250" type="line"/>
			<point x="153" y="750" type="line"/>
			<point x="127" y="750" type="line"/>
		</contour>
	</outline>
</glyph>
<glyph name="exclamdown" format="2">
	<unicode hex="00A1"/>
	<advance width="249"/>
	<outline>
		<contour>
			<point x="124" y="483" type="curve" smooth="yes"/>
			<point x="105" y="483"/>
			<point x="93" y="468"/>
			<point x="93" y="453" type="curve" smooth="yes"/>
			<point x="93" y="436"/>
			<point x="105" y="423"/>
			<point x="124" y="423" type="curve" smooth="yes"/>
			<point x="143" y="423"/>
			<point x="155" y="436"/>
			<point x="155" y="453" type="curve" smooth="yes"/>
			<point x="155" y="468"/>
			<point x="143" y="483"/>
		</contour>
		<contour>
			<point x="124" y="-224" type="curve" smooth="yes"/>
			<point x="136" y="-224"/>
			<point x="143" y="-215"/>
			<point x="143" y="-197" type="curve" smooth="yes"/>
			<point x="143" y="-139"/>
			<point x="138" y="-65"/>
			<point x="136" y="61" type="curve" smooth="yes"/>
			<point x="132" y="300" type="line"/>
			<point x="116" y="300" type="line"/>
			<point x="112" y="61" type="line" smooth="yes"/>
			<point x="110" y="-65"/>
			<point x="105" y="-139"/>
			<point x="105" y="-197" type="curve" smooth="yes"/>
			<point x="105" y="-215"/>
			<point x="112" y="-224"/>
		</contour>
	</outline>
</glyph>
<glyph name="dieresis" format="2">
	<unicode hex="00A8"/>
	<advance width="400"/>
	<outline>
		<contour>
			<point x="106" y="644" type="curve" smooth="yes"/>
			<point x="121" y="644"/>
			<point x="135" y="655"/>
			<point x="135" y="674" type="curve" smooth="yes"/>
			<point x="135" y="692"/>
			<point x="121" y="703"/>
			<point x="106" y="703" type="curve" smooth="yes"/>
			<point x="91" y="703"/>
			<point x="77" y="692"/>
			<point x="77" y="674" type="curve" smooth="yes"/>
			<point x="77" y="655"/>
			<point x="91" y="644"/>
		</contour>
		<contour>
			<point x="294" y="644" type="curve" smooth="yes"/>
			<point x="309" y="644"/>
			<point x="323" y="655"/>
			<point x="323" y="674" type="curve" smooth="yes"/>
			<point x="323" y="692"/>
			<point x="309" y="703"/>
			<point x="294" y="703" type="curve" smooth="yes"/>
			<point x="279" y="703"/>
			<point x="265" y="692"/>
			<point x="265" y="674" type="curve" smooth="yes"/>
			<point x="265" y="655"/>
			<point x="279" y="644"/>
		</contour>
	</outline>
</glyph>
<glyph name="plusminus" format="2">
	<unicode hex="00B1"/>
	<advance width="530"/>
	<outline>
		<contour>
			<point x="251" y="98" type="line"/>
			<point x="279" y="98" type="line"/>
			<point x="279" y="569" type="line"/>
			<point x="251" y="569" type="line"/>
		</contour>
		<contour>
			<point x="490" y="323" type="line"/>
			<point x="490" y="349" type="line"/>
			<point x="40" y="349" type="line"/>
			<point x="40" y="323" type="line"/>
		</contour>
		<contour>
			<point x="490" y="0" type="line"/>
			<point x="490" y="26" type="line"/>
			<point x="40" y="26" type="line"/>
			<point x="40" y="0" type="line"/>
		</contour>
	</outline>
</glyph>
<glyph name="two.sups" format="2">
	<unicode hex="00B2"/>
	<advance width="339"/>
	<outline>
		<contour>
			<point x="50" y="430" type="line"/>
			<point x="305" y="430" type="line"/>
			<point x="305" y="460" type="line"/>
			<point x="72" y="460" type="line"/>
			<point x="69" y="466" type="line"/>
			<point x="69" y="452" type="line"/>
			<point x="199" y="577" type="line" smooth="yes"/>
			<point x="257" y="640"/>
			<point x="283" y="680"/>
			<point x="283" y="728" type="curve" smooth="yes"/>
			<point x="283" y="791"/>
			<point x="243" y="832"/>
			<point x="169" y="832" type="curve" smooth="yes"/>
			<point x="114" y="832"/>
			<point x="66" y="803"/>
			<point x="49" y="751" type="curve"/>
			<point x="53" y="743"/>
			<point x="59" y="738"/>
			<point x="68" y="738" type="curve" smooth="yes"/>
			<point x="78" y="738"/>
			<point x="84" y="746"/>
			<point x="90" y="763" type="curve" smooth="yes"/>
			<point x="112" y="813" type="line"/>
			<point x="87" y="793" type="line"/>
			<point x="115" y="808"/>
			<point x="138" y="813"/>
			<point x="162" y="813" type="curve" smooth="yes"/>
			<point x="221" y="813"/>
			<point x="252" y="776"/>
			<point x="252" y="726" type="curve" smooth="yes"/>
			<point x="252" y="681"/>
			<point x="230" y="640"/>
			<point x="177" y="583" type="curve" smooth="yes"/>
			<point x="50" y="455" type="line"/>
		</contour>
	</outline>
</glyph>
<glyph name="acute" format="2">
	<unicode hex="00B4"/>
	<advance width="400"/>
	<outline>
		<contour>
			<point x="155" y="572" type="curve"/>
			<point x="166" y="563" type="line"/>
			<point x="208" y="606"/>
			<point x="249" y="650"/>
			<point x="278" y="681" type="curve" smooth="yes"/>
			<point x="298" y="702"/>
			<point x="307" y="711"/>
			<point x="307" y="721" type="curve" smooth="yes"/>
			<point x="307" y="732"/>
			<point x="299" y="738"/>
			<point x="290" y="738" type="curve" smooth="yes"/>
			<point x="280" y="738"/>
			<point x="274" y="730"/>
			<point x="257" y="707" type="curve" smooth="yes"/>
			<point x="229" y="671"/>
			<point x="192" y="621"/>
		</contour>
	</outline>
</glyph>
<glyph name="one.sups" format="2">
	<unicode hex="00B9"/>
	<advance width="339"/>
	<outline>
		<contour>
			<point x="69" y="430" type="line"/>
			<point x="294" y="430" type="line"/>
			<point x="294" y="446" type="line"/>
			<point x="195" y="454" type="line"/>
			<point x="173" y="454" type="line"/>
			<point x="69" y="446" type="line"/>
		</contour>
		<contour>
			<point x="170" y="430" type="line"/>
			<point x="198" y="430" type="line"/>
			<point x="198" y="825" type="line"/>
			<point x="189" y="832" type="line"/>
			<point x="75" y="801" type="line"/>
			<point x="75" y="783" type="line"/>
			<point x="170" y="798" type="line"/>
		</contour>
	</outline>
</glyph>
<glyph name="questiondown" format="2">
	<unicode hex="00BF"/>
	<advance width="363"/>
	<outline>
		<contour>
			<point x="228" y="483" type="curve" smooth="yes"/>
			<point x="209" y="483"/>
			<point x="197" y="468"/>
			<point x="197" y="453" type="curve" smooth="yes"/>
			<point x="197" y="436"/>
			<point x="209" y="423"/>
			<point x="228" y="423" type="curve" smooth="yes"/>
			<point x="247" y="423"/>
			<point x="259" y="436"/>
			<point x="259" y="453" type="curve" smooth="yes"/>
			<point x="259" y="468"/>
			<point x="247" y="483"/>
		</contour>
		<contour>
			<point x="44" y="-29" type="curve" smooth="yes"/>
			<point x="44" y="-148"/>
			<point x="139" y="-194"/>
			<point x="263" y="-225" type="curve"/>
			<point x="277" y="-221"/>
			<point x="286" y="-213"/>
			<point x="286" y="-199" type="curve" smooth="yes"/>
			<point x="286" y="-183"/>
			<point x="277" y="-170"/>
			<point x="250" y="-167" type="curve" smooth="yes"/>
			<point x="103" y="-148" type="line"/>
			<point x="214" y="-200" type="line"/>
			<point x="109" y="-150"/>
			<point x="68" y="-110"/>
			<point x="68" y="-35" type="curve" smooth="yes"/>
			<point x="68" y="24"/>
			<point x="85" y="57"/>
			<point x="151" y="100" type="curve" smooth="yes"/>
			<point x="179" y="118" type="line" smooth="yes"/>
			<point x="233" y="153"/>
			<point x="249" y="171"/>
			<point x="249" y="200" type="curve" smooth="yes"/>
			<point x="249" y="219"/>
			<point x="245" y="233"/>
			<point x="240" y="264" type="curve" smooth="yes"/>
			<point x="234" y="300" type="line"/>
			<point x="218" y="300" type="line"/>
			<point x="223" y="215" type="line" smooth="yes"/>
			<point x="225" y="179"/>
			<point x="212" y="168"/>
			<point x="165" y="139" type="curve" smooth="yes"/>
			<point x="131" y="118" type="line" smooth="yes"/>
			<point x="74" y="83"/>
			<point x="44" y="42"/>
		</contour>
	</outline>
</glyph>
<glyph name="Agrave" format="2">
	<unicode hex="00C0"/>
	<advance width="653"/>
	<outline>
		<contour>
			<point x="361" y="741" type="line"/>
			<point x="325" y="771"/>
			<point x="289" y="802"/>
			<point x="258" y="828" type="curve" smooth="yes"/>
			<point x="230" y="852"/>
			<point x="221" y="859"/>
			<point x="211" y="859" type="curve" smooth="yes"/>
			<point x="201" y="859"/>
			<point x="193" y="852"/>
			<point x="193" y="842" type="curve" smooth="yes"/>
			<point x="193" y="830"/>
			<point x="206" y="823"/>
			<point x="239" y="801" type="curve" smooth="yes"/>
			<point x="275" y="778"/>
			<point x="314" y="753"/>
			<point x="353" y="730" type="curve"/>
		</contour>
		<component base="A"/>
	</outline>
</glyph>
<glyph name="Atilde" format="2">
	<unicode hex="00C3"/>
	<advance width="653"/>
	<outline>
		<contour>
			<point x="153" y="753" type="curve"/>
			<point x="169" y="748" type="line"/>
			<point x="183" y="796"/>
			<point x="205" y="822"/>
			<point x="241" y="822" type="curve" smooth="yes"/>
			<point x="271" y="822"/>
			<point x="288" y="807"/>
			<point x="308" y="783" type="curve" smooth="yes"/>
			<point x="327" y="761"/>
			<point x="350" y="741"/>
			<point x="389" y="741" type="curve" smooth="yes"/>
			<point x="439" y="741"/>
			<point x="472" y="779"/>
			<point x="481" y="832" type="curve"/>
			<point x="465" y="837" type="line"/>
			<point x="451" y="789"/>
			<point x="429" y="764"/>
			<point x="393" y="764" type="curve" smooth="yes"/>
			<point x="363" y="764"/>
			<point x="347" y="778"/>
			<point x="326" y="802" type="curve" smooth="yes"/>
			<point x="307" y="824"/>
			<point x="282" y="845"/>
			<point x="244" y="845" type="curve" smooth="yes"/>
			<point x="195" y="845"/>
			<point x="162" y="807"/>
		</contour>
		<component base="A"/>
	</outline>
</glyph>
<glyph name="Aring" format="2">
	<unicode hex="00C5"/>
	<advance width="653"/>
	<outline>
		<contour>
			<point x="317" y="721" type="curve" smooth="yes"/>
			<point x="359" y="721"/>
			<point x="399" y="754"/>
			<point x="399" y="804" type="curve" smooth="yes"/>
			<point x="399" y="854"/>
			<point x="359" y="887"/>
			<point x="317" y="887" type="curve" smooth="yes"/>
			<point x="275" y="887"/>
			<point x="235" y="854"/>
			<point x="235" y="804" type="curve" smooth="yes"/>
			<point x="235" y="754"/>
			<point x="275" y="721"/>
		</contour>
		<contour>
			<point x="317" y="741" type="curve" smooth="yes"/>
			<point x="283" y="741"/>
			<point x="258" y="771"/>
			<point x="258" y="804" type="curve" smooth="yes"/>
			<point x="258" y="837"/>
			<point x="283" y="867"/>
			<point x="317" y="867" type="curve" smooth="yes"/>
			<point x="351" y="867"/>
			<point x="376" y="837"/>
			<point x="376" y="804" type="curve" smooth="yes"/>
			<point x="376" y="771"/>
			<point x="351" y="741"/>
		</contour>
		<component base="A"/>
	</outline>
</glyph>
<glyph name="AE" format="2">
	<unicode hex="00C6"/>
	<advance width="902"/>
	<outline>
		<contour>
			<point x="466" y="0" type="curve"/>
			<point x="500" y="0" type="line"/>
			<point x="498" y="102"/>
			<point x="498" y="206"/>
			<point x="498" y="340" type="curve" smooth="yes"/>
			<point x="498" y="347" type="line" smooth="yes"/>
			<point x="498" y="471"/>
			<point x="498" y="574"/>
			<point x="500" y="676" type="curve"/>
			<point x="468" y="676" type="line"/>
			<point x="468" y="280" type="line" smooth="yes"/>
			<point x="468" y="206"/>
			<point x="468" y="102"/>
		</contour>
		<contour>
			<point x="12" y="0" type="line"/>
			<point x="210" y="0" type="line"/>
			<point x="210" y="20" type="line"/>
			<point x="113" y="27" type="line"/>
			<point x="99" y="27" type="line"/>
			<point x="12" y="20" type="line"/>
		</contour>
		<contour>
			<point x="705" y="234" type="line"/>
			<point x="724" y="234" type="line"/>
			<point x="724" y="450" type="line"/>
			<point x="705" y="450" type="line"/>
			<point x="695" y="352" type="line"/>
			<point x="695" y="332" type="line"/>
		</contour>
		<contour>
			<point x="819" y="523" type="line"/>
			<point x="843" y="523" type="line"/>
			<point x="833" y="676" type="line"/>
			<point x="483" y="676" type="line"/>
			<point x="483" y="654" type="line"/>
			<point x="803" y="654" type="line"/>
		</contour>
		<contour>
			<point x="483" y="0" type="line"/>
			<point x="847" y="0" type="line"/>
			<point x="857" y="153" type="line"/>
			<point x="833" y="153" type="line"/>
			<point x="817" y="22" type="line"/>
			<point x="483" y="22" type="line"/>
		</contour>
		<contour>
			<point x="339" y="656" type="line"/>
			<point x="449" y="649" type="line"/>
			<point x="483" y="649" type="line"/>
			<point x="483" y="676" type="line"/>
			<point x="339" y="676" type="line"/>
		</contour>
		<contour>
			<point x="359" y="0" type="line"/>
			<point x="483" y="0" type="line"/>
			<point x="483" y="27" type="line"/>
			<point x="476" y="27" type="line"/>
			<point x="359" y="20" type="line"/>
		</contour>
		<contour>
			<point x="79" y="0" type="line"/>
			<point x="107" y="0" type="line"/>
			<point x="254" y="275" type="line"/>
			<point x="468" y="676" type="line"/>
			<point x="437" y="676" type="line"/>
		</contour>
		<contour>
			<point x="238" y="265" type="line"/>
			<point x="483" y="265" type="line"/>
			<point x="483" y="285" type="line"/>
			<point x="238" y="285" type="line"/>
		</contour>
		<contour>
			<point x="483" y="331" type="line"/>
			<point x="704" y="331" type="line"/>
			<point x="704" y="353" type="line"/>
			<point x="483" y="353" type="line"/>
		</contour>
	</outline>
	<anchor name="aboveUC" x="571" y="696"/>
</glyph>
<glyph name="Ccedilla" format="2">
	<unicode hex="00C7"/>
	<advance width="644"/>
	<outline>
		<contour>
			<point x="360" y="-77" type="line"/>
			<point x="426" y="-77"/>
			<point x="449" y="-102"/>
			<point x="449" y="-138" type="curve" smooth="yes"/>
			<point x="449" y="-172"/>
			<point x="428" y="-195"/>
			<point x="382" y="-195" type="curve" smooth="yes"/>
			<point x="366" y="-195"/>
			<point x="348" y="-192"/>
			<point x="328" y="-188" type="curve"/>
			<point x="324" y="-203" type="line"/>
			<point x="345" y="-210"/>
			<point x="364" y="-214"/>
			<point x="386" y="-214" type="curve" smooth="yes"/>
			<point x="446" y="-214"/>
			<point x="479" y="-182"/>
			<point x="479" y="-137" type="curve" smooth="yes"/>
			<point x="479" y="-93"/>
			<point x="440" y="-60"/>
			<point x="375" y="-59" type="curve"/>
			<point x="383" y="-74" type="line"/>
			<point x="393" y="0" type="line"/>
			<point x="373" y="0" type="line"/>
		</contour>
		<component base="C"/>
	</outline>
</glyph>
<glyph name="Ecircumflex" format="2">
	<unicode hex="00CA"/>
	<advance width="601"/>
	<outline>
		<contour>
			<point x="352" y="842" type="line"/>
			<point x="338" y="842" type="line"/>
			<point x="208" y="730" type="line"/>
			<point x="216" y="720" type="line"/>
			<point x="354" y="811" type="line"/>
			<point x="336" y="811" type="line"/>
			<point x="474" y="720" type="line"/>
			<point x="482" y="730" type="line"/>
		</contour>
		<component base="E"/>
	</outline>
</glyph>
<glyph name="Igrave" format="2">
	<unicode hex="00CC"/>
	<advance width="364"/>
	<outline>
		<contour>
			<point x="226" y="741" type="line"/>
			<point x="190" y="771"/>
			<point x="154" y="802"/>
			<point x="123" y="828" type="curve" smooth="yes"/>
			<point x="95" y="852"/>
			<point x="86" y="859"/>
			<point x="76" y="859" type="curve" smooth="yes"/>
			<point x="66" y="859"/>
			<point x="58" y="852"/>
			<point x="58" y="842" type="curve" smooth="yes"/>
			<point x="58" y="830"/>
			<point x="71" y="823"/>
			<point x="104" y="801" type="curve" smooth="yes"/>
			<point x="140" y="778"/>
			<point x="179" y="753"/>
			<point x="218" y="730" type="curve"/>
		</contour>
		<component base="I"/>
	</outline>
</glyph>
<glyph name="Ograve" format="2">
	<unicode hex="00D2"/>
	<advance width="706"/>
	<outline>
		<contour>
			<point x="397" y="741" type="line"/>
			<point x="361" y="771"/>
			<point x="325" y="802"/>
			<point x="294" y="828" type="curve" smooth="yes"/>
			<point x="266" y="852"/>
			<point x="257" y="859"/>
			<point x="247" y="859" type="curve" smooth="yes"/>
			<point x="237" y="859"/>
			<point x="229" y="852"/>
			<point x="229" y="842" type="curve" smooth="yes"/>
			<point x="229" y="830"/>
			<point x="242" y="823"/>
			<point x="275" y="801" type="curve" smooth="yes"/>
			<point x="311" y="778"/>
			<point x="350" y="753"/>
			<point x="389" y="730" type="curve"/>
		</contour>
		<component base="O"/>
	</outline>
</glyph>
<glyph name="Ocircumflex" format="2">
	<unicode hex="00D4"/>
	<advance width="706"/>
	<outline>
		<contour>
			<point x="360" y="842" type="line"/>
			<point x="346" y="842" type="line"/>
			<point x="216" y="730" type="line"/>
			<point x="224" y="720" type="line"/>
			<point x="362" y="811" type="line"/>
			<point x="344" y="811" type="line"/>
			<point x="482" y="720" type="line"/>
			<point x="490" y="730" type="line"/>
		</contour>
		<component base="O"/>
	</outline>
</glyph>
<glyph name="Ugrave" format="2">
	<unicode hex="00D9"/>
	<advance width="737"/>
	<outline>
		<contour>
			<point x="424" y="741" type="line"/>
			<point x="388" y="771"/>
			<point x="352" y="802"/>
			<point x="321" y="828" type="curve" smooth="yes"/>
			<point x="293" y="852"/>
			<point x="284" y="859"/>
			<point x="274" y="859" type="curve" smooth="yes"/>
			<point x="264" y="859"/>
			<point x="256" y="852"/>
			<point x="256" y="842" type="curve" smooth="yes"/>
			<point x="256" y="830"/>
			<point x="269" y="823"/>
			<point x="302" y="801" type="curve" smooth="yes"/>
			<point x="338" y="778"/>
			<point x="377" y="753"/>
			<point x="416" y="730" type="curve"/>
		</contour>
		<component base="U"/>
	</outline>
</glyph>
<glyph name="Udieresis" format="2">
	<unicode hex="00DC"/>
	<advance width="737"/>
	<outline>
		<contour>
			<point x="277" y="756" type="curve" smooth="yes"/>
			<point x="294" y="756"/>
			<point x="309" y="768"/>
			<point x="309" y="788" type="curve" smooth="yes"/>
			<point x="309" y="808"/>
			<point x="294" y="820"/>
			<point x="277" y="820" type="curve" smooth="yes"/>
			<point x="261" y="820"/>
			<point x="245" y="808"/>
			<point x="245" y="788" type="curve" smooth="yes"/>
			<point x="245" y="768"/>
			<point x="261" y="756"/>
		</contour>
		<contour>
			<point x="483" y="756" type="curve" smooth="yes"/>
			<point x="499" y="756"/>
			<point x="515" y="768"/>
			<point x="515" y="788" type="curve" smooth="yes"/>
			<point x="515" y="808"/>
			<point x="499" y="820"/>
			<point x="483" y="820" type="curve" smooth="yes"/>
			<point x="466" y="820"/>
			<point x="451" y="808"/>
			<point x="451" y="788" type="curve" smooth="yes"/>
			<point x="451" y="768"/>
			<point x="466" y="756"/>
		</contour>
		<component base="U"/>
	</outline>
</glyph>
<glyph name="Yacute" format="2">
	<unicode hex="00DD"/>
	<advance width="635"/>
	<outline>
		<contour>
			<point x="284" y="741" type="curve"/>
			<point x="292" y="730" type="line"/>
			<point x="331" y="754"/>
			<point x="370" y="779"/>
			<point x="407" y="802" type="curve" smooth="yes"/>
			<point x="440" y="822"/>
			<point x="452" y="830"/>
			<point x="452" y="842" type="curve" smooth="yes"/>
			<point x="452" y="852"/>
			<point x="444" y="859"/>
			<point x="434" y="859" type="curve" smooth="yes"/>
			<point x="424" y="859"/>
			<point x="415" y="852"/>
			<point x="387" y="829" type="curve" smooth="yes"/>
			<point x="356" y="803"/>
			<point x="320" y="772"/>
		</contour>
		<component base="Y"/>
	</outline>
</glyph>
<glyph name="Thorn" format="2">
	<unicode hex="00DE"/>
	<advance width="593"/>
	<outline>
		<contour>
			<point x="182" y="175" type="line"/>
			<point x="303" y="175" type="line" smooth="yes"/>
			<point x="476" y="175"/>
			<point x="545" y="254"/>
			<point x="545" y="355" type="curve" smooth="yes"/>
			<point x="545" y="464"/>
			<point x="477" y="543"/>
			<point x="303" y="543" type="curve" smooth="yes"/>
			<point x="182" y="543" type="line"/>
			<point x="182" y="521" type="line"/>
			<point x="303" y="521" type="line" smooth="yes"/>
			<point x="453" y="521"/>
			<point x="516" y="461"/>
			<point x="516" y="359" type="curve" smooth="yes"/>
			<point x="516" y="257"/>
			<point x="453" y="197"/>
			<point x="303" y="197" type="curve" smooth="yes"/>
			<point x="182" y="197" type="line"/>
		</contour>
		<contour>
			<point x="165" y="0" type="curve"/>
			<point x="199" y="0" type="line"/>
			<point x="197" y="102"/>
			<point x="197" y="206"/>
			<point x="197" y="310" type="curve" smooth="yes"/>
			<point x="197" y="367" type="line" smooth="yes"/>
			<point x="197" y="471"/>
			<point x="197" y="574"/>
			<point x="199" y="676" type="curve"/>
			<point x="165" y="676" type="line"/>
			<point x="167" y="574"/>
			<point x="167" y="471"/>
			<point x="167" y="367" type="curve" smooth="yes"/>
			<point x="167" y="310" type="line" smooth="yes"/>
			<point x="167" y="206"/>
			<point x="167" y="102"/>
		</contour>
		<contour>
			<point x="175" y="649" type="line"/>
			<point x="189" y="649" type="line"/>
			<point x="311" y="656" type="line"/>
			<point x="311" y="676" type="line"/>
			<point x="58" y="676" type="line"/>
			<point x="58" y="656" type="line"/>
		</contour>
		<contour>
			<point x="58" y="0" type="line"/>
			<point x="311" y="0" type="line"/>
			<point x="311" y="20" type="line"/>
			<point x="189" y="27" type="line"/>
			<point x="175" y="27" type="line"/>
			<point x="58" y="20" type="line"/>
		</contour>
	</outline>
</glyph>
<glyph name="aring" format="2">
	<unicode hex="00E5"/>
	<advance width="505"/>
	<outline>
		<contour>
			<point x="237" y="589" type="curve" smooth="yes"/>
			<point x="200" y="589"/>
			<point x="174" y="620"/>
			<point x="174" y="656" type="curve" smooth="yes"/>
			<point x="174" y="692"/>
			<point x="200" y="723"/>
			<point x="237" y="723" type="curve" smooth="yes"/>
			<point x="274" y="723"/>
			<point x="300" y="692"/>
			<point x="300" y="656" type="curve" smooth="yes"/>
			<point x="300" y="620"/>
			<point x="274" y="589"/>
		</contour>
		<contour>
			<point x="237" y="569" type="curve" smooth="yes"/>
			<point x="281" y="569"/>
			<point x="323" y="603"/>
			<point x="323" y="656" type="curve" smooth="yes"/>
			<point x="323" y="709"/>
			<point x="281" y="743"/>
			<point x="237" y="743" type="curve" smooth="yes"/>
			<point x="193" y="743"/>
			<point x="151" y="709"/>
			<point x="151" y="656" type="curve" smooth="yes"/>
			<point x="151" y="603"/>
			<point x="193" y="569"/>
		</contour>
		<component base="a"/>
	</outline>
</glyph>
<glyph name="egrave" format="2">
	<unicode hex="00E8"/>
	<advance width="491"/>
	<outline>
		<contour>
			<point x="314" y="572" type="line"/>
			<point x="278" y="621"/>
			<point x="241" y="671"/>
			<point x="213" y="707" type="curve" smooth="yes"/>
			<point x="195" y="730"/>
			<point x="189" y="738"/>
			<point x="179" y="738" type="curve" smooth="yes"/>
			<point x="170" y="738"/>
			<point x="162" y="732"/>
			<point x="162" y="721" type="curve" smooth="yes"/>
			<point x="162" y="711"/>
			<point x="171" y="702"/>
			<point x="191" y="681" type="curve" smooth="yes"/>
			<point x="220" y="651"/>
			<point x="261" y="607"/>
			<point x="303" y="563" type="curve"/>
		</contour>
		<component base="e"/>
	</outline>
</glyph>
<glyph name="eacute" format="2">
	<unicode hex="00E9"/>
	<advance width="491"/>
	<outline>
		<contour>
			<point x="222" y="572" type="curve"/>
			<point x="233" y="563" type="line"/>
			<point x="275" y="606"/>
			<point x="316" y="650"/>
			<point x="345" y="681" type="curve" smooth="yes"/>
			<point x="365" y="702"/>
			<point x="374" y="711"/>
			<point x="374" y="721" type="curve" smooth="yes"/>
			<point x="374" y="732"/>
			<point x="366" y="738"/>
			<point x="357" y="738" type="curve" smooth="yes"/>
			<point x="347" y="738"/>
			<point x="341" y="730"/>
			<point x="324" y="707" type="curve" smooth="yes"/>
			<point x="296" y="671"/>
			<point x="259" y="621"/>
		</contour>
		<component base="e"/>
	</outline>
</glyph>
<glyph name="ecircumflex" format="2">
	<unicode hex="00EA"/>
	<advance width="491"/>
	<outline>
		<contour>
			<point x="376" y="553" type="line"/>
			<point x="387" y="562" type="line"/>
			<point x="274" y="719" type="line"/>
			<point x="260" y="719" type="line"/>
			<point x="147" y="562" type="line"/>
			<point x="158" y="553" type="line"/>
			<point x="274" y="688" type="line"/>
			<point x="260" y="688" type="line"/>
		</contour>
		<component base="e"/>
	</outline>
</glyph>
<glyph name="edieresis" format="2">
	<unicode hex="00EB"/>
	<advance width="491"/>
	<outline>
		<contour>
			<point x="173" y="644" type="curve" smooth="yes"/>
			<point x="188" y="644"/>
			<point x="202" y="655"/>
			<point x="202" y="674" type="curve" smooth="yes"/>
			<point x="202" y="692"/>
			<point x="188" y="703"/>
			<point x="173" y="703" type="curve" smooth="yes"/>
			<point x="158" y="703"/>
			<point x="144" y="692"/>
			<point x="144" y="674" type="curve" smooth="yes"/>
			<point x="144" y="655"/>
			<point x="158" y="644"/>
		</contour>
		<contour>
			<point x="361" y="644" type="curve" smooth="yes"/>
			<point x="376" y="644"/>
			<point x="390" y="655"/>
			<point x="390" y="674" type="curve" smooth="yes"/>
			<point x="390" y="692"/>
			<point x="376" y="703"/>
			<point x="361" y="703" type="curve" smooth="yes"/>
			<point x="346" y="703"/>
			<point x="332" y="692"/>
			<point x="332" y="674" type="curve" smooth="yes"/>
			<point x="332" y="655"/>
			<point x="346" y="644"/>
		</contour>
		<component base="e"/>
	</outline>
</glyph>
<glyph name="iacute" format="2">
	<unicode hex="00ED"/>
	<advance width="303"/>
	<outline>
		<contour>
			<point x="105" y="572" type="curve"/>
			<point x="116" y="563" type="line"/>
			<point x="158" y="606"/>
			<point x="199" y="650"/>
			<point x="228" y="681" type="curve" smooth="yes"/>
			<point x="248" y="702"/>
			<point x="257" y="711"/>
			<point x="257" y="721" type="curve" smooth="yes"/>
			<point x="257" y="732"/>
			<point x="249" y="738"/>
			<point x="240" y="738" type="curve" smooth="yes"/>
			<point x="230" y="738"/>
			<point x="224" y="730"/>
			<point x="207" y="707" type="curve" smooth="yes"/>
			<point x="179" y="671"/>
			<point x="142" y="621"/>
		</contour>
		<component base="dotlessi"/>
	</outline>
</glyph>
<glyph name="idieresis" format="2">
	<unicode hex="00EF"/>
	<advance width="303"/>
	<outline>
		<contour>
			<point x="59" y="644" type="curve" smooth="yes"/>
			<point x="74" y="644"/>
			<point x="88" y="655"/>
			<point x="88" y="674" type="curve" smooth="yes"/>
			<point x="88" y="692"/>
			<point x="74" y="703"/>
			<point x="59" y="703" type="curve" smooth="yes"/>
			<point x="44" y="703"/>
			<point x="30" y="692"/>
			<point x="30" y="674" type="curve" smooth="yes"/>
			<point x="30" y="655"/>
			<point x="44" y="644"/>
		</contour>
		<contour>
			<point x="227" y="644" type="curve" smooth="yes"/>
			<point x="242" y="644"/>
			<point x="256" y="655"/>
			<point x="256" y="674" type="curve" smooth="yes"/>
			<point x="256" y="692"/>
			<point x="242" y="703"/>
			<point x="227" y="703" type="curve" smooth="yes"/>
			<point x="212" y="703"/>
			<point x="198" y="692"/>
			<point x="198" y="674" type="curve" smooth="yes"/>
			<point x="198" y="655"/>
			<point x="212" y="644"/>
		</contour>
		<component base="dotlessi"/>
	</outline>
</glyph>
<glyph name="ntilde" format="2">
	<unicode hex="00F1"/>
	<advance width="604"/>
	<outline>
		<contour>
			<point x="162" y="600" type="curve"/>
			<point x="177" y="595" type="line"/>
			<point x="189" y="643"/>
			<point x="209" y="669"/>
			<point x="242" y="669" type="curve" smooth="yes"/>
			<point x="269" y="669"/>
			<point x="282" y="653"/>
			<point x="301" y="630" type="curve" smooth="yes"/>
			<point x="318" y="609"/>
			<point x="340" y="588"/>
			<point x="375" y="588" type="curve" smooth="yes"/>
			<point x="420" y="588"/>
			<point x="450" y="626"/>
			<point x="458" y="679" type="curve"/>
			<point x="443" y="684" type="line"/>
			<point x="431" y="636"/>
			<point x="411" y="611"/>
			<point x="378" y="611" type="curve" smooth="yes"/>
			<point x="352" y="611"/>
			<point x="338" y="623"/>
			<point x="320" y="648" type="curve" smooth="yes"/>
			<point x="303" y="671"/>
			<point x="278" y="692"/>
			<point x="245" y="692" type="curve" smooth="yes"/>
			<point x="200" y="692"/>
			<point x="170" y="654"/>
		</contour>
		<component base="n"/>
	</outline>
</glyph>
<glyph name="oslash" format="2">
	<unicode hex="00F8"/>
	<advance width="538"/>
	<outline>
		<contour>
			<point x="478" y="480" type="line"/>
			<point x="461" y="494" type="line"/>
			<point x="56" y="-10" type="line"/>
			<point x="73" y="-24" type="line"/>
		</contour>
		<contour>
			<point x="269" y="-13" type="curve" smooth="yes"/>
			<point x="376" y="-13"/>
			<point x="486" y="62"/>
			<point x="486" y="233" type="curve" smooth="yes"/>
			<point x="486" y="404"/>
			<point x="376" y="483"/>
			<point x="269" y="483" type="curve" smooth="yes"/>
			<point x="162" y="483"/>
			<point x="52" y="404"/>
			<point x="52" y="233" type="curve" smooth="yes"/>
			<point x="52" y="62"/>
			<point x="162" y="-13"/>
		</contour>
		<contour>
			<point x="269" y="7" type="curve" smooth="yes"/>
			<point x="158" y="7"/>
			<point x="84" y="89"/>
			<point x="84" y="233" type="curve" smooth="yes"/>
			<point x="84" y="374"/>
			<point x="158" y="463"/>
			<point x="269" y="463" type="curve" smooth="yes"/>
			<point x="380" y="463"/>
			<point x="454" y="377"/>
			<point x="454" y="233" type="curve" smooth="yes"/>
			<point x="454" y="92"/>
			<point x="380" y="7"/>
		</contour>
	</outline>
	<anchor name="aboveLC" x="269" y="490"/>
</glyph>
<glyph name="uacute" format="2">
	<unicode hex="00FA"/>
	<advance width="604"/>
	<outline>
		<contour>
			<point x="247" y="572" type="curve"/>
			<point x="258" y="563" type="line"/>
			<point x="300" y="606"/>
			<point x="341" y="650"/>
			<point x="370" y="681" type="curve" smooth="yes"/>
			<point x="390" y="702"/>
			<point x="399" y="711"/>
			<point x="399" y="721" type="curve" smooth="yes"/>
			<point x="399" y="732"/>
			<point x="391" y="738"/>
			<point x="382" y="738" type="curve" smooth="yes"/>
			<point x="372" y="738"/>
			<point x="366" y="730"/>
			<point x="349" y="707" type="curve" smooth="yes"/>
			<point x="321" y="671"/>
			<point x="284" y="621"/>
		</contour>
		<component base="u"/>
	</outline>
</glyph>
<glyph name="udieresis" format="2">
	<unicode hex="00FC"/>
	<advance width="604"/>
	<outline>
		<contour>
			<point x="198" y="644" type="curve" smooth="yes"/>
			<point x="213" y="644"/>
			<point x="227" y="655"/>
			<point x="227" y="674" type="curve" smooth="yes"/>
			<point x="227" y="692"/>
			<point x="213" y="703"/>
			<point x="198" y="703" type="curve" smooth="yes"/>
			<point x="183" y="703"/>
			<point x="169" y="692"/>
			<point x="169" y="674" type="curve" smooth="yes"/>
			<point x="169" y="655"/>
			<point x="183" y="644"/>
		</contour>
		<contour>
			<point x="386" y="644" type="curve" smooth="yes"/>
			<point x="401" y="644"/>
			<point x="415" y="655"/>
			<point x="415" y="674" type="curve" smooth="yes"/>
			<point x="415" y="692"/>
			<point x="401" y="703"/>
			<point x="386" y="703" type="curve" smooth="yes"/>
			<point x="371" y="703"/>
			<point x="357" y="692"/>
			<point x="357" y="674" type="curve" smooth="yes"/>
			<point x="357" y="655"/>
			<point x="371" y="644"/>
		</contour>
		<component base="u"/>
	</outline>
</glyph>
<glyph name="yacute" format="2">
	<unicode hex="00FD"/>
	<advance width="492"/>
	<outline>
		<contour>
			<point x="203" y="572" type="curve"/>
			<point x="214" y="563" type="line"/>
			<point x="256" y="606"/>
			<point x="297" y="650"/>
			<point x="326" y="681" type="curve" smooth="yes"/>
			<point x="346" y="702"/>
			<point x="355" y="711"/>
			<point x="355" y="721" type="curve" smooth="yes"/>
			<point x="355" y="732"/>
			<point x="347" y="738"/>
			<point x="338" y="738" type="curve" smooth="yes"/>
			<point x="328" y="738"/>
			<point x="322" y="730"/>
			<point x="305" y="707" type="curve" smooth="yes"/>
			<point x="277" y="671"/>
			<point x="240" y="621"/>
		</contour>
		<component base="y"/>
	</outline>
</glyph>
<glyph name="dcroat" format="2">
	<unicode hex="0111"/>
	<advance width="575"/>
	<outline>
		<contour>
			<point x="213" y="585" type="line"/>
			<point x="533" y="585" type="line"/>
			<point x="533" y="609" type="line"/>
			<point x="213" y="609" type="line"/>
		</contour>
		<contour>
			<point x="84" y="227" type="curve" smooth="yes"/>
			<point x="84" y="378"/>
			<point x="164" y="445"/>
			<point x="264" y="445" type="curve" smooth="yes"/>
			<point x="325" y="445"/>
			<point x="371" y="416"/>
			<point x="417" y="360" type="curve"/>
			<point x="427" y="373" type="line"/>
			<point x="425" y="373" type="line"/>
			<point x="378" y="441"/>
			<point x="317" y="470"/>
			<point x="264" y="470" type="curve" smooth="yes"/>
			<point x="144" y="470"/>
			<point x="52" y="381"/>
			<point x="52" y="227" type="curve" smooth="yes"/>
			<point x="52" y="86"/>
			<point x="133" y="-13"/>
			<point x="249" y="-13" type="curve" smooth="yes"/>
			<point x="313" y="-13"/>
			<point x="376" y="14"/>
			<point x="426" y="89" type="curve"/>
			<point x="419" y="104" type="line"/>
			<point x="417" y="104" type="line"/>
			<point x="366" y="38"/>
			<point x="316" y="12"/>
			<point x="252" y="12" type="curve" smooth="yes"/>
			<point x="158" y="12"/>
			<point x="84" y="85"/>
		</contour>
		<contour>
			<point x="546" y="0" type="line"/>
			<point x="546" y="20" type="line"/>
			<point x="440" y="25" type="line"/>
			<point x="440" y="592" type="line"/>
			<point x="442" y="740" type="line"/>
			<point x="428" y="748" type="line"/>
			<point x="321" y="736" type="line"/>
			<point x="321" y="716" type="line"/>
			<point x="412" y="716" type="line"/>
			<point x="412" y="377" type="line"/>
			<point x="412" y="375" type="line"/>
			<point x="412" y="89" type="line"/>
			<point x="412" y="87" type="line"/>
			<point x="409" y="-6" type="line"/>
		</contour>
	</outline>
</glyph>
<glyph name="Hbar" format="2">
	<unicode hex="0126"/>
	<advance width="794"/>
	<outline>
		<contour>
			<point x="165" y="0" type="curve"/>
			<point x="199" y="0" type="line"/>
			<point x="197" y="102"/>
			<point x="197" y="206"/>
			<point x="197" y="339" type="curve" smooth="yes"/>
			<point x="197" y="367" type="line" smooth="yes"/>
			<point x="197" y="471"/>
			<point x="197" y="574"/>
			<point x="199" y="676" type="curve"/>
			<point x="165" y="676" type="line"/>
			<point x="167" y="574"/>
			<point x="167" y="471"/>
			<point x="167" y="367" type="curve" smooth="yes"/>
			<point x="167" y="310" type="line" smooth="yes"/>
			<point x="167" y="206"/>
			<point x="167" y="102"/>
		</contour>
		<contour>
			<point x="595" y="0" type="curve"/>
			<point x="629" y="0" type="line"/>
			<point x="627" y="102"/>
			<point x="627" y="206"/>
			<point x="627" y="310" type="curve" smooth="yes"/>
			<point x="627" y="367" type="line" smooth="yes"/>
			<point x="627" y="471"/>
			<point x="627" y="574"/>
			<point x="629" y="676" type="curve"/>
			<point x="595" y="676" type="line"/>
			<point x="597" y="574"/>
			<point x="597" y="471"/>
			<point x="597" y="367" type="curve" smooth="yes"/>
			<point x="597" y="339" type="line" smooth="yes"/>
			<point x="597" y="206"/>
			<point x="597" y="102"/>
		</contour>
		<contour>
			<point x="58" y="0" type="line"/>
			<point x="306" y="0" type="line"/>
			<point x="306" y="20" type="line"/>
			<point x="189" y="27" type="line"/>
			<point x="175" y="27" type="line"/>
			<point x="58" y="20" type="line"/>
		</contour>
		<contour>
			<point x="58" y="656" type="line"/>
			<point x="175" y="649" type="line"/>
			<point x="189" y="649" type="line"/>
			<point x="306" y="656" type="line"/>
			<point x="306" y="676" type="line"/>
			<point x="58" y="676" type="line"/>
		</contour>
		<contour>
			<point x="489" y="0" type="line"/>
			<point x="737" y="0" type="line"/>
			<point x="737" y="20" type="line"/>
			<point x="620" y="27" type="line"/>
			<point x="606" y="27" type="line"/>
			<point x="489" y="20" type="line"/>
		</contour>
		<contour>
			<point x="489" y="656" type="line"/>
			<point x="606" y="649" type="line"/>
			<point x="620" y="649" type="line"/>
			<point x="737" y="656" type="line"/>
			<point x="737" y="676" type="line"/>
			<point x="489" y="676" type="line"/>
		</contour>
		<contour>
			<point x="38" y="501" type="line"/>
			<point x="757" y="501" type="line"/>
			<point x="757" y="523" type="line"/>
			<point x="38" y="523" type="line"/>
		</contour>
		<contour>
			<point x="182" y="328" type="line"/>
			<point x="613" y="328" type="line"/>
			<point x="613" y="350" type="line"/>
			<point x="182" y="350" type="line"/>
		</contour>
	</outline>
</glyph>
<glyph name="dotlessi" format="2">
	<unicode hex="0131"/>
	<advance width="303"/>
	<outline>
		<contour>
			<point x="48" y="0" type="line"/>
			<point x="251" y="0" type="line"/>
			<point x="251" y="20" type="line"/>
			<point x="157" y="26" type="line"/>
			<point x="148" y="26" type="line"/>
			<point x="48" y="20" type="line"/>
		</contour>
		<contour>
			<point x="137" y="0" type="curve"/>
			<point x="171" y="0" type="line"/>
			<point x="169" y="45"/>
			<point x="168" y="148"/>
			<point x="168" y="210" type="curve" smooth="yes"/>
			<point x="168" y="356" type="line"/>
			<point x="170" y="472" type="line"/>
			<point x="160" y="478" type="line"/>
			<point x="44" y="466" type="line"/>
			<point x="44" y="446" type="line"/>
			<point x="137" y="446" type="line"/>
			<point x="139" y="395"/>
			<point x="140" y="329"/>
			<point x="140" y="259" type="curve" smooth="yes"/>
			<point x="140" y="210" type="line" smooth="yes"/>
			<point x="140" y="148"/>
			<point x="139" y="45"/>
		</contour>
	</outline>
	<anchor name="aboveLC" x="150" y="490"/>
	<anchor name="belowLC" x="156" y="-20"/>
	<anchor name="ogonek" x="181" y="0"/>
</glyph>
<glyph name="kgreenlandic" format="2">
	<unicode hex="0138"/>
	<advance width="543"/>
	<outline>
		<contour>
			<point x="43" y="0" type="line"/>
			<point x="246" y="0" type="line"/>
			<point x="246" y="20" type="line"/>
			<point x="152" y="26" type="line"/>
			<point x="143" y="26" type="line"/>
			<point x="43" y="20" type="line"/>
		</contour>
		<contour>
			<point x="132" y="0" type="curve"/>
			<point x="166" y="0" type="line"/>
			<point x="164" y="45"/>
			<point x="163" y="148"/>
			<point x="163" y="210" type="curve" smooth="yes"/>
			<point x="163" y="356" type="line"/>
			<point x="165" y="468" type="line"/>
			<point x="155" y="474" type="line"/>
			<point x="39" y="462" type="line"/>
			<point x="39" y="442" type="line"/>
			<point x="132" y="442" type="line"/>
			<point x="134" y="391"/>
			<point x="135" y="325"/>
			<point x="135" y="255" type="curve" smooth="yes"/>
			<point x="135" y="210" type="line" smooth="yes"/>
			<point x="135" y="148"/>
			<point x="134" y="45"/>
		</contour>
		<contour>
			<point x="150" y="176" type="line"/>
			<point x="448" y="470" type="line"/>
			<point x="416" y="470" type="line"/>
			<point x="284" y="338" type="line"/>
			<point x="152" y="206" type="line"/>
			<point x="150" y="206" type="line"/>
		</contour>
		<contour>
			<point x="431" y="0" type="line"/>
			<point x="533" y="0" type="line"/>
			<point x="533" y="20" type="line"/>
			<point x="432" y="26" type="line"/>
			<point x="455" y="16" type="line"/>
			<point x="273" y="308" type="line"/>
			<point x="252" y="287" type="line"/>
		</contour>
		<contour>
			<point x="396" y="444" type="line"/>
			<point x="405" y="444" type="line"/>
			<point x="515" y="450" type="line"/>
			<point x="515" y="470" type="line"/>
			<point x="295" y="470" type="line"/>
			<point x="295" y="450" type="line"/>
		</contour>
	</outline>
</glyph>
<glyph name="lslash" format="2">
	<unicode hex="0142"/>
	<advance width="303"/>
	<outline>
		<contour>
			<point x="151" y="397" type="line"/>
			<point x="35" y="329" type="line"/>
			<point x="35" y="305" type="line"/>
			<point x="151" y="371" type="line"/>
		</contour>
		<contour>
			<point x="263" y="462" type="line"/>
			<point x="151" y="396" type="line"/>
			<point x="151" y="372" type="line"/>
			<point x="263" y="436" type="line"/>
		</contour>
		<component base="l"/>
	</outline>
</glyph>
<glyph name="Eng" format="2">
	<unicode hex="014A"/>
	<advance width="732"/>
	<outline>
		<contour>
			<point x="48" y="0" type="line"/>
			<point x="276" y="0" type="line"/>
			<point x="276" y="20" type="line"/>
			<point x="159" y="27" type="line"/>
			<point x="145" y="27" type="line"/>
			<point x="48" y="20" type="line"/>
		</contour>
		<contour>
			<point x="139" y="0" type="line"/>
			<point x="163" y="0" type="line"/>
			<point x="163" y="337" type="line"/>
			<point x="163" y="658" type="line"/>
			<point x="139" y="658" type="line"/>
		</contour>
		<contour>
			<point x="448" y="-121" type="curve" smooth="yes"/>
			<point x="489" y="-121"/>
			<point x="525" y="-105"/>
			<point x="553" y="-70" type="curve" smooth="yes"/>
			<point x="580" y="-36"/>
			<point x="602" y="12"/>
			<point x="602" y="130" type="curve" smooth="yes"/>
			<point x="602" y="676" type="line"/>
			<point x="578" y="676" type="line"/>
			<point x="578" y="339" type="line"/>
			<point x="578" y="123" type="line" smooth="yes"/>
			<point x="578" y="-11"/>
			<point x="542" y="-76"/>
			<point x="482" y="-98" type="curve"/>
			<point x="482" y="-107" type="line"/>
			<point x="496" y="-107" type="line"/>
			<point x="496" y="-104" type="line"/>
			<point x="488" y="-98" type="line" smooth="yes"/>
			<point x="467" y="-82"/>
			<point x="455" y="-76"/>
			<point x="436" y="-76" type="curve" smooth="yes"/>
			<point x="417" y="-76"/>
			<point x="400" y="-84"/>
			<point x="397" y="-94" type="curve"/>
			<point x="397" y="-113"/>
			<point x="419" y="-121"/>
		</contour>
		<contour>
			<point x="578" y="0" type="line"/>
			<point x="586" y="0" type="line"/>
			<point x="586" y="39" type="line"/>
			<point x="583" y="39" type="line"/>
			<point x="165" y="676" type="line"/>
			<point x="38" y="676" type="line"/>
			<point x="38" y="656" type="line"/>
			<point x="147" y="652" type="line"/>
			<point x="155" y="637" type="line"/>
			<point x="156" y="637" type="line"/>
		</contour>
		<contour>
			<point x="583" y="649" type="line"/>
			<point x="597" y="649" type="line"/>
			<point x="694" y="656" type="line"/>
			<point x="694" y="676" type="line"/>
			<point x="466" y="676" type="line"/>
			<point x="466" y="656" type="line"/>
		</contour>
	</outline>
</glyph>
<glyph name="OE" format="2">
	<unicode hex="0152"/>
	<advance width="910"/>
	<outline>
		<contour>
			<point x="96" y="338" type="curve" smooth="yes"/>
			<point x="96" y="512"/>
			<point x="186" y="667"/>
			<point x="383" y="667" type="curve" smooth="yes"/>
			<point x="421" y="667"/>
			<point x="458" y="662"/>
			<point x="491" y="652" type="curve"/>
			<point x="491" y="676" type="line"/>
			<point x="457" y="685"/>
			<point x="421" y="689"/>
			<point x="383" y="689" type="curve" smooth="yes"/>
			<point x="189" y="689"/>
			<point x="63" y="547"/>
			<point x="63" y="338" type="curve" smooth="yes"/>
			<point x="63" y="130"/>
			<point x="188" y="-13"/>
			<point x="383" y="-13" type="curve" smooth="yes"/>
			<point x="421" y="-13"/>
			<point x="456" y="-10"/>
			<point x="491" y="0" type="curve"/>
			<point x="491" y="24" type="line"/>
			<point x="457" y="13"/>
			<point x="421" y="9"/>
			<point x="383" y="9" type="curve" smooth="yes"/>
			<point x="186" y="9"/>
			<point x="96" y="166"/>
		</contour>
		<contour>
			<point x="474" y="0" type="curve"/>
			<point x="508" y="0" type="line"/>
			<point x="506" y="102"/>
			<point x="506" y="206"/>
			<point x="506" y="340" type="curve" smooth="yes"/>
			<point x="506" y="347" type="line" smooth="yes"/>
			<point x="506" y="471"/>
			<point x="506" y="574"/>
			<point x="508" y="676" type="curve"/>
			<point x="474" y="676" type="line"/>
			<point x="476" y="574"/>
			<point x="476" y="471"/>
			<point x="476" y="367" type="curve" smooth="yes"/>
			<point x="476" y="310" type="line" smooth="yes"/>
			<point x="476" y="206"/>
			<point x="476" y="102"/>
		</contour>
		<contour>
			<point x="713" y="234" type="line"/>
			<point x="732" y="234" type="line"/>
			<point x="732" y="450" type="line"/>
			<point x="713" y="450" type="line"/>
			<point x="703" y="352" type="line"/>
			<point x="703" y="332" type="line"/>
		</contour>
		<contour>
			<point x="491" y="331" type="line"/>
			<point x="712" y="331" type="line"/>
			<point x="712" y="353" type="line"/>
			<point x="491" y="353" type="line"/>
		</contour>
		<contour>
			<point x="827" y="523" type="line"/>
			<point x="851" y="523" type="line"/>
			<point x="841" y="676" type="line"/>
			<point x="491" y="676" type="line"/>
			<point x="491" y="654" type="line"/>
			<point x="811" y="654" type="line"/>
		</contour>
		<contour>
			<point x="841" y="153" type="line"/>
			<point x="825" y="22" type="line"/>
			<point x="491" y="22" type="line"/>
			<point x="491" y="0" type="line"/>
			<point x="855" y="0" type="line"/>
			<point x="865" y="153" type="line"/>
		</contour>
	</outline>
	<anchor name="aboveUC" x="494" y="696"/>
</glyph>
<glyph name="scaron" format="2">
	<unicode hex="0161"/>
	<advance width="426"/>
	<outline>
		<contour>
			<point x="103" y="716" type="line"/>
			<point x="93" y="706" type="line"/>
			<point x="211" y="570" type="line"/>
			<point x="231" y="570" type="line"/>
			<point x="349" y="706" type="line"/>
			<point x="339" y="716" type="line"/>
			<point x="212" y="599" type="line"/>
			<point x="230" y="599" type="line"/>
		</contour>
		<component base="s"/>
	</outline>
</glyph>
<glyph name="Uogonek" format="2">
	<unicode hex="0172"/>
	<advance width="737"/>
	<outline>
		<contour>
			<point x="157" y="649" type="line"/>
			<point x="171" y="649" type="line"/>
			<point x="288" y="656" type="line"/>
			<point x="288" y="676" type="line"/>
			<point x="50" y="676" type="line"/>
			<point x="50" y="656" type="line"/>
		</contour>
		<contour>
			<point x="458" y="-223" type="curve" smooth="yes"/>
			<point x="491" y="-223"/>
			<point x="513" y="-209"/>
			<point x="532" y="-189" type="curve"/>
			<point x="523" y="-178" type="line"/>
			<point x="502" y="-192"/>
			<point x="487" y="-199"/>
			<point x="467" y="-199" type="curve" smooth="yes"/>
			<point x="434" y="-199"/>
			<point x="410" y="-176"/>
			<point x="410" y="-132" type="curve" smooth="yes"/>
			<point x="410" y="-73"/>
			<point x="438" y="-21"/>
			<point x="501" y="19" type="curve" smooth="yes"/>
			<point x="566" y="59"/>
			<point x="599" y="134"/>
			<point x="599" y="246" type="curve" smooth="yes"/>
			<point x="599" y="676" type="line"/>
			<point x="575" y="676" type="line"/>
			<point x="575" y="272" type="line" smooth="yes"/>
			<point x="575" y="85"/>
			<point x="515" y="13"/>
			<point x="370" y="13" type="curve" smooth="yes"/>
			<point x="254" y="13"/>
			<point x="178" y="78"/>
			<point x="178" y="254" type="curve" smooth="yes"/>
			<point x="178" y="361" type="line" smooth="yes"/>
			<point x="178" y="469"/>
			<point x="178" y="572"/>
			<point x="180" y="676" type="curve"/>
			<point x="146" y="676" type="line"/>
			<point x="148" y="572"/>
			<point x="148" y="467"/>
			<point x="148" y="361" type="curve" smooth="yes"/>
			<point x="148" y="247" type="line" smooth="yes"/>
			<point x="148" y="59"/>
			<point x="234" y="-13"/>
			<point x="370" y="-13" type="curve" smooth="yes"/>
			<point x="409" y="-13"/>
			<point x="442" y="-7"/>
			<point x="471" y="4" type="curve"/>
			<point x="466" y="9" type="line"/>
			<point x="416" y="-27"/>
			<point x="382" y="-73"/>
			<point x="382" y="-142" type="curve" smooth="yes"/>
			<point x="382" y="-195"/>
			<point x="416" y="-223"/>
		</contour>
		<contour>
			<point x="580" y="649" type="line"/>
			<point x="594" y="649" type="line"/>
			<point x="689" y="656" type="line"/>
			<point x="689" y="676" type="line"/>
			<point x="453" y="676" type="line"/>
			<point x="453" y="656" type="line"/>
		</contour>
	</outline>
	<anchor name="aboveUC" x="380" y="696"/>
</glyph>
<glyph name="zcaron" format="2">
	<unicode hex="017E"/>
	<advance width="457"/>
	<outline>
		<contour>
			<point x="122" y="716" type="line"/>
			<point x="112" y="706" type="line"/>
			<point x="230" y="570" type="line"/>
			<point x="250" y="570" type="line"/>
			<point x="368" y="706" type="line"/>
			<point x="358" y="716" type="line"/>
			<point x="231" y="599" type="line"/>
			<point x="249" y="599" type="line"/>
		</contour>
		<component base="z"/>
	</outline>
</glyph>
<glyph name="longs" format="2">
	<unicode hex="017F"/>
	<advance width="354"/>
	<outline>
		<contour>
			<point x="33" y="0" type="line"/>
			<point x="271" y="0" type="line"/>
			<point x="271" y="20" type="line"/>
			<point x="152" y="26" type="line"/>
			<point x="143" y="26" type="line"/>
			<point x="33" y="20" type="line"/>
		</contour>
		<contour>
			<point x="131" y="0" type="curve"/>
			<point x="167" y="0" type="line"/>
			<point x="165" y="70"/>
			<point x="163" y="140"/>
			<point x="163" y="210" type="curve" smooth="yes"/>
			<point x="163" y="456" type="line" smooth="yes"/>
			<point x="163" y="600"/>
			<point x="182" y="654"/>
			<point x="226" y="698" type="curve" smooth="yes"/>
			<point x="252" y="724"/>
			<point x="282" y="741"/>
			<point x="311" y="741" type="curve"/>
			<point x="315" y="741" type="line"/>
			<point x="315" y="745" type="line"/>
			<point x="295" y="745" type="line"/>
			<point x="310" y="734" type="line" smooth="yes"/>
			<point x="337" y="714"/>
			<point x="352" y="704"/>
			<point x="369" y="704" type="curve" smooth="yes"/>
			<point x="384" y="704"/>
			<point x="393" y="713"/>
			<point x="393" y="724" type="curve"/>
			<point x="387" y="742"/>
			<point x="355" y="758"/>
			<point x="318" y="758" type="curve" smooth="yes"/>
			<point x="280" y="758"/>
			<point x="241" y="743"/>
			<point x="205" y="707" type="curve" smooth="yes"/>
			<point x="153" y="655"/>
			<point x="135" y="577"/>
			<point x="135" y="463" type="curve" smooth="yes"/>
			<point x="135" y="210" type="line" smooth="yes"/>
			<point x="135" y="140"/>
			<point x="133" y="70"/>
		</contour>
	</outline>
</glyph>
<glyph name="Schwa" format="2">
	<unicode hex="018F"/>
	<advance width="657"/>
	<outline>
		<contour>
			<point x="63" y="275" type="curve" smooth="yes"/>
			<point x="63" y="117"/>
			<point x="150" y="-13"/>
			<point x="329" y="-13" type="curve" smooth="yes"/>
			<point x="478" y="-13"/>
			<point x="594" y="116"/>
			<point x="594" y="342" type="curve" smooth="yes"/>
			<point x="594" y="587"/>
			<point x="450" y="689"/>
			<point x="303" y="689" type="curve" smooth="yes"/>
			<point x="222" y="689"/>
			<point x="151" y="652"/>
			<point x="99" y="589" type="curve"/>
			<point x="110" y="577" type="line"/>
			<point x="160" y="633"/>
			<point x="221" y="667"/>
			<point x="299" y="667" type="curve" smooth="yes"/>
			<point x="435" y="667"/>
			<point x="564" y="571"/>
			<point x="564" y="346" type="curve" smooth="yes"/>
			<point x="564" y="151"/>
			<point x="481" y="9"/>
			<point x="332" y="9" type="curve" smooth="yes"/>
			<point x="169" y="9"/>
			<point x="93" y="135"/>
			<point x="93" y="278" type="curve" smooth="yes"/>
			<point x="93" y="306"/>
			<point x="94" y="314"/>
			<point x="97" y="334" type="curve"/>
			<point x="570" y="334" type="line"/>
			<point x="570" y="356" type="line"/>
			<point x="71" y="356" type="line"/>
			<point x="66" y="336"/>
			<point x="63" y="313"/>
		</contour>
	</outline>
	<anchor name="aboveUC" x="319" y="696"/>
	<anchor name="belowLC" x="329" y="-20"/>
</glyph>
<glyph name="Uhorn" format="2">
	<unicode hex="01AF"/>
	<advance width="737"/>
	<outline>
		<contour>
			<point x="370" y="-13" type="curve" smooth="yes"/>
			<point x="528" y="-13"/>
			<point x="599" y="82"/>
			<point x="599" y="248" type="curve" smooth="yes"/>
			<point x="599" y="676" type="line"/>
			<point x="575" y="676" type="line"/>
			<point x="575" y="274" type="line" smooth="yes"/>
			<point x="575" y="87"/>
			<point x="515" y="13"/>
			<point x="370" y="13" type="curve" smooth="yes"/>
			<point x="254" y="13"/>
			<point x="178" y="80"/>
			<point x="178" y="256" type="curve" smooth="yes"/>
			<point x="178" y="361" type="line" smooth="yes"/>
			<point x="178" y="469"/>
			<point x="178" y="572"/>
			<point x="180" y="676" type="curve"/>
			<point x="146" y="676" type="line"/>
			<point x="148" y="572"/>
			<point x="148" y="467"/>
			<point x="148" y="361" type="curve" smooth="yes"/>
			<point x="148" y="249" type="line" smooth="yes"/>
			<point x="148" y="61"/>
			<point x="234" y="-13"/>
		</contour>
		<contour>
			<point x="590" y="649" type="line"/>
			<point x="674" y="654"/>
			<point x="711" y="681"/>
			<point x="711" y="750" type="curve" smooth="yes"/>
			<point x="711" y="786"/>
			<point x="698" y="817"/>
			<point x="688" y="829" type="curve"/>
			<point x="685" y="832"/>
			<point x="680" y="833"/>
			<point x="675" y="833" type="curve" smooth="yes"/>
			<point x="664" y="833"/>
			<point x="655" y="826"/>
			<point x="655" y="815" type="curve" smooth="yes"/>
			<point x="655" y="793"/>
			<point x="681" y="777"/>
			<point x="681" y="727" type="curve" smooth="yes"/>
			<point x="681" y="690"/>
			<point x="664" y="676"/>
			<point x="590" y="676" type="curve"/>
		</contour>
		<contour>
			<point x="50" y="656" type="line"/>
			<point x="157" y="649" type="line"/>
			<point x="171" y="649" type="line"/>
			<point x="288" y="656" type="line"/>
			<point x="288" y="676" type="line"/>
			<point x="50" y="676" type="line"/>
		</contour>
		<contour>
			<point x="453" y="656" type="line"/>
			<point x="580" y="649" type="line"/>
			<point x="584" y="649" type="line"/>
			<point x="584" y="676" type="line"/>
			<point x="453" y="676" type="line"/>
		</contour>
	</outline>
	<anchor name="aboveUC" x="380" y="696"/>
	<anchor name="belowLC" x="376" y="-20"/>
</glyph>
<glyph name="schwa" format="2">
	<unicode hex="0259"/>
	<advance width="491"/>
	<outline>
		<contour>
			<point x="236" y="-13" type="curve" smooth="yes"/>
			<point x="347" y="-13"/>
			<point x="439" y="69"/>
			<point x="439" y="232" type="curve" smooth="yes"/>
			<point x="439" y="407"/>
			<point x="346" y="483"/>
			<point x="238" y="483" type="curve" smooth="yes"/>
			<point x="173" y="483"/>
			<point x="110" y="454"/>
			<point x="70" y="404" type="curve"/>
			<point x="81" y="393" type="line"/>
			<point x="121" y="435"/>
			<point x="174" y="457"/>
			<point x="238" y="457" type="curve" smooth="yes"/>
			<point x="337" y="457"/>
			<point x="407" y="379"/>
			<point x="407" y="232" type="curve" smooth="yes"/>
			<point x="407" y="91"/>
			<point x="340" y="7"/>
			<point x="239" y="7" type="curve" smooth="yes"/>
			<point x="123" y="7"/>
			<point x="69" y="85"/>
			<point x="69" y="189" type="curve" smooth="yes"/>
			<point x="69" y="218"/>
			<point x="75" y="228"/>
			<point x="89" y="228" type="curve" smooth="yes"/>
			<point x="421" y="228" type="line"/>
			<point x="421" y="249" type="line"/>
			<point x="45" y="249" type="line"/>
			<point x="41" y="234"/>
			<point x="39" y="216"/>
			<point x="39" y="189" type="curve" smooth="yes"/>
			<point x="39" y="71"/>
			<point x="106" y="-13"/>
		</contour>
	</outline>
	<anchor name="aboveLC" x="240" y="490"/>
	<anchor name="belowLC" x="246" y="-20"/>
</glyph>
<glyph name="h.sups" format="2">
	<unicode hex="02B0"/>
	<advance width="393"/>
	<outline>
		<contour>
			<point x="81" y="430" type="line"/>
			<point x="107" y="430" type="line"/>
			<point x="107" y="668" type="line"/>
			<point x="107" y="669" type="line"/>
			<point x="107" y="910" type="line"/>
			<point x="98" y="916" type="line"/>
			<point x="22" y="902" type="line"/>
			<point x="22" y="886" type="line"/>
			<point x="81" y="884" type="line"/>
		</contour>
		<contour>
			<point x="291" y="430" type="line"/>
			<point x="317" y="430" type="line"/>
			<point x="317" y="636" type="line" smooth="yes"/>
			<point x="317" y="720"/>
			<point x="287" y="751"/>
			<point x="236" y="751" type="curve" smooth="yes"/>
			<point x="195" y="751"/>
			<point x="148" y="727"/>
			<point x="101" y="674" type="curve"/>
			<point x="92" y="674" type="line"/>
			<point x="103" y="655" type="line"/>
			<point x="154" y="711"/>
			<point x="198" y="724"/>
			<point x="227" y="724" type="curve" smooth="yes"/>
			<point x="266" y="724"/>
			<point x="291" y="701"/>
			<point x="291" y="635" type="curve" smooth="yes"/>
		</contour>
		<contour>
			<point x="22" y="430" type="line"/>
			<point x="160" y="430" type="line"/>
			<point x="160" y="446" type="line"/>
			<point x="97" y="453" type="line"/>
			<point x="90" y="453" type="line"/>
			<point x="22" y="446" type="line"/>
		</contour>
		<contour>
			<point x="232" y="430" type="line"/>
			<point x="370" y="430" type="line"/>
			<point x="370" y="446" type="line"/>
			<point x="307" y="453" type="line"/>
			<point x="300" y="453" type="line"/>
			<point x="232" y="446" type="line"/>
		</contour>
	</outline>
</glyph>
<glyph name="j.sups" format="2">
	<unicode hex="02B2"/>
	<advance width="180"/>
	<outline>
		<contour>
			<point x="5" y="263" type="curve" smooth="yes"/>
			<point x="30" y="263"/>
			<point x="53" y="272"/>
			<point x="73" y="292" type="curve" smooth="yes"/>
			<point x="106" y="325"/>
			<point x="112" y="372"/>
			<point x="112" y="516" type="curve" smooth="yes"/>
			<point x="112" y="741" type="line"/>
			<point x="105" y="746" type="line"/>
			<point x="25" y="729" type="line"/>
			<point x="25" y="713" type="line"/>
			<point x="86" y="711" type="line"/>
			<point x="86" y="480" type="line" smooth="yes"/>
			<point x="86" y="391"/>
			<point x="85" y="340"/>
			<point x="62" y="308" type="curve" smooth="yes"/>
			<point x="49" y="290"/>
			<point x="26" y="277"/>
			<point x="7" y="276" type="curve"/>
			<point x="7" y="271" type="line"/>
			<point x="40" y="271" type="line"/>
			<point x="43" y="276" type="line"/>
			<point x="24" y="288" type="line" smooth="yes"/>
			<point x="8" y="298"/>
			<point x="-3" y="300"/>
			<point x="-14" y="300" type="curve" smooth="yes"/>
			<point x="-28" y="300"/>
			<point x="-37" y="294"/>
			<point x="-40" y="282" type="curve"/>
			<point x="-38" y="273"/>
			<point x="-24" y="263"/>
		</contour>
		<contour>
			<point x="96" y="847" type="curve" smooth="yes"/>
			<point x="110" y="847"/>
			<point x="122" y="858"/>
			<point x="122" y="874" type="curve" smooth="yes"/>
			<point x="122" y="891"/>
			<point x="110" y="901"/>
			<point x="96" y="901" type="curve" smooth="yes"/>
			<point x="82" y="901"/>
			<point x="70" y="891"/>
			<point x="70" y="874" type="curve" smooth="yes"/>
			<point x="70" y="858"/>
			<point x="82" y="847"/>
		</contour>
	</outline>
</glyph>
<glyph name="w.sups" format="2">
	<unicode hex="02B7"/>
	<advance width="504"/>
	<outline>
		<contour>
			<point x="141" y="423" type="line"/>
			<point x="155" y="423" type="line"/>
			<point x="253" y="694" type="line"/>
			<point x="255" y="699" type="line"/>
			<point x="249" y="698" type="line"/>
			<point x="347" y="423" type="line"/>
			<point x="360" y="423" type="line"/>
			<point x="465" y="739" type="line"/>
			<point x="444" y="739" type="line"/>
			<point x="355" y="463" type="line"/>
			<point x="353" y="456" type="line"/>
			<point x="362" y="453" type="line"/>
			<point x="263" y="739" type="line"/>
			<point x="252" y="739" type="line"/>
			<point x="150" y="460" type="line"/>
			<point x="147" y="453" type="line"/>
			<point x="157" y="451" type="line"/>
			<point x="65" y="739" type="line"/>
			<point x="36" y="739" type="line"/>
		</contour>
		<contour>
			<point x="-3" y="722" type="line"/>
			<point x="53" y="716" type="line"/>
			<point x="61" y="716" type="line"/>
			<point x="130" y="722" type="line"/>
			<point x="130" y="739" type="line"/>
			<point x="-3" y="739" type="line"/>
		</contour>
		<contour>
			<point x="195" y="722" type="line"/>
			<point x="254" y="716" type="line"/>
			<point x="262" y="716" type="line"/>
			<point x="321" y="722" type="line"/>
			<point x="321" y="739" type="line"/>
			<point x="195" y="739" type="line"/>
		</contour>
		<contour>
			<point x="379" y="722" type="line"/>
			<point x="446" y="716" type="line"/>
			<point x="454" y="716" type="line"/>
			<point x="500" y="722" type="line"/>
			<point x="500" y="739" type="line"/>
			<point x="379" y="739" type="line"/>
		</contour>
	</outline>
</glyph>
<glyph name="y.sups" format="2">
	<unicode hex="02B8"/>
	<advance width="332"/>
	<outline>
		<contour>
			<point x="46" y="263" type="curve" smooth="yes"/>
			<point x="91" y="263"/>
			<point x="131" y="306"/>
			<point x="165" y="396" type="curve" smooth="yes"/>
			<point x="295" y="739" type="line"/>
			<point x="274" y="739" type="line"/>
			<point x="167" y="448" type="line"/>
			<point x="160" y="430" type="line" smooth="yes"/>
			<point x="119" y="318"/>
			<point x="94" y="289"/>
			<point x="44" y="277" type="curve"/>
			<point x="57" y="270" type="line"/>
			<point x="73" y="275" type="line"/>
			<point x="57" y="289" type="line" smooth="yes"/>
			<point x="43" y="300"/>
			<point x="31" y="307"/>
			<point x="19" y="307" type="curve" smooth="yes"/>
			<point x="7" y="307"/>
			<point x="-4" y="301"/>
			<point x="-7" y="289" type="curve"/>
			<point x="-2" y="274"/>
			<point x="20" y="263"/>
		</contour>
		<contour>
			<point x="-5" y="722" type="line"/>
			<point x="57" y="716" type="line"/>
			<point x="65" y="716" type="line"/>
			<point x="134" y="722" type="line"/>
			<point x="134" y="739" type="line"/>
			<point x="-5" y="739" type="line"/>
		</contour>
		<contour>
			<point x="211" y="722" type="line"/>
			<point x="273" y="716" type="line"/>
			<point x="281" y="716" type="line"/>
			<point x="334" y="722" type="line"/>
			<point x="334" y="739" type="line"/>
			<point x="211" y="739" type="line"/>
		</contour>
		<contour>
			<point x="165" y="409" type="line"/>
			<point x="180" y="444" type="line"/>
			<point x="178" y="444" type="line"/>
			<point x="65" y="739" type="line"/>
			<point x="36" y="739" type="line"/>
		</contour>
	</outline>
</glyph>
<glyph name="ringhalfleftmod" format="2">
	<unicode hex="02BF"/>
	<advance width="158"/>
	<outline>
		<contour>
			<point x="32" y="656" type="curve" smooth="yes"/>
			<point x="32" y="603"/>
			<point x="72" y="569"/>
			<point x="126" y="569" type="curve"/>
			<point x="126" y="589" type="line"/>
			<point x="85" y="589"/>
			<point x="58" y="620"/>
			<point x="58" y="656" type="curve" smooth="yes"/>
			<point x="58" y="692"/>
			<point x="85" y="723"/>
			<point x="126" y="723" type="curve"/>
			<point x="126" y="743" type="line"/>
			<point x="72" y="743"/>
			<point x="32" y="709"/>
		</contour>
	</outline>
</glyph>
<glyph name="caron" format="2">
	<unicode hex="02C7"/>
	<advance width="400"/>
	<outline>
		<contour>
			<point x="82" y="716" type="line"/>
			<point x="72" y="706" type="line"/>
			<point x="190" y="570" type="line"/>
			<point x="210" y="570" type="line"/>
			<point x="328" y="706" type="line"/>
			<point x="318" y="716" type="line"/>
			<point x="191" y="599" type="line"/>
			<point x="209" y="599" type="line"/>
		</contour>
	</outline>
</glyph>
<glyph name="breve" format="2">
	<unicode hex="02D8"/>
	<advance width="400"/>
	<outline>
		<contour>
			<point x="59" y="726" type="line"/>
			<point x="71" y="643"/>
			<point x="125" y="585"/>
			<point x="200" y="585" type="curve" smooth="yes"/>
			<point x="275" y="585"/>
			<point x="329" y="643"/>
			<point x="341" y="726" type="curve"/>
			<point x="326" y="730" type="line"/>
			<point x="306" y="661"/>
			<point x="269" y="612"/>
			<point x="200" y="612" type="curve" smooth="yes"/>
			<point x="131" y="612"/>
			<point x="94" y="661"/>
			<point x="74" y="730" type="curve"/>
		</contour>
	</outline>
</glyph>
<glyph name="dotaccent" format="2">
	<unicode hex="02D9"/>
	<advance width="400"/>
	<outline>
		<contour>
			<point x="200" y="625" type="curve" smooth="yes"/>
			<point x="216" y="625"/>
			<point x="232" y="638"/>
			<point x="232" y="657" type="curve" smooth="yes"/>
			<point x="232" y="676"/>
			<point x="216" y="689"/>
			<point x="200" y="689" type="curve" smooth="yes"/>
			<point x="184" y="689"/>
			<point x="168" y="676"/>
			<point x="168" y="657" type="curve" smooth="yes"/>
			<point x="168" y="638"/>
			<point x="184" y="625"/>
		</contour>
	</outline>
</glyph>
<glyph name="ring" format="2">
	<unicode hex="02DA"/>
	<advance width="400"/>
	<outline>
		<contour>
			<point x="200" y="589" type="curve" smooth="yes"/>
			<point x="163" y="589"/>
			<point x="137" y="620"/>
			<point x="137" y="656" type="curve" smooth="yes"/>
			<point x="137" y="692"/>
			<point x="163" y="723"/>
			<point x="200" y="723" type="curve" smooth="yes"/>
			<point x="237" y="723"/>
			<point x="263" y="692"/>
			<point x="263" y="656" type="curve" smooth="yes"/>
			<point x="263" y="620"/>
			<point x="237" y="589"/>
		</contour>
		<contour>
			<point x="200" y="569" type="curve" smooth="yes"/>
			<point x="244" y="569"/>
			<point x="286" y="603"/>
			<point x="286" y="656" type="curve" smooth="yes"/>
			<point x="286" y="709"/>
			<point x="244" y="743"/>
			<point x="200" y="743" type="curve" smooth="yes"/>
			<point x="156" y="743"/>
			<point x="114" y="709"/>
			<point x="114" y="656" type="curve" smooth="yes"/>
			<point x="114" y="603"/>
			<point x="156" y="569"/>
		</contour>
	</outline>
</glyph>
<glyph name="ogonek" format="2">
	<unicode hex="02DB"/>
	<advance width="400"/>
	<outline>
		<contour>
			<point x="199" y="-223" type="curve" smooth="yes"/>
			<point x="232" y="-223"/>
			<point x="254" y="-209"/>
			<point x="273" y="-189" type="curve"/>
			<point x="264" y="-178" type="line"/>
			<point x="243" y="-192"/>
			<point x="228" y="-199"/>
			<point x="208" y="-199" type="curve" smooth="yes"/>
			<point x="175" y="-199"/>
			<point x="151" y="-176"/>
			<point x="151" y="-132" type="curve" smooth="yes"/>
			<point x="151" y="-88"/>
			<point x="177" y="-30"/>
			<point x="217" y="5" type="curve"/>
			<point x="198" y="5" type="line"/>
			<point x="198" y="4" type="line"/>
			<point x="160" y="-28"/>
			<point x="123" y="-84"/>
			<point x="123" y="-143" type="curve" smooth="yes"/>
			<point x="123" y="-195"/>
			<point x="157" y="-223"/>
		</contour>
	</outline>
</glyph>
<glyph name="hungarumlaut" format="2">
	<unicode hex="02DD"/>
	<advance width="400"/>
	<outline>
		<contour>
			<point x="81" y="567" type="line"/>
			<point x="95" y="560" type="line"/>
			<point x="176" y="697" type="line" smooth="yes"/>
			<point x="182" y="708"/>
			<point x="186" y="717"/>
			<point x="186" y="725" type="curve" smooth="yes"/>
			<point x="186" y="734"/>
			<point x="179" y="741"/>
			<point x="170" y="741" type="curve" smooth="yes"/>
			<point x="158" y="741"/>
			<point x="152" y="730"/>
			<point x="144" y="712" type="curve" smooth="yes"/>
		</contour>
		<contour>
			<point x="214" y="567" type="line"/>
			<point x="228" y="560" type="line"/>
			<point x="309" y="697" type="line" smooth="yes"/>
			<point x="315" y="708"/>
			<point x="319" y="717"/>
			<point x="319" y="725" type="curve" smooth="yes"/>
			<point x="319" y="734"/>
			<point x="312" y="741"/>
			<point x="303" y="741" type="curve" smooth="yes"/>
			<point x="291" y="741"/>
			<point x="285" y="730"/>
			<point x="277" y="712" type="curve" smooth="yes"/>
		</contour>
	</outline>
</glyph>
<glyph name="l.sups" format="2">
	<unicode hex="02E1"/>
	<advance width="194"/>
	<outline>
		<contour>
			<point x="22" y="430" type="line"/>
			<point x="175" y="430" type="line"/>
			<point x="175" y="446" type="line"/>
			<point x="102" y="453" type="line"/>
			<point x="95" y="453" type="line"/>
			<point x="22" y="446" type="line"/>
		</contour>
		<contour>
			<point x="86" y="430" type="line"/>
			<point x="112" y="430" type="line"/>
			<point x="112" y="910" type="line"/>
			<point x="103" y="916" type="line"/>
			<point x="27" y="902" type="line"/>
			<point x="27" y="886" type="line"/>
			<point x="86" y="884" type="line"/>
		</contour>
	</outline>
</glyph>
<glyph name="circumflexcmb" format="2">
	<unicode hex="0302"/>
	<outline>
		<contour>
			<point x="109" y="553" type="line"/>
			<point x="120" y="562" type="line"/>
			<point x="7" y="719" type="line"/>
			<point x="-7" y="719" type="line"/>
			<point x="-120" y="562" type="line"/>
			<point x="-109" y="553" type="line"/>
			<point x="7" y="688" type="line"/>
			<point x="-7" y="688" type="line"/>
		</contour>
	</outline>
	<anchor name="_aboveLC" x="0" y="490"/>
	<anchor name="aboveLC" x="0" y="719"/>
</glyph>
<glyph name="tildecmb" format="2">
	<unicode hex="0303"/>
	<outline>
		<contour>
			<point x="-148" y="600" type="curve"/>
			<point x="-133" y="595" type="line"/>
			<point x="-121" y="643"/>
			<point x="-101" y="669"/>
			<point x="-68" y="669" type="curve" smooth="yes"/>
			<point x="-41" y="669"/>
			<point x="-28" y="653"/>
			<point x="-9" y="630" type="curve" smooth="yes"/>
			<point x="8" y="609"/>
			<point x="30" y="588"/>
			<point x="65" y="588" type="curve" smooth="yes"/>
			<point x="110" y="588"/>
			<point x="140" y="626"/>
			<point x="148" y="679" type="curve"/>
			<point x="133" y="684" type="line"/>
			<point x="121" y="636"/>
			<point x="101" y="611"/>
			<point x="68" y="611" type="curve" smooth="yes"/>
			<point x="42" y="611"/>
			<point x="28" y="623"/>
			<point x="10" y="648" type="curve" smooth="yes"/>
			<point x="-7" y="671"/>
			<point x="-32" y="692"/>
			<point x="-65" y="692" type="curve" smooth="yes"/>
			<point x="-110" y="692"/>
			<point x="-140" y="654"/>
		</contour>
	</outline>
	<anchor name="_aboveLC" x="0" y="490"/>
	<anchor name="aboveLC" x="0" y="692"/>
</glyph>
<glyph name="macroncmb" format="2">
	<unicode hex="0304"/>
	<outline>
		<contour>
			<point x="-120" y="631" type="line"/>
			<point x="120" y="631" type="line"/>
			<point x="120" y="657" type="line"/>
			<point x="-120" y="657" type="line"/>
		</contour>
	</outline>
	<anchor name="_aboveLC" x="0" y="490"/>
	<anchor name="aboveLC" x="0" y="657"/>
</glyph>
<glyph name="brevecmb" format="2">
	<unicode hex="0306"/>
	<outline>
		<contour>
			<point x="-141" y="726" type="line"/>
			<point x="-129" y="643"/>
			<point x="-75" y="585"/>
			<point x="0" y="585" type="curve" smooth="yes"/>
			<point x="75" y="585"/>
			<point x="129" y="643"/>
			<point x="141" y="726" type="curve"/>
			<point x="126" y="730" type="line"/>
			<point x="106" y="661"/>
			<point x="69" y="612"/>
			<point x="0" y="612" type="curve" smooth="yes"/>
			<point x="-69" y="612"/>
			<point x="-106" y="661"/>
			<point x="-126" y="730" type="curve"/>
		</contour>
	</outline>
	<anchor name="_aboveLC" x="0" y="490"/>
	<anchor name="aboveLC" x="0" y="730"/>
</glyph>
<glyph name="dieresiscmb" format="2">
	<unicode hex="0308"/>
	<outline>
		<contour>
			<point x="-94" y="644" type="curve" smooth="yes"/>
			<point x="-79" y="644"/>
			<point x="-65" y="655"/>
			<point x="-65" y="674" type="curve" smooth="yes"/>
			<point x="-65" y="692"/>
			<point x="-79" y="703"/>
			<point x="-94" y="703" type="curve" smooth="yes"/>
			<point x="-109" y="703"/>
			<point x="-123" y="692"/>
			<point x="-123" y="674" type="curve" smooth="yes"/>
			<point x="-123" y="655"/>
			<point x="-109" y="644"/>
		</contour>
		<contour>
			<point x="94" y="644" type="curve" smooth="yes"/>
			<point x="109" y="644"/>
			<point x="123" y="655"/>
			<point x="123" y="674" type="curve" smooth="yes"/>
			<point x="123" y="692"/>
			<point x="109" y="703"/>
			<point x="94" y="703" type="curve" smooth="yes"/>
			<point x="79" y="703"/>
			<point x="65" y="692"/>
			<point x="65" y="674" type="curve" smooth="yes"/>
			<point x="65" y="655"/>
			<point x="79" y="644"/>
		</contour>
	</outline>
	<anchor name="_aboveLC" x="0" y="490"/>
	<anchor name="aboveLC" x="0" y="703"/>
</glyph>
<glyph name="hungarumlautcmb" format="2">
	<unicode hex="030B"/>
	<outline>
		<contour>
			<point x="-100" y="567" type="line"/>
			<point x="-86" y="560" type="line"/>
			<point x="-5" y="697" type="line" smooth="yes"/>
			<point x="1" y="708"/>
			<point x="5" y="717"/>
			<point x="5" y="725" type="curve" smooth="yes"/>
			<point x="5" y="734"/>
			<point x="-2" y="741"/>
			<point x="-11" y="741" type="curve" smooth="yes"/>
			<point x="-23" y="741"/>
			<point x="-29" y="730"/>
			<point x="-37" y="712" type="curve" smooth="yes"/>
		</contour>
		<contour>
			<point x="33" y="567" type="line"/>
			<point x="47" y="560" type="line"/>
			<point x="128" y="697" type="line" smooth="yes"/>
			<point x="134" y="708"/>
			<point x="138" y="717"/>
			<point x="138" y="725" type="curve" smooth="yes"/>
			<point x="138" y="734"/>
			<point x="131" y="741"/>
			<point x="122" y="741" type="curve" smooth="yes"/>
			<point x="110" y="741"/>
			<point x="104" y="730"/>
			<point x="96" y="712" type="curve" smooth="yes"/>
		</contour>
	</outline>
	<anchor name="_aboveLC" x="0" y="490"/>
	<anchor name="aboveLC" x="0" y="741"/>
</glyph>
<glyph name="caroncmb" format="2">
	<unicode hex="030C"/>
	<outline>
		<contour>
			<point x="-118" y="716" type="line"/>
			<point x="-128" y="706" type="line"/>
			<point x="-10" y="570" type="line"/>
			<point x="10" y="570" type="line"/>
			<point x="128" y="706" type="line"/>
			<point x="118" y="716" type="line"/>
			<point x="-9" y="599" type="line"/>
			<point x="9" y="599" type="line"/>
		</contour>
	</outline>
	<anchor name="_aboveLC" x="0" y="490"/>
	<anchor name="aboveLC" x="0" y="716"/>
</glyph>
<glyph name="horncmb" format="2">
	<unicode hex="031B"/>
	<outline>
		<contour>
			<point x="0" y="470" type="line"/>
			<point x="86" y="479"/>
			<point x="112" y="548"/>
			<point x="112" y="603" type="curve" smooth="yes"/>
			<point x="112" y="639"/>
			<point x="102" y="665"/>
			<point x="89" y="685" type="curve"/>
			<point x="85" y="688"/>
			<point x="81" y="689"/>
			<point x="76" y="689" type="curve" smooth="yes"/>
			<point x="65" y="689"/>
			<point x="56" y="682"/>
			<point x="56" y="671" type="curve" smooth="yes"/>
			<point x="56" y="652"/>
			<point x="82" y="633"/>
			<point x="82" y="583" type="curve" smooth="yes"/>
			<point x="82" y="542"/>
			<point x="61" y="496"/>
			<point x="0" y="487" type="curve"/>
		</contour>
	</outline>
	<anchor name="_hornLC" x="0" y="470"/>
</glyph>
<glyph name="commabelowcmb" format="2">
	<unicode hex="0326"/>
	<outline>
		<contour>
			<point x="34" y="-107" type="curve" smooth="yes"/>
			<point x="34" y="-89"/>
			<point x="31" y="-83"/>
			<point x="26" y="-74" type="curve"/>
			<point x="19" y="-69"/>
			<point x="13" y="-65"/>
			<point x="2" y="-65" type="curve" smooth="yes"/>
			<point x="-17" y="-65"/>
			<point x="-27" y="-78"/>
			<point x="-27" y="-93" type="curve" smooth="yes"/>
			<point x="-27" y="-109"/>
			<point x="-16" y="-123"/>
			<point x="17" y="-135" type="curve"/>
			<point x="13" y="-117" type="line"/>
			<point x="4" y="-163"/>
			<point x="-14" y="-189"/>
			<point x="-52" y="-209" type="curve"/>
			<point x="-43" y="-229" type="line"/>
			<point x="15" y="-201"/>
			<point x="34" y="-144"/>
		</contour>
	</outline>
	<anchor name="_belowLC" x="0" y="-20"/>
	<anchor name="belowLC" x="0" y="-229"/>
</glyph>
<glyph name="ogonekcmb" format="2">
	<unicode hex="0328"/>
	<outline>
		<contour>
			<point x="-5" y="-223" type="curve" smooth="yes"/>
			<point x="28" y="-223"/>
			<point x="50" y="-209"/>
			<point x="69" y="-189" type="curve"/>
			<point x="60" y="-178" type="line"/>
			<point x="39" y="-192"/>
			<point x="24" y="-199"/>
			<point x="4" y="-199" type="curve" smooth="yes"/>
			<point x="-29" y="-199"/>
			<point x="-53" y="-176"/>
			<point x="-53" y="-132" type="curve" smooth="yes"/>
			<point x="-53" y="-88"/>
			<point x="-27" y="-30"/>
			<point x="13" y="5" type="curve"/>
			<point x="-6" y="5" type="line"/>
			<point x="-6" y="4" type="line"/>
			<point x="-44" y="-28"/>
			<point x="-81" y="-84"/>
			<point x="-81" y="-143" type="curve" smooth="yes"/>
			<point x="-81" y="-195"/>
			<point x="-47" y="-223"/>
		</contour>
	</outline>
	<anchor name="_ogonek" x="0" y="0"/>
</glyph>
<glyph name="Gamma" format="2">
	<unicode hex="0393"/>
	<advance width="559"/>
	<outline>
		<contour>
			<point x="165" y="0" type="curve"/>
			<point x="199" y="0" type="line"/>
			<point x="197" y="102"/>
			<point x="197" y="206"/>
			<point x="197" y="310" type="curve" smooth="yes"/>
			<point x="197" y="367" type="line" smooth="yes"/>
			<point x="197" y="471"/>
			<point x="197" y="574"/>
			<point x="199" y="676" type="curve"/>
			<point x="165" y="676" type="line"/>
			<point x="167" y="574"/>
			<point x="167" y="471"/>
			<point x="167" y="367" type="curve" smooth="yes"/>
			<point x="167" y="310" type="line" smooth="yes"/>
			<point x="167" y="206"/>
			<point x="167" y="102"/>
		</contour>
		<contour>
			<point x="182" y="654" type="line"/>
			<point x="495" y="654" type="line"/>
			<point x="481" y="676" type="line"/>
			<point x="500" y="523" type="line"/>
			<point x="524" y="523" type="line"/>
			<point x="514" y="676" type="line"/>
			<point x="182" y="676" type="line"/>
		</contour>
		<contour>
			<point x="58" y="0" type="line"/>
			<point x="316" y="0" type="line"/>
			<point x="316" y="20" type="line"/>
			<point x="189" y="27" type="line"/>
			<point x="175" y="27" type="line"/>
			<point x="58" y="20" type="line"/>
		</contour>
		<contour>
			<point x="58" y="656" type="line"/>
			<point x="175" y="649" type="line"/>
			<point x="182" y="649" type="line"/>
			<point x="182" y="676" type="line"/>
			<point x="58" y="676" type="line"/>
		</contour>
	</outline>
</glyph>
<glyph name="Lambda" format="2">
	<unicode hex="039B"/>
	<advance width="653"/>
	<outline>
		<contour>
			<point x="12" y="0" type="line"/>
			<point x="210" y="0" type="line"/>
			<point x="210" y="20" type="line"/>
			<point x="113" y="26" type="line"/>
			<point x="99" y="26" type="line"/>
			<point x="12" y="20" type="line"/>
		</contour>
		<contour>
			<point x="85" y="0" type="line"/>
			<point x="114" y="0" type="line"/>
			<point x="320" y="653" type="line"/>
			<point x="324" y="665" type="line"/>
			<point x="306" y="665" type="line"/>
			<point x="524" y="0" type="line"/>
			<point x="556" y="0" type="line"/>
			<point x="327" y="684" type="line"/>
			<point x="307" y="684" type="line"/>
		</contour>
		<contour>
			<point x="403" y="0" type="line"/>
			<point x="651" y="0" type="line"/>
			<point x="651" y="20" type="line"/>
			<point x="537" y="26" type="line"/>
			<point x="523" y="26" type="line"/>
			<point x="403" y="20" type="line"/>
		</contour>
	</outline>
</glyph>
<glyph name="Xi" format="2">
	<unicode hex="039E"/>
	<advance width="591"/>
	<outline>
		<contour>
			<point x="55" y="0" type="line"/>
			<point x="536" y="0" type="line"/>
			<point x="546" y="153" type="line"/>
			<point x="522" y="153" type="line"/>
			<point x="503" y="0" type="line"/>
			<point x="517" y="28" type="line"/>
			<point x="74" y="28" type="line"/>
			<point x="88" y="0" type="line"/>
			<point x="69" y="153" type="line"/>
			<point x="45" y="153" type="line"/>
		</contour>
		<contour>
			<point x="143" y="234" type="line"/>
			<point x="162" y="234" type="line"/>
			<point x="172" y="332" type="line"/>
			<point x="172" y="352" type="line"/>
			<point x="162" y="450" type="line"/>
			<point x="143" y="450" type="line"/>
		</contour>
		<contour>
			<point x="163" y="331" type="line"/>
			<point x="428" y="331" type="line"/>
			<point x="428" y="353" type="line"/>
			<point x="163" y="353" type="line"/>
		</contour>
		<contour>
			<point x="429" y="234" type="line"/>
			<point x="448" y="234" type="line"/>
			<point x="448" y="450" type="line"/>
			<point x="429" y="450" type="line"/>
			<point x="419" y="352" type="line"/>
			<point x="419" y="332" type="line"/>
		</contour>
		<contour>
			<point x="58" y="523" type="line"/>
			<point x="82" y="523" type="line"/>
			<point x="100" y="676" type="line"/>
			<point x="86" y="648" type="line"/>
			<point x="504" y="648" type="line"/>
			<point x="490" y="676" type="line"/>
			<point x="510" y="523" type="line"/>
			<point x="534" y="523" type="line"/>
			<point x="524" y="676" type="line"/>
			<point x="68" y="676" type="line"/>
		</contour>
	</outline>
</glyph>
<glyph name="Sigma" format="2">
	<unicode hex="03A3"/>
	<advance width="555"/>
	<outline>
		<contour>
			<point x="30" y="0" type="line"/>
			<point x="515" y="0" type="line"/>
			<point x="525" y="169" type="line"/>
			<point x="503" y="169" type="line"/>
			<point x="479" y="6" type="line"/>
			<point x="495" y="28" type="line"/>
			<point x="62" y="28" type="line"/>
			<point x="62" y="38" type="line"/>
			<point x="58" y="19" type="line"/>
			<point x="183" y="180" type="line"/>
			<point x="308" y="341" type="line"/>
			<point x="74" y="668" type="line"/>
			<point x="80" y="645" type="line"/>
			<point x="80" y="654" type="line"/>
			<point x="278" y="654" type="line"/>
			<point x="477" y="654" type="line"/>
			<point x="461" y="676" type="line"/>
			<point x="483" y="513" type="line"/>
			<point x="505" y="513" type="line"/>
			<point x="497" y="676" type="line"/>
			<point x="49" y="676" type="line"/>
			<point x="49" y="656" type="line"/>
			<point x="284" y="330" type="line"/>
			<point x="284" y="347" type="line"/>
			<point x="30" y="20" type="line"/>
		</contour>
	</outline>
</glyph>
<glyph name="Omega" format="2">
	<unicode hex="03A9"/>
	<unicode hex="2126"/>
	<advance width="688"/>
	<outline>
		<contour>
			<point x="60" y="0" type="line"/>
			<point x="281" y="0" type="line"/>
			<point x="287" y="106" type="line"/>
			<point x="152" y="165"/>
			<point x="88" y="246"/>
			<point x="88" y="384" type="curve" smooth="yes"/>
			<point x="88" y="591"/>
			<point x="221" y="667"/>
			<point x="344" y="667" type="curve" smooth="yes"/>
			<point x="471" y="667"/>
			<point x="600" y="584"/>
			<point x="600" y="384" type="curve" smooth="yes"/>
			<point x="600" y="246"/>
			<point x="536" y="165"/>
			<point x="401" y="106" type="curve"/>
			<point x="407" y="0" type="line"/>
			<point x="628" y="0" type="line"/>
			<point x="648" y="153" type="line"/>
			<point x="624" y="153" type="line"/>
			<point x="597" y="14" type="line"/>
			<point x="612" y="28" type="line"/>
			<point x="414" y="28" type="line"/>
			<point x="424" y="17" type="line"/>
			<point x="421" y="90" type="line"/>
			<point x="553" y="150"/>
			<point x="632" y="249"/>
			<point x="632" y="383" type="curve" smooth="yes"/>
			<point x="632" y="620"/>
			<point x="465" y="689"/>
			<point x="344" y="689" type="curve" smooth="yes"/>
			<point x="223" y="689"/>
			<point x="56" y="620"/>
			<point x="56" y="383" type="curve" smooth="yes"/>
			<point x="56" y="239"/>
			<point x="142" y="139"/>
			<point x="266" y="90" type="curve"/>
			<point x="263" y="16" type="line"/>
			<point x="275" y="28" type="line"/>
			<point x="71" y="28" type="line"/>
			<point x="91" y="16" type="line"/>
			<point x="64" y="153" type="line"/>
			<point x="40" y="153" type="line"/>
		</contour>
	</outline>
</glyph>
<glyph name="delta" format="2">
	<unicode hex="03B4"/>
	<advance width="503"/>
	<outline>
		<contour>
			<point x="243" y="-13" type="curve" smooth="yes"/>
			<point x="361" y="-13"/>
			<point x="451" y="67"/>
			<point x="451" y="204" type="curve" smooth="yes"/>
			<point x="451" y="311"/>
			<point x="401" y="379"/>
			<point x="278" y="453" type="curve" smooth="yes"/>
			<point x="149" y="530"/>
			<point x="131" y="568"/>
			<point x="131" y="620" type="curve" smooth="yes"/>
			<point x="131" y="687"/>
			<point x="183" y="728"/>
			<point x="271" y="728" type="curve" smooth="yes"/>
			<point x="307" y="728"/>
			<point x="345" y="721"/>
			<point x="376" y="701" type="curve"/>
			<point x="371" y="717" type="line"/>
			<point x="335" y="726" type="line"/>
			<point x="382" y="681" type="line" smooth="yes"/>
			<point x="393" y="670"/>
			<point x="402" y="663"/>
			<point x="415" y="663" type="curve" smooth="yes"/>
			<point x="430" y="663"/>
			<point x="439" y="674"/>
			<point x="436" y="691" type="curve"/>
			<point x="393" y="730"/>
			<point x="331" y="748"/>
			<point x="270" y="748" type="curve" smooth="yes"/>
			<point x="169" y="748"/>
			<point x="105" y="697"/>
			<point x="105" y="619" type="curve" smooth="yes"/>
			<point x="105" y="555"/>
			<point x="134" y="510"/>
			<point x="265" y="436" type="curve" smooth="yes"/>
			<point x="354" y="385"/>
			<point x="422" y="323"/>
			<point x="422" y="203" type="curve" smooth="yes"/>
			<point x="422" y="91"/>
			<point x="355" y="7"/>
			<point x="243" y="7" type="curve" smooth="yes"/>
			<point x="141" y="7"/>
			<point x="72" y="78"/>
			<point x="72" y="192" type="curve" smooth="yes"/>
			<point x="72" y="299"/>
			<point x="120" y="392"/>
			<point x="291" y="433" type="curve"/>
			<point x="273" y="450" type="line"/>
			<point x="273" y="447" type="line"/>
			<point x="142" y="418"/>
			<point x="42" y="339"/>
			<point x="42" y="193" type="curve" smooth="yes"/>
			<point x="42" y="70"/>
			<point x="121" y="-13"/>
		</contour>
	</outline>
</glyph>
<glyph name="epsilon" format="2">
	<unicode hex="03B5"/>
	<advance width="444"/>
	<outline>
		<contour>
			<point x="218" y="-13" type="curve" smooth="yes"/>
			<point x="307" y="-13"/>
			<point x="368" y="20"/>
			<point x="408" y="57" type="curve"/>
			<point x="397" y="69" type="line"/>
			<point x="355" y="39"/>
			<point x="291" y="15"/>
			<point x="231" y="15" type="curve" smooth="yes"/>
			<point x="136" y="15"/>
			<point x="84" y="49"/>
			<point x="84" y="123" type="curve" smooth="yes"/>
			<point x="84" y="180"/>
			<point x="130" y="231"/>
			<point x="272" y="231" type="curve" smooth="yes"/>
			<point x="277" y="231"/>
			<point x="283" y="231"/>
			<point x="300" y="230" type="curve"/>
			<point x="300" y="260" type="line"/>
			<point x="280" y="259"/>
			<point x="269" y="259"/>
			<point x="259" y="259" type="curve" smooth="yes"/>
			<point x="137" y="259"/>
			<point x="100" y="299"/>
			<point x="100" y="358" type="curve" smooth="yes"/>
			<point x="100" y="419"/>
			<point x="147" y="463"/>
			<point x="242" y="463" type="curve" smooth="yes"/>
			<point x="271" y="463"/>
			<point x="287" y="461"/>
			<point x="324" y="452" type="curve"/>
			<point x="328" y="466" type="line"/>
			<point x="290" y="470" type="line"/>
			<point x="339" y="422" type="line" smooth="yes"/>
			<point x="349" y="412"/>
			<point x="356" y="407"/>
			<point x="370" y="407" type="curve" smooth="yes"/>
			<point x="382" y="407"/>
			<point x="397" y="416"/>
			<point x="391" y="437" type="curve"/>
			<point x="351" y="473"/>
			<point x="287" y="483"/>
			<point x="235" y="483" type="curve" smooth="yes"/>
			<point x="128" y="483"/>
			<point x="72" y="423"/>
			<point x="72" y="356" type="curve" smooth="yes"/>
			<point x="72" y="294"/>
			<point x="122" y="242"/>
			<point x="247" y="239" type="curve"/>
			<point x="247" y="244" type="line"/>
			<point x="100" y="243"/>
			<point x="52" y="185"/>
			<point x="52" y="115" type="curve" smooth="yes"/>
			<point x="52" y="40"/>
			<point x="112" y="-13"/>
		</contour>
	</outline>
	<anchor name="aboveLC" x="242" y="490"/>
	<anchor name="belowLC" x="228" y="-20"/>
</glyph>
<glyph name="zeta" format="2">
	<unicode hex="03B6"/>
	<advance width="397"/>
	<outline>
		<contour>
			<point x="315" y="-205" type="curve"/>
			<point x="339" y="-205" type="line"/>
			<point x="363" y="-164"/>
			<point x="377" y="-128"/>
			<point x="377" y="-90" type="curve" smooth="yes"/>
			<point x="377" y="-35"/>
			<point x="361" y="14"/>
			<point x="245" y="40" type="curve" smooth="yes"/>
			<point x="124" y="67"/>
			<point x="80" y="111"/>
			<point x="80" y="187" type="curve" smooth="yes"/>
			<point x="80" y="303"/>
			<point x="156" y="430"/>
			<point x="389" y="723" type="curve"/>
			<point x="389" y="738" type="line"/>
			<point x="90" y="745" type="line"/>
			<point x="90" y="718" type="line"/>
			<point x="364" y="718" type="line"/>
			<point x="364" y="710" type="line"/>
			<point x="367" y="725" type="line"/>
			<point x="112" y="415"/>
			<point x="51" y="278"/>
			<point x="51" y="184" type="curve" smooth="yes"/>
			<point x="51" y="112"/>
			<point x="83" y="47"/>
			<point x="233" y="14" type="curve" smooth="yes"/>
			<point x="343" y="-10"/>
			<point x="351" y="-53"/>
			<point x="351" y="-92" type="curve" smooth="yes"/>
			<point x="351" y="-119"/>
			<point x="339" y="-155"/>
		</contour>
	</outline>
</glyph>
<glyph name="eta" format="2">
	<unicode hex="03B7"/>
	<advance width="534"/>
	<outline>
		<contour>
			<point x="112" y="-2" type="line"/>
			<point x="122" y="-8" type="line"/>
			<point x="144" y="0" type="line"/>
			<point x="142" y="352" type="line"/>
			<point x="142" y="355" type="line" smooth="yes"/>
			<point x="141" y="466"/>
			<point x="119" y="480"/>
			<point x="81" y="480" type="curve" smooth="yes"/>
			<point x="57" y="480"/>
			<point x="40" y="471"/>
			<point x="34" y="464" type="curve"/>
			<point x="39" y="452" type="line"/>
			<point x="48" y="454"/>
			<point x="57" y="455"/>
			<point x="66" y="455" type="curve" smooth="yes"/>
			<point x="103" y="455"/>
			<point x="119" y="437"/>
			<point x="119" y="377" type="curve" smooth="yes"/>
			<point x="117" y="124" type="line"/>
		</contour>
		<contour>
			<point x="422" y="-184" type="line"/>
			<point x="432" y="-190" type="line"/>
			<point x="454" y="-182" type="line"/>
			<point x="450" y="321" type="line" smooth="yes"/>
			<point x="449" y="440"/>
			<point x="387" y="483"/>
			<point x="321" y="483" type="curve" smooth="yes"/>
			<point x="265" y="483"/>
			<point x="161" y="439"/>
			<point x="133" y="331" type="curve"/>
			<point x="131" y="331" type="line"/>
			<point x="138" y="323" type="line"/>
			<point x="178" y="417"/>
			<point x="250" y="451"/>
			<point x="310" y="451" type="curve" smooth="yes"/>
			<point x="382" y="451"/>
			<point x="431" y="408"/>
			<point x="430" y="310" type="curve" smooth="yes"/>
			<point x="427" y="-58" type="line"/>
		</contour>
	</outline>
	<anchor name="aboveLC" x="281" y="490"/>
	<anchor name="belowLC" x="124" y="-20"/>
</glyph>
<glyph name="iota" format="2">
	<unicode hex="03B9"/>
	<advance width="257"/>
	<outline>
		<contour>
			<point x="173" y="-13" type="curve" smooth="yes"/>
			<point x="199" y="-13"/>
			<point x="219" y="4"/>
			<point x="229" y="18" type="curve"/>
			<point x="223" y="31" type="line"/>
			<point x="209" y="22"/>
			<point x="199" y="15"/>
			<point x="177" y="15" type="curve" smooth="yes"/>
			<point x="146" y="15"/>
			<point x="130" y="28"/>
			<point x="130" y="90" type="curve" smooth="yes"/>
			<point x="130" y="172"/>
			<point x="135" y="253"/>
			<point x="142" y="470" type="curve"/>
			<point x="133" y="475" type="line"/>
			<point x="110" y="466" type="line"/>
			<point x="110" y="87" type="line" smooth="yes"/>
			<point x="110" y="7"/>
			<point x="137" y="-13"/>
		</contour>
	</outline>
	<anchor name="aboveLC" x="128" y="490"/>
</glyph>
<glyph name="kappa" format="2">
	<unicode hex="03BA"/>
	<advance width="512"/>
	<outline>
		<contour>
			<point x="120" y="-8" type="line"/>
			<point x="136" y="0" type="line"/>
			<point x="137" y="38"/>
			<point x="138" y="81"/>
			<point x="138" y="125" type="curve"/>
			<point x="135" y="126" type="line"/>
			<point x="138" y="206"/>
			<point x="142" y="287"/>
			<point x="142" y="367" type="curve" smooth="yes"/>
			<point x="142" y="456"/>
			<point x="121" y="480"/>
			<point x="76" y="480" type="curve" smooth="yes"/>
			<point x="57" y="480"/>
			<point x="40" y="471"/>
			<point x="34" y="464" type="curve"/>
			<point x="39" y="452" type="line"/>
			<point x="48" y="454"/>
			<point x="57" y="455"/>
			<point x="66" y="455" type="curve" smooth="yes"/>
			<point x="103" y="455"/>
			<point x="120" y="437"/>
			<point x="119" y="377" type="curve" smooth="yes"/>
			<point x="117" y="161" type="line"/>
			<point x="108" y="-2" type="line"/>
		</contour>
		<contour>
			<point x="132" y="98" type="line"/>
			<point x="179" y="186"/>
			<point x="195" y="211"/>
			<point x="236" y="269" type="curve"/>
			<point x="240" y="274" type="line"/>
			<point x="300" y="357"/>
			<point x="355" y="406"/>
			<point x="411" y="450" type="curve"/>
			<point x="371" y="431" type="line"/>
			<point x="434" y="435" type="line" smooth="yes"/>
			<point x="469" y="437"/>
			<point x="482" y="444"/>
			<point x="482" y="462" type="curve" smooth="yes"/>
			<point x="482" y="476"/>
			<point x="474" y="480"/>
			<point x="465" y="483" type="curve"/>
			<point x="444" y="483"/>
			<point x="407" y="476"/>
			<point x="364" y="438" type="curve" smooth="yes"/>
			<point x="274" y="360"/>
			<point x="192" y="256"/>
			<point x="131" y="130" type="curve"/>
			<point x="127" y="123" type="line"/>
			<point x="121" y="123" type="line"/>
		</contour>
		<contour>
			<point x="437" y="-13" type="curve" smooth="yes"/>
			<point x="461" y="-13"/>
			<point x="484" y="1"/>
			<point x="499" y="16" type="curve"/>
			<point x="493" y="29" type="line"/>
			<point x="480" y="22"/>
			<point x="462" y="17"/>
			<point x="445" y="17" type="curve" smooth="yes"/>
			<point x="401" y="17"/>
			<point x="376" y="64"/>
			<point x="243" y="285" type="curve"/>
			<point x="229" y="274" type="line"/>
			<point x="361" y="33"/>
			<point x="393" y="-13"/>
		</contour>
	</outline>
</glyph>
<glyph name="lambda" format="2">
	<unicode hex="03BB"/>
	<advance width="501"/>
	<outline>
		<contour>
			<point x="25" y="0" type="line"/>
			<point x="51" y="-5" type="line"/>
			<point x="257" y="475" type="line"/>
			<point x="246" y="500" type="line"/>
			<point x="22" y="5" type="line"/>
		</contour>
		<contour>
			<point x="451" y="-13" type="curve" smooth="yes"/>
			<point x="469" y="-13"/>
			<point x="499" y="1"/>
			<point x="511" y="14" type="curve"/>
			<point x="506" y="27" type="line"/>
			<point x="489" y="19"/>
			<point x="467" y="17"/>
			<point x="458" y="17" type="curve" smooth="yes"/>
			<point x="430" y="17"/>
			<point x="419" y="36"/>
			<point x="385" y="135" type="curve" smooth="yes"/>
			<point x="219" y="626" type="line" smooth="yes"/>
			<point x="190" y="713"/>
			<point x="157" y="748"/>
			<point x="108" y="748" type="curve" smooth="yes"/>
			<point x="78" y="748"/>
			<point x="50" y="737"/>
			<point x="20" y="705" type="curve"/>
			<point x="30" y="689" type="line"/>
			<point x="53" y="706"/>
			<point x="74" y="717"/>
			<point x="99" y="717" type="curve" smooth="yes"/>
			<point x="147" y="717"/>
			<point x="176" y="692"/>
			<point x="203" y="611" type="curve" smooth="yes"/>
			<point x="246" y="483" type="line"/>
			<point x="248" y="477" type="line"/>
			<point x="364" y="122" type="line" smooth="yes"/>
			<point x="403" y="4"/>
			<point x="424" y="-13"/>
		</contour>
	</outline>
</glyph>
<glyph name="mu" format="2">
	<unicode hex="03BC"/>
	<unicode hex="00B5"/>
	<advance width="572"/>
	<outline>
		<contour>
			<point x="112" y="-182" type="line"/>
			<point x="122" y="-188" type="line"/>
			<point x="144" y="-180" type="line"/>
			<point x="134" y="72" type="line"/>
			<point x="136" y="85" type="line"/>
			<point x="136" y="185"/>
			<point x="138" y="276"/>
			<point x="142" y="474" type="curve"/>
			<point x="133" y="479" type="line"/>
			<point x="110" y="470" type="line"/>
			<point x="119" y="80" type="line"/>
		</contour>
		<contour>
			<point x="488" y="-13" type="curve" smooth="yes"/>
			<point x="514" y="-13"/>
			<point x="534" y="4"/>
			<point x="544" y="18" type="curve"/>
			<point x="538" y="31" type="line"/>
			<point x="524" y="22"/>
			<point x="514" y="15"/>
			<point x="492" y="15" type="curve" smooth="yes"/>
			<point x="461" y="15"/>
			<point x="445" y="28"/>
			<point x="445" y="90" type="curve" smooth="yes"/>
			<point x="445" y="172"/>
			<point x="450" y="256"/>
			<point x="457" y="474" type="curve"/>
			<point x="448" y="479" type="line"/>
			<point x="425" y="470" type="line"/>
			<point x="427" y="112" type="line"/>
			<point x="427" y="110" type="line" smooth="yes"/>
			<point x="427" y="14"/>
			<point x="449" y="-13"/>
		</contour>
		<contour>
			<point x="263" y="-13" type="curve" smooth="yes"/>
			<point x="345" y="-13"/>
			<point x="406" y="46"/>
			<point x="441" y="133" type="curve"/>
			<point x="443" y="133" type="line"/>
			<point x="434" y="141" type="line"/>
			<point x="391" y="65"/>
			<point x="337" y="15"/>
			<point x="271" y="15" type="curve" smooth="yes"/>
			<point x="211" y="15"/>
			<point x="166" y="39"/>
			<point x="130" y="105" type="curve"/>
			<point x="121" y="88" type="line"/>
			<point x="123" y="88" type="line"/>
			<point x="145" y="22"/>
			<point x="206" y="-13"/>
		</contour>
	</outline>
</glyph>
<glyph name="chi" format="2">
	<unicode hex="03C7"/>
	<advance width="478"/>
	<outline>
		<contour>
			<point x="51" y="-180" type="line"/>
			<point x="74" y="-187" type="line"/>
			<point x="256" y="161" type="line"/>
			<point x="431" y="475" type="line"/>
			<point x="428" y="480" type="line"/>
			<point x="404" y="484" type="line"/>
			<point x="245" y="190" type="line"/>
			<point x="48" y="-175" type="line"/>
		</contour>
		<contour>
			<point x="439" y="-190" type="curve" smooth="yes"/>
			<point x="466" y="-190"/>
			<point x="482" y="-177"/>
			<point x="493" y="-160" type="curve"/>
			<point x="481" y="-143" type="line"/>
			<point x="467" y="-155"/>
			<point x="456" y="-157"/>
			<point x="438" y="-157" type="curve" smooth="yes"/>
			<point x="404" y="-157"/>
			<point x="375" y="-125"/>
			<point x="342" y="-39" type="curve" smooth="yes"/>
			<point x="258" y="176" type="line"/>
			<point x="244" y="159" type="line"/>
			<point x="247" y="159" type="line"/>
			<point x="325" y="-48" type="line" smooth="yes"/>
			<point x="364" y="-151"/>
			<point x="393" y="-190"/>
		</contour>
		<contour>
			<point x="242" y="174" type="line"/>
			<point x="256" y="193" type="line"/>
			<point x="252" y="193" type="line"/>
			<point x="186" y="362" type="line" smooth="yes"/>
			<point x="152" y="449"/>
			<point x="120" y="481"/>
			<point x="72" y="481" type="curve" smooth="yes"/>
			<point x="40" y="481"/>
			<point x="16" y="465"/>
			<point x="5" y="450" type="curve"/>
			<point x="13" y="433" type="line"/>
			<point x="26" y="442"/>
			<point x="44" y="449"/>
			<point x="66" y="449" type="curve" smooth="yes"/>
			<point x="110" y="449"/>
			<point x="138" y="425"/>
			<point x="171" y="346" type="curve" smooth="yes"/>
		</contour>
	</outline>
</glyph>
<glyph name="omega" format="2">
	<unicode hex="03C9"/>
	<advance width="725"/>
	<outline>
		<contour>
			<point x="223" y="-13" type="curve" smooth="yes"/>
			<point x="303" y="-13"/>
			<point x="360" y="45"/>
			<point x="369" y="112" type="curve"/>
			<point x="356" y="112" type="line"/>
			<point x="374" y="28"/>
			<point x="418" y="-13"/>
			<point x="499" y="-13" type="curve" smooth="yes"/>
			<point x="575" y="-13"/>
			<point x="665" y="32"/>
			<point x="665" y="206" type="curve" smooth="yes"/>
			<point x="665" y="327"/>
			<point x="621" y="417"/>
			<point x="526" y="471" type="curve"/>
			<point x="515" y="456" type="line"/>
			<point x="600" y="400"/>
			<point x="635" y="320"/>
			<point x="635" y="201" type="curve" smooth="yes"/>
			<point x="635" y="54"/>
			<point x="566" y="8"/>
			<point x="502" y="8" type="curve" smooth="yes"/>
			<point x="415" y="8"/>
			<point x="374" y="59"/>
			<point x="374" y="152" type="curve" smooth="yes"/>
			<point x="374" y="203"/>
			<point x="380" y="229"/>
			<point x="383" y="307" type="curve"/>
			<point x="377" y="311" type="line"/>
			<point x="347" y="306" type="line"/>
			<point x="347" y="230"/>
			<point x="351" y="203"/>
			<point x="351" y="145" type="curve" smooth="yes"/>
			<point x="351" y="60"/>
			<point x="298" y="8"/>
			<point x="223" y="8" type="curve" smooth="yes"/>
			<point x="152" y="8"/>
			<point x="90" y="58"/>
			<point x="90" y="200" type="curve" smooth="yes"/>
			<point x="90" y="319"/>
			<point x="131" y="402"/>
			<point x="220" y="456" type="curve"/>
			<point x="209" y="471" type="line"/>
			<point x="114" y="417"/>
			<point x="60" y="321"/>
			<point x="60" y="200" type="curve" smooth="yes"/>
			<point x="60" y="48"/>
			<point x="139" y="-13"/>
		</contour>
	</outline>
	<anchor name="aboveLC" x="368" y="490"/>
	<anchor name="belowLC" x="359" y="-20"/>
</glyph>
<glyph name="kai" format="2">
	<unicode hex="03D7"/>
	<advance width="566"/>
	<outline>
		<contour>
			<point x="277" y="-195" type="curve" smooth="yes"/>
			<point x="392" y="-195"/>
			<point x="478" y="-133"/>
			<point x="553" y="16" type="curve"/>
			<point x="547" y="29" type="line"/>
			<point x="534" y="22"/>
			<point x="515" y="17"/>
			<point x="498" y="17" type="curve" smooth="yes"/>
			<point x="454" y="17"/>
			<point x="429" y="64"/>
			<point x="296" y="285" type="curve"/>
			<point x="282" y="274" type="line"/>
			<point x="414" y="33"/>
			<point x="446" y="-13"/>
			<point x="490" y="-13" type="curve" smooth="yes"/>
			<point x="503" y="-13"/>
			<point x="515" y="-11"/>
			<point x="531" y="-2" type="curve"/>
			<point x="532" y="3" type="line"/>
			<point x="525" y="3" type="line"/>
			<point x="460" y="-108"/>
			<point x="386" y="-165"/>
			<point x="279" y="-165" type="curve" smooth="yes"/>
			<point x="145" y="-165"/>
			<point x="64" y="-99"/>
			<point x="41" y="23" type="curve"/>
			<point x="23" y="20" type="line"/>
			<point x="41" y="-107"/>
			<point x="126" y="-195"/>
		</contour>
		<contour>
			<point x="173" y="-8" type="line"/>
			<point x="189" y="0" type="line"/>
			<point x="190" y="38"/>
			<point x="191" y="81"/>
			<point x="191" y="125" type="curve"/>
			<point x="188" y="126" type="line"/>
			<point x="191" y="206"/>
			<point x="195" y="287"/>
			<point x="195" y="367" type="curve" smooth="yes"/>
			<point x="195" y="456"/>
			<point x="174" y="480"/>
			<point x="129" y="480" type="curve" smooth="yes"/>
			<point x="110" y="480"/>
			<point x="93" y="471"/>
			<point x="87" y="464" type="curve"/>
			<point x="92" y="452" type="line"/>
			<point x="101" y="454"/>
			<point x="110" y="455"/>
			<point x="119" y="455" type="curve" smooth="yes"/>
			<point x="156" y="455"/>
			<point x="173" y="437"/>
			<point x="172" y="377" type="curve" smooth="yes"/>
			<point x="170" y="161" type="line"/>
			<point x="161" y="-2" type="line"/>
		</contour>
		<contour>
			<point x="185" y="98" type="line"/>
			<point x="232" y="186"/>
			<point x="248" y="211"/>
			<point x="289" y="269" type="curve"/>
			<point x="293" y="274" type="line"/>
			<point x="353" y="357"/>
			<point x="408" y="406"/>
			<point x="464" y="450" type="curve"/>
			<point x="424" y="431" type="line"/>
			<point x="487" y="435" type="line" smooth="yes"/>
			<point x="522" y="437"/>
			<point x="535" y="444"/>
			<point x="535" y="462" type="curve" smooth="yes"/>
			<point x="535" y="476"/>
			<point x="527" y="480"/>
			<point x="518" y="483" type="curve"/>
			<point x="497" y="483"/>
			<point x="460" y="476"/>
			<point x="417" y="438" type="curve" smooth="yes"/>
			<point x="327" y="360"/>
			<point x="245" y="256"/>
			<point x="184" y="130" type="curve"/>
			<point x="180" y="123" type="line"/>
			<point x="174" y="123" type="line"/>
		</contour>
	</outline>
</glyph>
<glyph name="Dje" format="2">
	<unicode hex="0402"/>
	<advance width="708"/>
	<outline>
		<contour>
			<point x="20" y="513" type="line"/>
			<point x="44" y="513" type="line"/>
			<point x="63" y="676" type="line"/>
			<point x="49" y="654" type="line"/>
			<point x="535" y="654" type="line"/>
			<point x="521" y="676" type="line"/>
			<point x="540" y="513" type="line"/>
			<point x="564" y="513" type="line"/>
			<point x="554" y="676" type="line"/>
			<point x="30" y="676" type="line"/>
		</contour>
		<contour>
			<point x="260" y="0" type="curve"/>
			<point x="294" y="0" type="line"/>
			<point x="292" y="102"/>
			<point x="292" y="206"/>
			<point x="292" y="310" type="curve" smooth="yes"/>
			<point x="292" y="354" type="line" smooth="yes"/>
			<point x="292" y="471"/>
			<point x="292" y="574"/>
			<point x="294" y="676" type="curve"/>
			<point x="260" y="676" type="line"/>
			<point x="262" y="574"/>
			<point x="262" y="471"/>
			<point x="262" y="367" type="curve" smooth="yes"/>
			<point x="262" y="310" type="line" smooth="yes"/>
			<point x="262" y="206"/>
			<point x="262" y="102"/>
		</contour>
		<contour>
			<point x="451" y="-59" type="line"/>
			<point x="564" y="-47"/>
			<point x="635" y="51"/>
			<point x="635" y="176" type="curve" smooth="yes"/>
			<point x="635" y="312"/>
			<point x="582" y="382"/>
			<point x="408" y="382" type="curve" smooth="yes"/>
			<point x="365" y="382"/>
			<point x="323" y="380"/>
			<point x="277" y="371" type="curve"/>
			<point x="277" y="351" type="line"/>
			<point x="319" y="360"/>
			<point x="357" y="362"/>
			<point x="396" y="362" type="curve" smooth="yes"/>
			<point x="567" y="362"/>
			<point x="605" y="299"/>
			<point x="605" y="176" type="curve" smooth="yes"/>
			<point x="605" y="59"/>
			<point x="552" y="-23"/>
			<point x="447" y="-41" type="curve"/>
		</contour>
		<contour>
			<point x="143" y="0" type="line"/>
			<point x="276" y="0" type="line"/>
			<point x="276" y="27" type="line"/>
			<point x="270" y="27" type="line"/>
			<point x="143" y="20" type="line"/>
		</contour>
	</outline>
</glyph>
<glyph name="Lje" format="2">
	<unicode hex="0409"/>
	<advance width="880"/>
	<outline>
		<contour>
			<point x="60" y="-13" type="curve" smooth="yes"/>
			<point x="128" y="-13"/>
			<point x="194" y="47"/>
			<point x="236" y="204" type="curve" smooth="yes"/>
			<point x="279" y="364"/>
			<point x="294" y="518"/>
			<point x="303" y="676" type="curve"/>
			<point x="278" y="676" type="line"/>
			<point x="269" y="519"/>
			<point x="255" y="368"/>
			<point x="212" y="211" type="curve" smooth="yes"/>
			<point x="175" y="75"/>
			<point x="135" y="42"/>
			<point x="81" y="15" type="curve"/>
			<point x="81" y="10" type="line"/>
			<point x="99" y="10" type="line"/>
			<point x="99" y="14" type="line"/>
			<point x="75" y="35"/>
			<point x="72" y="46"/>
			<point x="47" y="46" type="curve" smooth="yes"/>
			<point x="33" y="46"/>
			<point x="18" y="40"/>
			<point x="10" y="25" type="curve"/>
			<point x="10" y="3"/>
			<point x="27" y="-13"/>
		</contour>
		<contour>
			<point x="282" y="649" type="line"/>
			<point x="289" y="649" type="line"/>
			<point x="289" y="676" type="line"/>
			<point x="175" y="676" type="line"/>
			<point x="175" y="656" type="line"/>
		</contour>
		<contour>
			<point x="289" y="654" type="line"/>
			<point x="501" y="654" type="line"/>
			<point x="501" y="676" type="line"/>
			<point x="289" y="676" type="line"/>
		</contour>
		<contour>
			<point x="376" y="0" type="line"/>
			<point x="500" y="0" type="line"/>
			<point x="500" y="27" type="line"/>
			<point x="493" y="27" type="line"/>
			<point x="376" y="20" type="line"/>
		</contour>
		<contour>
			<point x="483" y="0" type="curve"/>
			<point x="517" y="0" type="line"/>
			<point x="515" y="102"/>
			<point x="515" y="206"/>
			<point x="515" y="310" type="curve" smooth="yes"/>
			<point x="515" y="360" type="line" smooth="yes"/>
			<point x="515" y="471"/>
			<point x="515" y="574"/>
			<point x="517" y="676" type="curve"/>
			<point x="483" y="676" type="line"/>
			<point x="485" y="574"/>
			<point x="485" y="471"/>
			<point x="485" y="367" type="curve" smooth="yes"/>
			<point x="485" y="310" type="line" smooth="yes"/>
			<point x="485" y="204"/>
			<point x="485" y="102"/>
		</contour>
		<contour>
			<point x="500" y="0" type="line"/>
			<point x="628" y="0" type="line" smooth="yes"/>
			<point x="762" y="0"/>
			<point x="848" y="72"/>
			<point x="848" y="193" type="curve" smooth="yes"/>
			<point x="848" y="304"/>
			<point x="771" y="378"/>
			<point x="616" y="378" type="curve" smooth="yes"/>
			<point x="578" y="378"/>
			<point x="541" y="375"/>
			<point x="500" y="367" type="curve"/>
			<point x="500" y="347" type="line"/>
			<point x="537" y="355"/>
			<point x="570" y="358"/>
			<point x="604" y="358" type="curve" smooth="yes"/>
			<point x="758" y="358"/>
			<point x="818" y="292"/>
			<point x="818" y="193" type="curve" smooth="yes"/>
			<point x="818" y="82"/>
			<point x="751" y="22"/>
			<point x="623" y="22" type="curve" smooth="yes"/>
			<point x="500" y="22" type="line"/>
		</contour>
		<contour>
			<point x="501" y="649" type="line"/>
			<point x="508" y="649" type="line"/>
			<point x="625" y="656" type="line"/>
			<point x="625" y="676" type="line"/>
			<point x="501" y="676" type="line"/>
		</contour>
	</outline>
</glyph>
<glyph name="Nje" format="2">
	<unicode hex="040A"/>
	<advance width="978"/>
	<outline>
		<contour>
			<point x="58" y="0" type="line"/>
			<point x="306" y="0" type="line"/>
			<point x="306" y="20" type="line"/>
			<point x="189" y="27" type="line"/>
			<point x="175" y="27" type="line"/>
			<point x="58" y="20" type="line"/>
		</contour>
		<contour>
			<point x="165" y="0" type="curve"/>
			<point x="199" y="0" type="line"/>
			<point x="197" y="102"/>
			<point x="197" y="206"/>
			<point x="197" y="310" type="curve" smooth="yes"/>
			<point x="197" y="367" type="line" smooth="yes"/>
			<point x="197" y="471"/>
			<point x="197" y="574"/>
			<point x="199" y="676" type="curve"/>
			<point x="165" y="676" type="line"/>
			<point x="167" y="574"/>
			<point x="167" y="471"/>
			<point x="167" y="367" type="curve" smooth="yes"/>
			<point x="167" y="310" type="line" smooth="yes"/>
			<point x="167" y="206"/>
			<point x="167" y="102"/>
		</contour>
		<contour>
			<point x="175" y="649" type="line"/>
			<point x="189" y="649" type="line"/>
			<point x="306" y="656" type="line"/>
			<point x="306" y="676" type="line"/>
			<point x="58" y="676" type="line"/>
			<point x="58" y="656" type="line"/>
		</contour>
		<contour>
			<point x="182" y="349" type="line"/>
			<point x="577" y="349" type="line"/>
			<point x="577" y="371" type="line"/>
			<point x="182" y="371" type="line"/>
		</contour>
		<contour>
			<point x="452" y="0" type="line"/>
			<point x="576" y="0" type="line"/>
			<point x="576" y="27" type="line"/>
			<point x="569" y="27" type="line"/>
			<point x="452" y="20" type="line"/>
		</contour>
		<contour>
			<point x="559" y="0" type="curve"/>
			<point x="593" y="0" type="line"/>
			<point x="591" y="102"/>
			<point x="591" y="206"/>
			<point x="591" y="310" type="curve" smooth="yes"/>
			<point x="591" y="362" type="line" smooth="yes"/>
			<point x="591" y="471"/>
			<point x="591" y="574"/>
			<point x="593" y="676" type="curve"/>
			<point x="559" y="676" type="line"/>
			<point x="561" y="574"/>
			<point x="561" y="471"/>
			<point x="561" y="367" type="curve" smooth="yes"/>
			<point x="561" y="310" type="line" smooth="yes"/>
			<point x="561" y="206"/>
			<point x="561" y="102"/>
		</contour>
		<contour>
			<point x="569" y="649" type="line"/>
			<point x="583" y="649" type="line"/>
			<point x="710" y="656" type="line"/>
			<point x="710" y="676" type="line"/>
			<point x="452" y="676" type="line"/>
			<point x="452" y="656" type="line"/>
		</contour>
		<contour>
			<point x="577" y="0" type="line"/>
			<point x="736" y="0" type="line" smooth="yes"/>
			<point x="865" y="0"/>
			<point x="948" y="70"/>
			<point x="948" y="189" type="curve" smooth="yes"/>
			<point x="948" y="302"/>
			<point x="874" y="378"/>
			<point x="728" y="378" type="curve" smooth="yes"/>
			<point x="679" y="378"/>
			<point x="622" y="375"/>
			<point x="577" y="370" type="curve"/>
			<point x="577" y="350" type="line"/>
			<point x="618" y="355"/>
			<point x="677" y="358"/>
			<point x="716" y="358" type="curve" smooth="yes"/>
			<point x="861" y="358"/>
			<point x="918" y="290"/>
			<point x="918" y="189" type="curve" smooth="yes"/>
			<point x="918" y="80"/>
			<point x="853" y="22"/>
			<point x="731" y="22" type="curve" smooth="yes"/>
			<point x="577" y="22" type="line"/>
		</contour>
	</outline>
</glyph>
<glyph name="Ze" format="2">
	<unicode hex="0417"/>
	<advance width="538"/>
	<outline>
		<contour>
			<point x="245" y="-13" type="curve" smooth="yes"/>
			<point x="398" y="-13"/>
			<point x="488" y="68"/>
			<point x="488" y="175" type="curve" smooth="yes"/>
			<point x="488" y="273"/>
			<point x="426" y="355"/>
			<point x="264" y="357" type="curve"/>
			<point x="264" y="349" type="line"/>
			<point x="396" y="360"/>
			<point x="463" y="433"/>
			<point x="463" y="518" type="curve" smooth="yes"/>
			<point x="463" y="621"/>
			<point x="407" y="689"/>
			<point x="260" y="689" type="curve" smooth="yes"/>
			<point x="183" y="689"/>
			<point x="127" y="675"/>
			<point x="69" y="641" type="curve"/>
			<point x="72" y="521" type="line"/>
			<point x="94" y="521" type="line"/>
			<point x="104" y="646" type="line"/>
			<point x="89" y="640" type="line"/>
			<point x="89" y="628" type="line"/>
			<point x="134" y="656"/>
			<point x="191" y="667"/>
			<point x="257" y="667" type="curve" smooth="yes"/>
			<point x="394" y="667"/>
			<point x="435" y="604"/>
			<point x="435" y="521" type="curve" smooth="yes"/>
			<point x="435" y="424"/>
			<point x="362" y="363"/>
			<point x="224" y="363" type="curve" smooth="yes"/>
			<point x="208" y="363" type="line"/>
			<point x="208" y="343" type="line"/>
			<point x="237" y="343" type="line" smooth="yes"/>
			<point x="399" y="343"/>
			<point x="458" y="277"/>
			<point x="458" y="178" type="curve" smooth="yes"/>
			<point x="458" y="74"/>
			<point x="368" y="9"/>
			<point x="243" y="9" type="curve" smooth="yes"/>
			<point x="172" y="9"/>
			<point x="130" y="21"/>
			<point x="94" y="57" type="curve"/>
			<point x="113" y="33" type="line"/>
			<point x="81" y="109" type="line" smooth="yes"/>
			<point x="76" y="120"/>
			<point x="69" y="125"/>
			<point x="60" y="125" type="curve" smooth="yes"/>
			<point x="48" y="125"/>
			<point x="40" y="117"/>
			<point x="40" y="106" type="curve"/>
			<point x="67" y="38"/>
			<point x="114" y="-13"/>
		</contour>
	</outline>
	<anchor name="aboveUC" x="270" y="696"/>
</glyph>
<glyph name="Ucyr" format="2">
	<unicode hex="0423"/>
	<advance width="632"/>
	<outline>
		<contour>
			<point x="87" y="-18" type="curve"/>
			<point x="91" y="-43"/>
			<point x="113" y="-53"/>
			<point x="139" y="-53" type="curve" smooth="yes"/>
			<point x="205" y="-53"/>
			<point x="263" y="4"/>
			<point x="332" y="165" type="curve" smooth="yes"/>
			<point x="550" y="676" type="line"/>
			<point x="521" y="676" type="line"/>
			<point x="405" y="395" type="line"/>
			<point x="302" y="145" type="line"/>
			<point x="301" y="145" type="line"/>
			<point x="265" y="57"/>
			<point x="208" y="-17"/>
			<point x="152" y="-28" type="curve"/>
			<point x="167" y="-41" type="line"/>
			<point x="194" y="-30" type="line"/>
			<point x="162" y="0"/>
			<point x="147" y="6"/>
			<point x="127" y="6" type="curve" smooth="yes"/>
			<point x="109" y="6"/>
			<point x="93" y="-2"/>
		</contour>
		<contour>
			<point x="-10" y="656" type="line"/>
			<point x="82" y="649" type="line"/>
			<point x="96" y="649" type="line"/>
			<point x="208" y="656" type="line"/>
			<point x="208" y="676" type="line"/>
			<point x="-10" y="676" type="line"/>
		</contour>
		<contour>
			<point x="409" y="656" type="line"/>
			<point x="515" y="649" type="line"/>
			<point x="529" y="649" type="line"/>
			<point x="622" y="656" type="line"/>
			<point x="622" y="676" type="line"/>
			<point x="409" y="676" type="line"/>
		</contour>
		<contour>
			<point x="296" y="106" type="line"/>
			<point x="310" y="137" type="line"/>
			<point x="92" y="676" type="line"/>
			<point x="58" y="676" type="line"/>
		</contour>
	</outline>
	<anchor name="aboveUC" x="313" y="696"/>
</glyph>
<glyph name="Tse" format="2">
	<unicode hex="0426"/>
	<advance width="766"/>
	<outline>
		<contour>
			<point x="165" y="0" type="curve"/>
			<point x="199" y="0" type="line"/>
			<point x="197" y="102"/>
			<point x="197" y="206"/>
			<point x="197" y="310" type="curve" smooth="yes"/>
			<point x="197" y="367" type="line" smooth="yes"/>
			<point x="197" y="473"/>
			<point x="197" y="574"/>
			<point x="199" y="676" type="curve"/>
			<point x="165" y="676" type="line"/>
			<point x="167" y="574"/>
			<point x="167" y="471"/>
			<point x="167" y="367" type="curve" smooth="yes"/>
			<point x="167" y="310" type="line" smooth="yes"/>
			<point x="167" y="206"/>
			<point x="167" y="102"/>
		</contour>
		<contour>
			<point x="579" y="0" type="curve"/>
			<point x="613" y="0" type="line"/>
			<point x="611" y="102"/>
			<point x="611" y="206"/>
			<point x="611" y="310" type="curve" smooth="yes"/>
			<point x="611" y="367" type="line" smooth="yes"/>
			<point x="611" y="473"/>
			<point x="611" y="574"/>
			<point x="613" y="676" type="curve"/>
			<point x="579" y="676" type="line"/>
			<point x="581" y="574"/>
			<point x="581" y="471"/>
			<point x="581" y="367" type="curve" smooth="yes"/>
			<point x="581" y="310" type="line" smooth="yes"/>
			<point x="581" y="206"/>
			<point x="581" y="102"/>
		</contour>
		<contour>
			<point x="182" y="0" type="line"/>
			<point x="700" y="0" type="line"/>
			<point x="686" y="12" type="line"/>
			<point x="698" y="-184" type="line"/>
			<point x="720" y="-184" type="line"/>
			<point x="720" y="22" type="line"/>
			<point x="182" y="22" type="line"/>
		</contour>
		<contour>
			<point x="58" y="656" type="line"/>
			<point x="175" y="649" type="line"/>
			<point x="189" y="649" type="line"/>
			<point x="306" y="656" type="line"/>
			<point x="306" y="676" type="line"/>
			<point x="58" y="676" type="line"/>
		</contour>
		<contour>
			<point x="473" y="656" type="line"/>
			<point x="590" y="649" type="line"/>
			<point x="604" y="649" type="line"/>
			<point x="721" y="656" type="line"/>
			<point x="721" y="676" type="line"/>
			<point x="473" y="676" type="line"/>
		</contour>
		<contour>
			<point x="58" y="0" type="line"/>
			<point x="182" y="0" type="line"/>
			<point x="182" y="27" type="line"/>
			<point x="175" y="27" type="line"/>
			<point x="58" y="20" type="line"/>
		</contour>
	</outline>
	<anchor name="aboveUC" x="389" y="696"/>
</glyph>
<glyph name="Che" format="2">
	<unicode hex="0427"/>
	<advance width="711"/>
	<outline>
		<contour>
			<point x="152" y="649" type="line"/>
			<point x="166" y="649" type="line"/>
			<point x="283" y="656" type="line"/>
			<point x="283" y="676" type="line"/>
			<point x="45" y="676" type="line"/>
			<point x="45" y="656" type="line"/>
		</contour>
		<contour>
			<point x="334" y="293" type="curve" smooth="yes"/>
			<point x="384" y="293"/>
			<point x="459" y="304"/>
			<point x="530" y="316" type="curve"/>
			<point x="530" y="335" type="line"/>
			<point x="457" y="325"/>
			<point x="395" y="319"/>
			<point x="339" y="319" type="curve" smooth="yes"/>
			<point x="220" y="319"/>
			<point x="174" y="356"/>
			<point x="174" y="502" type="curve" smooth="yes"/>
			<point x="174" y="553"/>
			<point x="175" y="622"/>
			<point x="176" y="676" type="curve"/>
			<point x="145" y="676" type="line"/>
			<point x="144" y="612"/>
			<point x="144" y="548"/>
			<point x="144" y="484" type="curve" smooth="yes"/>
			<point x="144" y="324"/>
			<point x="214" y="293"/>
		</contour>
		<contour>
			<point x="405" y="0" type="line"/>
			<point x="653" y="0" type="line"/>
			<point x="653" y="20" type="line"/>
			<point x="537" y="27" type="line"/>
			<point x="523" y="27" type="line"/>
			<point x="405" y="20" type="line"/>
		</contour>
		<contour>
			<point x="512" y="0" type="curve"/>
			<point x="546" y="0" type="line"/>
			<point x="544" y="102"/>
			<point x="544" y="206"/>
			<point x="544" y="310" type="curve" smooth="yes"/>
			<point x="544" y="367" type="line" smooth="yes"/>
			<point x="544" y="471"/>
			<point x="544" y="574"/>
			<point x="546" y="676" type="curve"/>
			<point x="512" y="676" type="line"/>
			<point x="514" y="574"/>
			<point x="514" y="471"/>
			<point x="514" y="367" type="curve" smooth="yes"/>
			<point x="514" y="323" type="line" smooth="yes"/>
			<point x="514" y="206"/>
			<point x="514" y="102"/>
		</contour>
		<contour>
			<point x="523" y="649" type="line"/>
			<point x="537" y="649" type="line"/>
			<point x="653" y="656" type="line"/>
			<point x="653" y="676" type="line"/>
			<point x="405" y="676" type="line"/>
			<point x="405" y="656" type="line"/>
		</contour>
	</outline>
	<anchor name="aboveUC" x="349" y="696"/>
</glyph>
<glyph name="Shcha" format="2">
	<unicode hex="0429"/>
	<advance width="1051"/>
	<outline>
		<contour>
			<point x="165" y="0" type="curve"/>
			<point x="199" y="0" type="line"/>
			<point x="197" y="102"/>
			<point x="197" y="206"/>
			<point x="197" y="321" type="curve" smooth="yes"/>
			<point x="197" y="363" type="line" smooth="yes"/>
			<point x="197" y="473"/>
			<point x="197" y="574"/>
			<point x="199" y="676" type="curve"/>
			<point x="165" y="676" type="line"/>
			<point x="167" y="574"/>
			<point x="167" y="471"/>
			<point x="167" y="363" type="curve" smooth="yes"/>
			<point x="167" y="321" type="line" smooth="yes"/>
			<point x="167" y="206"/>
			<point x="167" y="102"/>
		</contour>
		<contour>
			<point x="515" y="0" type="curve"/>
			<point x="549" y="0" type="line"/>
			<point x="547" y="102"/>
			<point x="547" y="206"/>
			<point x="547" y="321" type="curve" smooth="yes"/>
			<point x="547" y="363" type="line" smooth="yes"/>
			<point x="547" y="471"/>
			<point x="547" y="574"/>
			<point x="549" y="676" type="curve"/>
			<point x="515" y="676" type="line"/>
			<point x="517" y="574"/>
			<point x="517" y="471"/>
			<point x="517" y="363" type="curve" smooth="yes"/>
			<point x="517" y="321" type="line" smooth="yes"/>
			<point x="517" y="206"/>
			<point x="517" y="102"/>
		</contour>
		<contour>
			<point x="865" y="0" type="curve"/>
			<point x="899" y="0" type="line"/>
			<point x="897" y="102"/>
			<point x="897" y="206"/>
			<point x="897" y="321" type="curve" smooth="yes"/>
			<point x="897" y="363" type="line" smooth="yes"/>
			<point x="897" y="471"/>
			<point x="897" y="574"/>
			<point x="899" y="676" type="curve"/>
			<point x="865" y="676" type="line"/>
			<point x="867" y="574"/>
			<point x="867" y="471"/>
			<point x="867" y="363" type="curve" smooth="yes"/>
			<point x="867" y="321" type="line" smooth="yes"/>
			<point x="867" y="206"/>
			<point x="867" y="102"/>
		</contour>
		<contour>
			<point x="182" y="0" type="line"/>
			<point x="986" y="0" type="line"/>
			<point x="972" y="12" type="line"/>
			<point x="984" y="-184" type="line"/>
			<point x="1006" y="-184" type="line"/>
			<point x="1006" y="22" type="line"/>
			<point x="182" y="22" type="line"/>
		</contour>
		<contour>
			<point x="58" y="656" type="line"/>
			<point x="175" y="649" type="line"/>
			<point x="189" y="649" type="line"/>
			<point x="306" y="656" type="line"/>
			<point x="306" y="676" type="line"/>
			<point x="58" y="676" type="line"/>
		</contour>
		<contour>
			<point x="409" y="656" type="line"/>
			<point x="526" y="649" type="line"/>
			<point x="540" y="649" type="line"/>
			<point x="657" y="656" type="line"/>
			<point x="657" y="676" type="line"/>
			<point x="409" y="676" type="line"/>
		</contour>
		<contour>
			<point x="758" y="656" type="line"/>
			<point x="875" y="649" type="line"/>
			<point x="889" y="649" type="line"/>
			<point x="1006" y="656" type="line"/>
			<point x="1006" y="676" type="line"/>
			<point x="758" y="676" type="line"/>
		</contour>
		<contour>
			<point x="58" y="0" type="line"/>
			<point x="182" y="0" type="line"/>
			<point x="182" y="27" type="line"/>
			<point x="175" y="27" type="line"/>
			<point x="58" y="20" type="line"/>
		</contour>
	</outline>
</glyph>
<glyph name="Yu" format="2">
	<unicode hex="042E"/>
	<advance width="971"/>
	<outline>
		<contour>
			<point x="165" y="0" type="curve"/>
			<point x="197" y="0" type="line"/>
			<point x="195" y="102"/>
			<point x="195" y="206"/>
			<point x="195" y="352" type="curve" smooth="yes"/>
			<point x="195" y="363" type="line" smooth="yes"/>
			<point x="195" y="471"/>
			<point x="195" y="574"/>
			<point x="197" y="676" type="curve"/>
			<point x="165" y="676" type="line"/>
			<point x="167" y="574"/>
			<point x="167" y="471"/>
			<point x="167" y="367" type="curve" smooth="yes"/>
			<point x="167" y="310" type="line" smooth="yes"/>
			<point x="167" y="206"/>
			<point x="167" y="102"/>
		</contour>
		<contour>
			<point x="58" y="0" type="line"/>
			<point x="304" y="0" type="line"/>
			<point x="304" y="20" type="line"/>
			<point x="189" y="27" type="line"/>
			<point x="175" y="27" type="line"/>
			<point x="58" y="20" type="line"/>
		</contour>
		<contour>
			<point x="58" y="656" type="line"/>
			<point x="175" y="649" type="line"/>
			<point x="189" y="649" type="line"/>
			<point x="304" y="656" type="line"/>
			<point x="304" y="676" type="line"/>
			<point x="58" y="676" type="line"/>
		</contour>
		<contour>
			<point x="182" y="344" type="line"/>
			<point x="375" y="344" type="line"/>
			<point x="375" y="366" type="line"/>
			<point x="182" y="366" type="line"/>
		</contour>
		<contour>
			<point x="634" y="-13" type="curve" smooth="yes"/>
			<point x="801" y="-13"/>
			<point x="908" y="126"/>
			<point x="908" y="338" type="curve" smooth="yes"/>
			<point x="908" y="550"/>
			<point x="801" y="689"/>
			<point x="634" y="689" type="curve" smooth="yes"/>
			<point x="467" y="689"/>
			<point x="360" y="547"/>
			<point x="360" y="347" type="curve" smooth="yes"/>
			<point x="360" y="123"/>
			<point x="467" y="-13"/>
		</contour>
		<contour>
			<point x="634" y="9" type="curve" smooth="yes"/>
			<point x="473" y="9"/>
			<point x="390" y="158"/>
			<point x="390" y="347" type="curve" smooth="yes"/>
			<point x="390" y="518"/>
			<point x="473" y="667"/>
			<point x="634" y="667" type="curve" smooth="yes"/>
			<point x="795" y="667"/>
			<point x="878" y="518"/>
			<point x="878" y="338" type="curve" smooth="yes"/>
			<point x="878" y="158"/>
			<point x="795" y="9"/>
		</contour>
	</outline>
	<anchor name="aboveUC" x="418" y="696"/>
</glyph>
<glyph name="de" format="2">
	<unicode hex="0434"/>
	<advance width="564"/>
	<outline>
		<contour>
			<point x="502" y="0" type="line"/>
			<point x="487" y="12" type="line"/>
			<point x="500" y="-140" type="line"/>
			<point x="522" y="-140" type="line"/>
			<point x="523" y="21" type="line"/>
			<point x="30" y="21" type="line"/>
			<point x="31" y="-140" type="line"/>
			<point x="53" y="-140" type="line"/>
			<point x="66" y="12" type="line"/>
			<point x="51" y="0" type="line"/>
		</contour>
		<contour>
			<point x="398" y="0" type="curve"/>
			<point x="432" y="0" type="line"/>
			<point x="430" y="45"/>
			<point x="429" y="148"/>
			<point x="429" y="210" type="curve" smooth="yes"/>
			<point x="429" y="260" type="line" smooth="yes"/>
			<point x="429" y="322"/>
			<point x="430" y="425"/>
			<point x="432" y="470" type="curve"/>
			<point x="398" y="470" type="line"/>
			<point x="400" y="425"/>
			<point x="401" y="322"/>
			<point x="401" y="260" type="curve" smooth="yes"/>
			<point x="401" y="210" type="line" smooth="yes"/>
			<point x="401" y="148"/>
			<point x="400" y="45"/>
		</contour>
		<contour>
			<point x="128" y="450" type="line"/>
			<point x="210" y="444" type="line"/>
			<point x="220" y="444" type="line"/>
			<point x="220" y="470" type="line"/>
			<point x="128" y="470" type="line"/>
		</contour>
		<contour>
			<point x="415" y="444" type="line"/>
			<point x="420" y="444" type="line"/>
			<point x="518" y="450" type="line"/>
			<point x="518" y="470" type="line"/>
			<point x="415" y="470" type="line"/>
		</contour>
		<contour>
			<point x="68" y="21" type="curve"/>
			<point x="92" y="5" type="line"/>
			<point x="92" y="14" type="line"/>
			<point x="122" y="54"/>
			<point x="146" y="99"/>
			<point x="165" y="148" type="curve" smooth="yes"/>
			<point x="205" y="248"/>
			<point x="226" y="362"/>
			<point x="231" y="470" type="curve"/>
			<point x="209" y="470" type="line"/>
			<point x="201" y="307"/>
			<point x="151" y="135"/>
		</contour>
		<contour>
			<point x="220" y="449" type="line"/>
			<point x="415" y="449" type="line"/>
			<point x="415" y="470" type="line"/>
			<point x="220" y="470" type="line"/>
		</contour>
	</outline>
</glyph>
<glyph name="ze" format="2">
	<unicode hex="0437"/>
	<advance width="412"/>
	<outline>
		<contour>
			<point x="198" y="-13" type="curve" smooth="yes"/>
			<point x="316" y="-13"/>
			<point x="375" y="56"/>
			<point x="375" y="127" type="curve" smooth="yes"/>
			<point x="375" y="199"/>
			<point x="327" y="251"/>
			<point x="229" y="257" type="curve"/>
			<point x="224" y="251" type="line"/>
			<point x="322" y="256"/>
			<point x="358" y="309"/>
			<point x="358" y="365" type="curve" smooth="yes"/>
			<point x="358" y="441"/>
			<point x="305" y="483"/>
			<point x="201" y="483" type="curve" smooth="yes"/>
			<point x="152" y="483"/>
			<point x="109" y="471"/>
			<point x="62" y="443" type="curve"/>
			<point x="64" y="347" type="line"/>
			<point x="86" y="347" type="line"/>
			<point x="95" y="452" type="line"/>
			<point x="79" y="424" type="line"/>
			<point x="122" y="455"/>
			<point x="159" y="463"/>
			<point x="198" y="463" type="curve" smooth="yes"/>
			<point x="290" y="463"/>
			<point x="330" y="427"/>
			<point x="330" y="366" type="curve" smooth="yes"/>
			<point x="330" y="298"/>
			<point x="288" y="264"/>
			<point x="197" y="264" type="curve" smooth="yes"/>
			<point x="157" y="264" type="line"/>
			<point x="157" y="243" type="line"/>
			<point x="199" y="243" type="line" smooth="yes"/>
			<point x="299" y="243"/>
			<point x="344" y="202"/>
			<point x="344" y="130" type="curve" smooth="yes"/>
			<point x="344" y="55"/>
			<point x="290" y="7"/>
			<point x="200" y="7" type="curve" smooth="yes"/>
			<point x="154" y="7"/>
			<point x="117" y="14"/>
			<point x="75" y="44" type="curve"/>
			<point x="103" y="10" type="line"/>
			<point x="81" y="78" type="line" smooth="yes"/>
			<point x="77" y="92"/>
			<point x="70" y="99"/>
			<point x="56" y="99" type="curve" smooth="yes"/>
			<point x="46" y="99"/>
			<point x="39" y="94"/>
			<point x="35" y="81" type="curve"/>
			<point x="58" y="15"/>
			<point x="123" y="-13"/>
		</contour>
	</outline>
	<anchor name="aboveLC" x="209" y="490"/>
</glyph>
<glyph name="icyr" format="2">
	<unicode hex="0438"/>
	<advance width="638"/>
	<outline>
		<contour>
			<point x="45" y="0" type="line"/>
			<point x="251" y="0" type="line"/>
			<point x="251" y="20" type="line"/>
			<point x="153" y="26" type="line"/>
			<point x="143" y="26" type="line"/>
			<point x="45" y="20" type="line"/>
		</contour>
		<contour>
			<point x="385" y="0" type="line"/>
			<point x="593" y="0" type="line"/>
			<point x="593" y="20" type="line"/>
			<point x="494" y="26" type="line"/>
			<point x="484" y="26" type="line"/>
			<point x="385" y="20" type="line"/>
		</contour>
		<contour>
			<point x="131" y="0" type="curve"/>
			<point x="161" y="0" type="line"/>
			<point x="161" y="470" type="line"/>
			<point x="131" y="470" type="line"/>
			<point x="133" y="425"/>
			<point x="134" y="322"/>
			<point x="134" y="260" type="curve" smooth="yes"/>
			<point x="134" y="210" type="line" smooth="yes"/>
			<point x="134" y="148"/>
			<point x="133" y="45"/>
		</contour>
		<contour>
			<point x="151" y="44" type="line"/>
			<point x="322" y="229" type="line"/>
			<point x="494" y="414" type="line"/>
			<point x="496" y="414" type="line"/>
			<point x="480" y="427" type="line"/>
			<point x="308" y="242" type="line"/>
			<point x="136" y="56" type="line"/>
			<point x="134" y="56" type="line"/>
		</contour>
		<contour>
			<point x="477" y="0" type="line"/>
			<point x="506" y="0" type="line"/>
			<point x="504" y="45"/>
			<point x="503" y="148"/>
			<point x="503" y="210" type="curve" smooth="yes"/>
			<point x="503" y="260" type="line" smooth="yes"/>
			<point x="503" y="322"/>
			<point x="504" y="425"/>
			<point x="506" y="470" type="curve"/>
			<point x="477" y="470" type="line"/>
		</contour>
		<contour>
			<point x="45" y="450" type="line"/>
			<point x="143" y="444" type="line"/>
			<point x="153" y="444" type="line"/>
			<point x="251" y="450" type="line"/>
			<point x="251" y="470" type="line"/>
			<point x="45" y="470" type="line"/>
		</contour>
		<contour>
			<point x="385" y="450" type="line"/>
			<point x="484" y="444" type="line"/>
			<point x="494" y="444" type="line"/>
			<point x="593" y="450" type="line"/>
			<point x="593" y="470" type="line"/>
			<point x="385" y="470" type="line"/>
		</contour>
	</outline>
	<anchor name="aboveLC" x="319" y="490"/>
</glyph>
<glyph name="ka" format="2">
	<unicode hex="043A"/>
	<advance width="529"/>
	<outline>
		<contour>
			<point x="45" y="0" type="line"/>
			<point x="251" y="0" type="line"/>
			<point x="251" y="20" type="line"/>
			<point x="153" y="26" type="line"/>
			<point x="143" y="26" type="line"/>
			<point x="45" y="20" type="line"/>
		</contour>
		<contour>
			<point x="45" y="450" type="line"/>
			<point x="143" y="444" type="line"/>
			<point x="153" y="444" type="line"/>
			<point x="251" y="450" type="line"/>
			<point x="251" y="470" type="line"/>
			<point x="45" y="470" type="line"/>
		</contour>
		<contour>
			<point x="131" y="0" type="curve"/>
			<point x="165" y="0" type="line"/>
			<point x="163" y="45"/>
			<point x="162" y="148"/>
			<point x="162" y="242" type="curve" smooth="yes"/>
			<point x="162" y="252" type="line" smooth="yes"/>
			<point x="162" y="322"/>
			<point x="163" y="425"/>
			<point x="165" y="470" type="curve"/>
			<point x="131" y="470" type="line"/>
			<point x="133" y="425"/>
			<point x="134" y="322"/>
			<point x="134" y="260" type="curve" smooth="yes"/>
			<point x="134" y="210" type="line" smooth="yes"/>
			<point x="134" y="148"/>
			<point x="133" y="45"/>
		</contour>
		<contour>
			<point x="388" y="25" type="line" smooth="yes"/>
			<point x="398" y="1"/>
			<point x="407" y="-5"/>
			<point x="454" y="-5" type="curve" smooth="yes"/>
			<point x="469" y="-5"/>
			<point x="491" y="-4"/>
			<point x="510" y="0" type="curve"/>
			<point x="510" y="18" type="line"/>
			<point x="406" y="24" type="line"/>
			<point x="423" y="16" type="line"/>
			<point x="372" y="144" type="line" smooth="yes"/>
			<point x="340" y="225"/>
			<point x="313" y="245"/>
			<point x="263" y="251" type="curve"/>
			<point x="263" y="243" type="line"/>
			<point x="316" y="251"/>
			<point x="347" y="282"/>
			<point x="378" y="363" type="curve" smooth="yes"/>
			<point x="398" y="415"/>
			<point x="410" y="430"/>
			<point x="436" y="455" type="curve"/>
			<point x="403" y="442" type="line"/>
			<point x="414" y="437"/>
			<point x="433" y="432"/>
			<point x="458" y="432" type="curve" smooth="yes"/>
			<point x="482" y="432"/>
			<point x="496" y="441"/>
			<point x="496" y="458" type="curve" smooth="yes"/>
			<point x="496" y="474"/>
			<point x="484" y="480"/>
			<point x="467" y="483" type="curve"/>
			<point x="416" y="473"/>
			<point x="393" y="451"/>
			<point x="361" y="372" type="curve" smooth="yes"/>
			<point x="323" y="278"/>
			<point x="292" y="256"/>
			<point x="228" y="256" type="curve" smooth="yes"/>
			<point x="148" y="256" type="line"/>
			<point x="148" y="237" type="line"/>
			<point x="226" y="237" type="line" smooth="yes"/>
			<point x="288" y="237"/>
			<point x="307" y="228"/>
			<point x="336" y="156" type="curve" smooth="yes"/>
		</contour>
	</outline>
	<anchor name="aboveLC" x="276" y="490"/>
</glyph>
<glyph name="en" format="2">
	<unicode hex="043D"/>
	<advance width="626"/>
	<outline>
		<contour>
			<point x="131" y="0" type="curve"/>
			<point x="165" y="0" type="line"/>
			<point x="163" y="45"/>
			<point x="162" y="148"/>
			<point x="162" y="239" type="curve" smooth="yes"/>
			<point x="162" y="251" type="line" smooth="yes"/>
			<point x="162" y="322"/>
			<point x="163" y="425"/>
			<point x="165" y="470" type="curve"/>
			<point x="131" y="470" type="line"/>
			<point x="133" y="425"/>
			<point x="134" y="322"/>
			<point x="134" y="260" type="curve" smooth="yes"/>
			<point x="134" y="210" type="line" smooth="yes"/>
			<point x="134" y="148"/>
			<point x="133" y="45"/>
		</contour>
		<contour>
			<point x="461" y="0" type="curve"/>
			<point x="495" y="0" type="line"/>
			<point x="493" y="45"/>
			<point x="492" y="148"/>
			<point x="492" y="210" type="curve" smooth="yes"/>
			<point x="492" y="260" type="line" smooth="yes"/>
			<point x="492" y="322"/>
			<point x="493" y="425"/>
			<point x="495" y="470" type="curve"/>
			<point x="461" y="470" type="line"/>
			<point x="463" y="425"/>
			<point x="464" y="322"/>
			<point x="464" y="251" type="curve" smooth="yes"/>
			<point x="464" y="239" type="line" smooth="yes"/>
			<point x="464" y="148"/>
			<point x="463" y="45"/>
		</contour>
		<contour>
			<point x="45" y="0" type="line"/>
			<point x="251" y="0" type="line"/>
			<point x="251" y="20" type="line"/>
			<point x="153" y="26" type="line"/>
			<point x="143" y="26" type="line"/>
			<point x="45" y="20" type="line"/>
		</contour>
		<contour>
			<point x="45" y="450" type="line"/>
			<point x="143" y="444" type="line"/>
			<point x="153" y="444" type="line"/>
			<point x="251" y="450" type="line"/>
			<point x="251" y="470" type="line"/>
			<point x="45" y="470" type="line"/>
		</contour>
		<contour>
			<point x="375" y="0" type="line"/>
			<point x="581" y="0" type="line"/>
			<point x="581" y="20" type="line"/>
			<point x="483" y="26" type="line"/>
			<point x="473" y="26" type="line"/>
			<point x="375" y="20" type="line"/>
		</contour>
		<contour>
			<point x="375" y="450" type="line"/>
			<point x="473" y="444" type="line"/>
			<point x="483" y="444" type="line"/>
			<point x="581" y="450" type="line"/>
			<point x="581" y="470" type="line"/>
			<point x="375" y="470" type="line"/>
		</contour>
		<contour>
			<point x="148" y="236" type="line"/>
			<point x="478" y="236" type="line"/>
			<point x="478" y="257" type="line"/>
			<point x="148" y="257" type="line"/>
		</contour>
	</outline>
</glyph>
<glyph name="te" format="2">
	<unicode hex="0442"/>
	<advance width="534"/>
	<outline>
		<contour>
			<point x="38" y="324" type="line"/>
			<point x="60" y="324" type="line"/>
			<point x="80" y="466" type="line"/>
			<point x="67" y="449" type="line"/>
			<point x="467" y="449" type="line"/>
			<point x="454" y="466" type="line"/>
			<point x="474" y="324" type="line"/>
			<point x="496" y="324" type="line"/>
			<point x="488" y="470" type="line"/>
			<point x="46" y="470" type="line"/>
		</contour>
		<contour>
			<point x="154" y="0" type="line"/>
			<point x="380" y="0" type="line"/>
			<point x="380" y="20" type="line"/>
			<point x="272" y="26" type="line"/>
			<point x="262" y="26" type="line"/>
			<point x="154" y="20" type="line"/>
		</contour>
		<contour>
			<point x="250" y="0" type="curve"/>
			<point x="284" y="0" type="line"/>
			<point x="282" y="45"/>
			<point x="281" y="148"/>
			<point x="281" y="210" type="curve" smooth="yes"/>
			<point x="281" y="260" type="line" smooth="yes"/>
			<point x="281" y="322"/>
			<point x="282" y="425"/>
			<point x="284" y="470" type="curve"/>
			<point x="250" y="470" type="line"/>
			<point x="252" y="425"/>
			<point x="253" y="322"/>
			<point x="253" y="260" type="curve" smooth="yes"/>
			<point x="253" y="210" type="line" smooth="yes"/>
			<point x="253" y="148"/>
			<point x="252" y="45"/>
		</contour>
	</outline>
</glyph>
<glyph name="che" format="2">
	<unicode hex="0447"/>
	<advance width="534"/>
	<outline>
		<contour>
			<point x="231" y="199" type="curve" smooth="yes"/>
			<point x="272" y="199"/>
			<point x="329" y="210"/>
			<point x="386" y="228" type="curve"/>
			<point x="386" y="248" type="line"/>
			<point x="327" y="231"/>
			<point x="278" y="225"/>
			<point x="231" y="225" type="curve" smooth="yes"/>
			<point x="148" y="225"/>
			<point x="120" y="251"/>
			<point x="120" y="336" type="curve" smooth="yes"/>
			<point x="120" y="381"/>
			<point x="120" y="417"/>
			<point x="123" y="470" type="curve"/>
			<point x="94" y="470" type="line"/>
			<point x="93" y="422"/>
			<point x="92" y="373"/>
			<point x="92" y="325" type="curve" smooth="yes"/>
			<point x="92" y="242"/>
			<point x="119" y="199"/>
		</contour>
		<contour>
			<point x="369" y="0" type="curve"/>
			<point x="403" y="0" type="line"/>
			<point x="401" y="45"/>
			<point x="400" y="148"/>
			<point x="400" y="210" type="curve" smooth="yes"/>
			<point x="400" y="260" type="line" smooth="yes"/>
			<point x="400" y="322"/>
			<point x="401" y="425"/>
			<point x="403" y="470" type="curve"/>
			<point x="369" y="470" type="line"/>
			<point x="371" y="425"/>
			<point x="372" y="322"/>
			<point x="372" y="260" type="curve" smooth="yes"/>
			<point x="372" y="221" type="line" smooth="yes"/>
			<point x="372" y="148"/>
			<point x="371" y="45"/>
		</contour>
		<contour>
			<point x="15" y="450" type="line"/>
			<point x="103" y="444" type="line"/>
			<point x="113" y="444" type="line"/>
			<point x="211" y="450" type="line"/>
			<point x="211" y="470" type="line"/>
			<point x="15" y="470" type="line"/>
		</contour>
		<contour>
			<point x="283" y="0" type="line"/>
			<point x="489" y="0" type="line"/>
			<point x="489" y="20" type="line"/>
			<point x="391" y="26" type="line"/>
			<point x="381" y="26" type="line"/>
			<point x="283" y="20" type="line"/>
		</contour>
		<contour>
			<point x="283" y="450" type="line"/>
			<point x="381" y="444" type="line"/>
			<point x="391" y="444" type="line"/>
			<point x="489" y="450" type="line"/>
			<point x="489" y="470" type="line"/>
			<point x="283" y="470" type="line"/>
		</contour>
	</outline>
	<anchor name="aboveLC" x="250" y="490"/>
</glyph>
